<svg width="540" height="480" viewBox="0 0 540 480" fill="none" xmlns="http://www.w3.org/2000/svg">
<rect x="0.5" y="0.5" width="539" height="479" fill="white" stroke="black"/>
<g clip-path="url(#clip0_201_239)">
<path d="M299.394 373.098C296.427 368.943 292.412 365.903 287.363 364.765C282.961 363.772 278.434 363.942 273.959 363.976L217.376 364.412C212.53 364.45 207.883 368.65 208.108 373.683C208.332 378.673 212.181 382.993 217.376 382.953C233.951 382.825 250.526 382.697 267.101 382.57C271.008 382.539 274.918 382.469 278.826 382.482C279.704 382.485 280.578 382.531 281.454 382.541C281.667 382.543 281.82 382.541 281.928 382.537C281.955 382.545 281.978 382.553 282.014 382.562C282.471 382.688 282.94 382.774 283.4 382.894C283.239 382.899 283.699 383.185 283.929 383.283C283.961 383.345 284.029 383.456 284.142 383.627C284.299 383.923 284.765 384.82 284.785 384.792C285.485 386.564 286.063 388.383 286.515 390.234C287.592 394.317 287.828 395.171 287.983 399.001C288.179 403.841 292.106 408.502 297.251 408.272C302.104 408.054 306.728 404.191 306.518 399.001C306.164 390.256 304.629 380.432 299.394 373.098Z" fill="#E6E6E6"/>
<path d="M220.702 394.017C219.639 387.575 218.597 381.128 217.513 374.689C216.414 368.157 214.169 362.175 209.087 357.888C207.729 356.743 206.322 355.673 204.908 354.607C204.411 354.232 203.914 353.857 203.423 353.474C203.394 353.451 203.375 353.437 203.349 353.417C203.295 353.37 203.231 353.315 203.144 353.242C201.026 351.448 198.979 349.576 197.03 347.585C195.299 345.817 193.643 343.973 192.063 342.055C191.668 341.575 191.279 341.092 190.894 340.604C190.828 340.52 190.472 340.059 190.237 339.759C190.018 339.458 189.619 338.915 189.552 338.82C189.103 338.184 188.662 337.542 188.228 336.895C185.277 332.471 182.721 327.796 180.59 322.923C180.379 322.439 180.173 321.953 179.972 321.464C179.918 321.315 179.848 321.123 179.755 320.868C179.326 319.687 178.897 318.508 178.505 317.313C177.671 314.774 176.954 312.199 176.354 309.586C176.057 308.295 175.79 306.998 175.552 305.695C175.43 305.025 175.315 304.353 175.209 303.68C175.191 303.568 175.087 302.842 175.026 302.432C174.98 302.02 174.896 301.29 174.885 301.177C174.817 300.498 174.757 299.819 174.704 299.139C174.586 297.61 174.506 296.078 174.464 294.543C174.393 291.815 174.441 289.088 174.61 286.361C174.706 284.828 174.843 283.3 175.012 281.775C175.022 281.681 175.03 281.606 175.037 281.539C175.048 281.471 175.059 281.394 175.074 281.297C175.198 280.454 175.329 279.613 175.476 278.773C176.032 275.587 176.755 272.432 177.642 269.321C178.062 267.85 178.518 266.391 179.011 264.944C179.23 264.301 179.456 263.661 179.69 263.024C179.675 263.065 180.375 261.277 180.384 261.216C183.161 254.652 187.704 248.669 187.71 241.212C187.714 236.164 183.445 231.328 178.443 231.561C175.949 231.655 173.589 232.713 171.86 234.514C170.131 236.314 169.169 238.716 169.175 241.212C169.175 241.325 169.175 241.422 169.175 241.516C169.128 241.673 169.089 241.804 169.054 241.92C168.512 243.098 167.849 244.216 167.254 245.364C165.626 248.507 164.237 251.752 162.917 255.045C160.756 260.408 159.102 265.961 157.977 271.632C155.531 284.058 155.341 296.823 157.416 309.316C161.01 331.225 172.859 352.197 189.332 366.293C190.762 367.517 192.226 368.699 193.704 369.857C194.316 370.336 194.933 370.807 195.553 371.274C195.846 371.495 197.06 372.453 196.526 371.989C197.674 372.969 198.157 373.462 198.452 374.184C198.495 374.351 198.553 374.577 198.632 374.886C198.84 375.7 199.037 376.513 199.201 377.338C200.635 384.553 201.632 391.888 202.83 399.149C203.653 404.138 209.793 407.385 214.23 405.89C219.394 404.149 221.584 399.363 220.702 394.017Z" fill="#E6E6E6"/>
<path d="M300.331 412.729C296.439 412.739 292.702 411.205 289.939 408.462C287.177 405.719 285.615 401.993 285.596 398.099V387.525C274.528 388.764 236.628 388.477 225.764 386.731V397.676C225.735 401.567 224.17 405.287 221.41 408.028C218.65 410.768 214.918 412.306 211.029 412.306C207.141 412.306 203.409 410.768 200.649 408.028C197.889 405.287 196.324 401.567 196.294 397.676V376.186C181.58 368.009 169.314 356.052 160.761 341.55C152.209 327.047 147.68 310.525 147.642 293.687C147.642 264.815 160.722 237.883 183.528 219.794C198.357 207.994 216.373 200.897 235.264 199.415C237.828 199.214 240.408 199.112 242.932 199.112C251.824 199.112 291.943 200.486 302.009 203.383L324.962 180.6C325.299 180.261 325.73 180.03 326.199 179.936C326.669 179.843 327.155 179.891 327.597 180.075C328.042 180.252 328.423 180.56 328.69 180.958C328.957 181.355 329.098 181.825 329.094 182.304V185.926L333.563 181.498C333.9 181.159 334.33 180.927 334.799 180.833C335.269 180.739 335.755 180.788 336.196 180.972C336.642 181.149 337.023 181.457 337.291 181.855C337.558 182.253 337.699 182.722 337.695 183.202V223.681C349.212 234.067 357.99 247.136 363.251 261.727C368.513 276.319 370.094 291.983 367.856 307.333C365.618 322.682 359.629 337.242 350.421 349.723C341.213 362.203 329.069 372.218 315.065 378.881V398.099C315.046 401.993 313.484 405.719 310.722 408.462C307.96 411.205 304.223 412.739 300.331 412.729V412.729ZM286.754 386.21V398.099C286.783 401.682 288.227 405.108 290.77 407.631C293.312 410.154 296.749 411.57 300.331 411.57C303.912 411.57 307.349 410.154 309.892 407.631C312.435 405.108 313.878 401.682 313.907 398.099V378.149L314.238 377.992C329.95 370.534 343.289 358.865 352.772 344.282C364.857 325.673 369.883 303.351 366.94 281.356C363.998 259.361 353.281 239.146 336.729 224.371L336.537 224.198V183.202C336.541 182.953 336.468 182.708 336.33 182.502C336.191 182.295 335.992 182.136 335.759 182.046C335.529 181.947 335.274 181.92 335.027 181.969C334.781 182.018 334.556 182.14 334.38 182.32L327.935 188.705V182.304C327.94 182.055 327.867 181.81 327.728 181.604C327.589 181.397 327.39 181.238 327.158 181.148C326.927 181.049 326.671 181.023 326.425 181.072C326.178 181.121 325.952 181.244 325.777 181.424L302.333 204.694L302 204.59C292.642 201.66 251.891 200.271 242.932 200.271C240.438 200.271 237.888 200.372 235.355 200.571C216.694 202.034 198.896 209.045 184.248 220.702C161.72 238.57 148.8 265.171 148.8 293.687C148.838 310.376 153.343 326.75 161.846 341.108C170.35 355.467 182.541 367.286 197.154 375.338L197.453 375.503V397.676C197.483 401.259 198.926 404.684 201.469 407.207C204.012 409.729 207.448 411.145 211.029 411.145C214.611 411.145 218.047 409.729 220.59 407.207C223.133 404.684 224.576 401.259 224.606 397.676V385.344L225.292 385.473C235.055 387.31 276.165 387.6 286.1 386.296L286.754 386.21Z" fill="#3F3D56"/>
<path d="M221.809 136.016L157.668 155.298C155.628 155.914 153.916 157.315 152.907 159.193C151.899 161.071 151.677 163.272 152.29 165.313C152.904 167.355 154.302 169.069 156.178 170.08C158.054 171.091 160.255 171.316 162.296 170.704L218.426 153.827L219.602 153.473C219.84 147.412 221.484 141.489 224.404 136.172C224.037 136.008 223.646 135.906 223.245 135.871C222.762 135.824 222.274 135.874 221.809 136.016Z" fill="#76549A"/>
<path d="M161.186 174.815C160.335 174.813 159.506 174.544 158.816 174.044C158.126 173.545 157.61 172.842 157.342 172.034L153.331 159.927C153.163 159.421 153.097 158.887 153.136 158.356C153.174 157.825 153.317 157.306 153.556 156.83C153.795 156.354 154.126 155.93 154.529 155.582C154.931 155.234 155.399 154.968 155.904 154.801L208.109 137.494C208.614 137.327 209.147 137.26 209.678 137.299C210.209 137.338 210.728 137.48 211.203 137.719C211.679 137.958 212.103 138.289 212.451 138.692C212.8 139.095 213.065 139.562 213.233 140.068L217.243 152.175C217.577 153.171 217.51 154.257 217.057 155.205C216.604 156.152 215.799 156.885 214.815 157.25C214.767 157.268 214.718 157.285 214.669 157.301L162.466 174.607C162.053 174.745 161.621 174.815 161.186 174.815Z" fill="#2F2E41"/>
<path d="M258.952 114.515C248.416 114.519 238.295 118.624 230.731 125.961C223.167 133.298 218.754 143.292 218.425 153.827C218.414 154.238 218.408 154.655 218.408 155.072C218.408 163.094 220.786 170.935 225.241 177.605C229.696 184.275 236.028 189.473 243.437 192.543C250.845 195.612 258.997 196.416 266.862 194.851C274.727 193.286 281.951 189.423 287.621 183.751C293.291 178.079 297.153 170.852 298.717 162.985C300.282 155.117 299.479 146.963 296.41 139.552C293.341 132.141 288.145 125.806 281.477 121.35C274.81 116.893 266.971 114.515 258.952 114.515V114.515ZM258.952 194.471C248.51 194.46 238.498 190.306 231.114 182.92C223.731 175.533 219.577 165.518 219.567 155.072C219.567 154.534 219.578 154.001 219.601 153.473C219.915 145.756 222.49 138.3 227.005 132.035C231.52 125.769 237.777 120.969 244.997 118.232C252.218 115.495 260.083 114.942 267.616 116.641C275.148 118.339 282.015 122.216 287.363 127.787C292.711 133.359 296.303 140.38 297.694 147.978C299.085 155.575 298.212 163.414 295.185 170.52C292.157 177.626 287.109 183.684 280.667 187.943C274.225 192.201 266.674 194.471 258.952 194.471V194.471Z" fill="#3F3D56"/>
<path d="M293.126 155.072C293.126 164.139 289.526 172.833 283.117 179.244C276.708 185.655 268.016 189.257 258.953 189.257C249.89 189.257 241.198 185.655 234.789 179.244C228.381 172.833 224.78 164.139 224.78 155.072C224.78 153.989 224.832 152.923 224.931 151.868C225.754 143.118 229.915 135.022 236.549 129.26C243.183 123.498 251.78 120.514 260.556 120.926C269.332 121.338 277.612 125.116 283.677 131.474C289.742 137.833 293.126 146.284 293.126 155.072V155.072Z" fill="#E6E6E6"/>
<path d="M269.129 157.344C268.301 156.254 267.211 155.391 265.961 154.835C264.419 154.185 262.827 153.662 261.2 153.27V143.965C263.7 144.343 266.046 145.412 267.971 147.054L269.859 143.027C268.773 142.059 267.526 141.288 266.175 140.75C264.677 140.143 263.105 139.74 261.501 139.55V134.834H257.128V139.597C255.439 139.786 253.811 140.334 252.35 141.202C251.03 141.983 249.919 143.072 249.112 144.377C248.341 145.65 247.942 147.113 247.959 148.601C247.884 150.213 248.351 151.804 249.286 153.12C250.146 154.259 251.282 155.16 252.587 155.739C254.153 156.408 255.773 156.945 257.429 157.344V166.26C254.478 166.038 251.666 164.915 249.372 163.045L247.484 167.077C248.767 168.138 250.225 168.966 251.794 169.522C253.512 170.138 255.307 170.512 257.128 170.635V175.311H261.501V170.548C263.93 170.282 266.208 169.238 267.994 167.57C268.78 166.815 269.402 165.906 269.818 164.898C270.235 163.891 270.438 162.808 270.415 161.718C270.487 160.157 270.035 158.617 269.129 157.344V157.344ZM257.429 152.285C256.364 151.962 255.374 151.431 254.516 150.721C254.176 150.419 253.907 150.045 253.729 149.626C253.551 149.207 253.467 148.754 253.485 148.299C253.453 147.267 253.832 146.265 254.539 145.512C255.322 144.723 256.333 144.198 257.429 144.012V152.285ZM263.945 164.615C263.206 165.373 262.244 165.875 261.2 166.046V158.375C262.198 158.643 263.132 159.11 263.945 159.748C264.253 160.011 264.498 160.341 264.662 160.712C264.825 161.083 264.903 161.487 264.889 161.892C264.929 162.886 264.592 163.859 263.945 164.615V164.615Z" fill="#76549A"/>
<path d="M163.048 223.884C162.153 223.882 161.283 223.585 160.573 223.039C159.864 222.492 159.354 221.727 159.124 220.862L156.94 212.594C156.667 211.554 156.817 210.449 157.357 209.52C157.897 208.592 158.784 207.915 159.822 207.639L228.712 189.429C229.752 189.158 230.857 189.309 231.785 189.85C232.713 190.392 233.389 191.279 233.665 192.317L235.515 199.322L235.168 199.349C217.5 200.723 200.595 207.131 186.453 217.815L186.353 217.864L164.077 223.75C163.741 223.839 163.395 223.884 163.048 223.884V223.884Z" fill="#2F2E41"/>
<path d="M151.639 264.723C143.557 263.529 135.829 260.605 128.979 256.153C125.586 253.948 122.444 251.378 119.611 248.488C116.815 245.635 114.14 242.392 112.755 238.593C111.422 235.077 111.491 231.184 112.946 227.718C114.382 224.273 117.125 221.538 120.574 220.113C124.043 218.729 128.234 218.581 131.611 220.097C133.22 220.802 134.612 221.923 135.645 223.345C136.125 224 136.48 224.738 136.693 225.522C136.891 226.232 136.909 226.981 136.745 227.7C136.547 228.418 136.198 229.085 135.721 229.657C135.244 230.229 134.651 230.692 133.98 231.016C132.505 231.773 130.906 232.261 129.259 232.456C127.602 232.682 125.222 232.888 123.891 231.558C123.616 231.295 123.401 230.977 123.258 230.624C123.158 230.355 123.123 230.065 123.158 229.78C123.138 229.906 123.238 229.506 123.233 229.522C123.212 229.581 123.12 229.725 123.25 229.504C123.29 229.431 123.336 229.361 123.385 229.293C123.341 229.35 123.244 229.445 123.417 229.282C123.56 229.126 123.743 229.013 123.946 228.955C124.027 228.932 124.108 228.913 124.188 228.891C124.393 228.836 123.985 228.894 124.194 228.888C124.274 228.885 124.356 228.887 124.436 228.884C124.641 228.874 124.234 228.828 124.431 228.877C124.507 228.896 124.583 228.915 124.658 228.939C124.821 228.99 124.542 228.819 124.653 228.947C124.782 229.097 124.516 228.801 124.664 228.946C124.737 229.018 124.806 229.095 124.871 229.175C125.127 229.427 125.472 229.569 125.831 229.569C126.191 229.569 126.535 229.427 126.791 229.175C127.038 228.916 127.176 228.572 127.176 228.214C127.176 227.857 127.038 227.513 126.791 227.254C125.452 225.594 122.808 226.004 121.454 227.407C119.726 229.197 120.41 232.033 122.09 233.594C123.992 235.362 126.686 235.485 129.133 235.188C131.2 234.99 133.215 234.42 135.081 233.507C136.934 232.596 138.384 231.029 139.149 229.11C139.494 228.086 139.618 227 139.513 225.925C139.407 224.849 139.075 223.808 138.537 222.871C136.377 218.808 131.904 216.726 127.483 216.365C125.207 216.187 122.918 216.462 120.749 217.174C118.58 217.886 116.573 219.022 114.846 220.515C111.516 223.514 109.466 227.678 109.119 232.146C108.733 236.779 110.53 241.278 113.149 245.017C115.892 248.816 119.165 252.202 122.868 255.072C130.108 260.854 138.6 264.86 147.665 266.77C148.743 266.993 149.827 267.184 150.917 267.342C151.264 267.426 151.629 267.375 151.94 267.199C152.25 267.023 152.481 266.735 152.587 266.394C152.68 266.046 152.633 265.677 152.455 265.364C152.278 265.051 151.984 264.821 151.639 264.723L151.639 264.723Z" fill="#3F3D56"/>
<path d="M281.024 205.697C269.184 205.529 257.381 205.83 245.615 206.598C241.594 206.861 238.114 208.283 238.114 210.673C238.114 212.671 241.566 215.011 245.615 214.747C257.375 213.979 269.178 213.678 281.024 213.845C290.681 213.982 290.675 205.833 281.024 205.697Z" fill="#CCCCCC"/>
<path d="M263.524 213.442C262.244 213.442 232.186 213.394 232.186 209.24C232.186 205.087 262.244 205.04 263.524 205.04C264.803 205.04 294.862 205.087 294.862 209.24C294.862 213.394 264.803 213.442 263.524 213.442ZM233.361 209.24C234.183 210.5 245.232 212.283 263.524 212.283C281.815 212.283 292.864 210.5 293.686 209.24C292.864 207.982 281.815 206.198 263.524 206.198C245.232 206.198 234.183 207.982 233.361 209.24V209.24Z" fill="#3F3D56"/>
<path d="M358.891 322.629C365.545 322.444 373.827 322.213 380.207 317.551C382.106 316.106 383.667 314.262 384.78 312.15C385.892 310.038 386.53 307.708 386.648 305.324C386.778 301.642 385.448 298.428 382.903 296.277C379.571 293.46 374.705 292.8 369.461 294.341L374.894 254.625L370.906 254.078L364.519 300.77L367.85 299.241C371.711 297.469 377.011 296.568 380.305 299.352C381.113 300.08 381.743 300.985 382.146 301.996C382.548 303.007 382.712 304.097 382.625 305.182C382.527 306.957 382.048 308.69 381.221 310.263C380.394 311.836 379.238 313.212 377.832 314.299C372.867 317.926 366.266 318.394 358.779 318.604L358.891 322.629Z" fill="#3F3D56"/>
<path d="M347.864 258.05H326.184V262.077H347.864V258.05Z" fill="#3F3D56"/>
<path d="M172.859 242.405C171.894 242.401 170.961 242.055 170.229 241.426C169.496 240.798 169.011 239.93 168.86 238.976L167.537 230.528C167.371 229.465 167.634 228.38 168.267 227.511C168.901 226.642 169.853 226.06 170.915 225.893L241.306 214.86C242.368 214.694 243.452 214.957 244.321 215.591C245.189 216.224 245.771 217.176 245.939 218.239L247.262 226.687C247.427 227.75 247.165 228.835 246.531 229.704C245.898 230.572 244.946 231.155 243.884 231.322L173.493 242.355C173.283 242.388 173.071 242.404 172.859 242.405Z" fill="#2F2E41"/>
<path d="M143.728 143.396C160.042 143.396 173.267 130.166 173.267 113.847C173.267 97.5273 160.042 84.2977 143.728 84.2977C127.414 84.2977 114.188 97.5273 114.188 113.847C114.188 130.166 127.414 143.396 143.728 143.396Z" fill="#76549A"/>
<path d="M160.452 121.492C161.396 121.162 162.258 120.633 162.981 119.942C163.459 119.449 163.824 118.857 164.05 118.208C164.275 117.56 164.356 116.869 164.287 116.186C164.247 115.699 164.095 115.227 163.842 114.809C163.59 114.39 163.244 114.036 162.832 113.773C161.763 113.115 160.35 113.14 158.924 113.802L158.76 102.267L157.601 102.284L157.795 115.844L158.677 115.265C159.699 114.595 161.168 114.11 162.225 114.76C162.486 114.932 162.705 115.162 162.863 115.433C163.021 115.703 163.114 116.006 163.136 116.318C163.185 116.828 163.123 117.341 162.956 117.825C162.788 118.308 162.519 118.749 162.165 119.119C160.91 120.365 159.051 120.783 156.93 121.165L157.135 122.305C158.263 122.134 159.373 121.862 160.452 121.492V121.492Z" fill="#2F2E41"/>
<path d="M170.688 101.457L164.52 102.392L164.693 103.538L170.862 102.603L170.688 101.457Z" fill="#2F2E41"/>
<path d="M151.216 104.407L145.048 105.341L145.221 106.487L151.39 105.552L151.216 104.407Z" fill="#2F2E41"/>
<path d="M163.249 241.888C162.186 241.886 161.15 241.56 160.277 240.954C159.405 240.348 158.737 239.49 158.363 238.496L137.997 183.935C135.508 177.243 135.773 169.837 138.736 163.341C141.699 156.845 147.116 151.791 153.8 149.286L170.36 143.1C171.001 142.859 171.682 142.747 172.366 142.771C173.05 142.795 173.722 142.953 174.344 143.238C174.965 143.515 175.524 143.914 175.989 144.41C176.454 144.906 176.815 145.49 177.052 146.127L214.779 217.383C215.024 218.026 215.14 218.71 215.119 219.398C215.098 220.085 214.942 220.761 214.659 221.388C214.376 222.015 213.972 222.579 213.47 223.049C212.968 223.519 212.378 223.885 211.735 224.126L165.07 241.557C164.488 241.775 163.871 241.887 163.249 241.888Z" fill="#2F2E41"/>
<path d="M165.336 144.976L202.769 195.051L177.44 145.502C177.231 144.924 176.91 144.393 176.495 143.939C176.081 143.485 175.581 143.117 175.024 142.856C174.467 142.595 173.865 142.447 173.251 142.419C172.637 142.391 172.023 142.485 171.446 142.694L165.336 144.976Z" fill="#E6E6E6"/>
<path d="M224.606 183.005L157.769 178.698C156.716 178.63 155.686 178.356 154.739 177.89C153.791 177.424 152.945 176.776 152.248 175.982C151.551 175.189 151.017 174.266 150.677 173.267C150.336 172.267 150.196 171.21 150.264 170.156C150.332 169.103 150.606 168.072 151.072 167.125C151.538 166.177 152.186 165.33 152.979 164.633C153.772 163.936 154.694 163.402 155.693 163.061C156.693 162.721 157.749 162.58 158.803 162.648L225.64 166.955C226.133 166.986 226.616 167.115 227.059 167.333C227.503 167.551 227.899 167.855 228.226 168.226C228.552 168.598 228.802 169.03 228.962 169.498C229.121 169.966 229.187 170.461 229.155 170.955L228.606 179.489C228.541 180.486 228.084 181.416 227.334 182.075C226.584 182.735 225.603 183.069 224.606 183.005Z" fill="#76549A"/>
<path d="M206.747 185.766C206.659 185.766 206.57 185.763 206.482 185.757H206.481L151.599 182.221C151.067 182.187 150.548 182.048 150.07 181.813C149.592 181.578 149.165 181.252 148.814 180.852C148.462 180.451 148.193 179.986 148.021 179.482C147.85 178.978 147.779 178.445 147.813 177.913L148.752 163.337C148.786 162.805 148.924 162.286 149.159 161.808C149.394 161.33 149.721 160.903 150.121 160.551C150.521 160.2 150.986 159.93 151.49 159.758C151.994 159.587 152.527 159.516 153.059 159.55L207.941 163.086C209.014 163.157 210.015 163.65 210.724 164.457C211.434 165.265 211.794 166.321 211.727 167.394L210.788 181.971C210.737 182.752 210.461 183.502 209.993 184.13C209.526 184.758 208.888 185.237 208.155 185.512C207.705 185.68 207.228 185.766 206.747 185.766V185.766Z" fill="#2F2E41"/>
<path d="M143.389 94.1971C147.275 90.8538 152.611 93.8446 157.068 93.3211C161.332 92.8202 164.698 88.9944 165.558 84.9301C166.562 80.1883 164.101 75.4377 160.475 72.4813C156.503 69.2433 151.235 68.3138 146.244 68.9128C140.522 69.5994 135.29 72.2672 130.595 75.4939C126.064 78.512 121.896 82.0446 118.176 86.021C114.845 89.7011 112.023 94.0878 111.122 99.0399C110.303 103.54 110.928 108.527 113.588 112.34C114.998 114.294 116.888 115.852 119.075 116.862C121.356 117.983 123.788 118.783 125.998 120.05C129.339 121.965 132.585 125.936 131.539 130.068C131.315 130.971 130.872 131.805 130.25 132.496C129.502 133.326 128.154 132.229 128.903 131.397C130.22 129.935 130.168 127.985 129.466 126.24C128.632 124.273 127.155 122.648 125.277 121.631C122.964 120.309 120.41 119.492 118.04 118.287C115.771 117.187 113.802 115.554 112.299 113.528C109.462 109.584 108.614 104.452 109.257 99.7033C109.953 94.565 112.593 89.8958 115.901 85.983C119.501 81.7248 123.924 78.1203 128.442 74.8822C133.29 71.4076 138.646 68.4702 144.573 67.4077C149.71 66.4867 155.279 67.0537 159.772 69.8545C163.965 72.4687 167.181 76.9658 167.501 81.9909C167.616 84.2772 167.119 86.5529 166.063 88.5837C165.007 90.6145 163.429 92.3271 161.491 93.5452C159.503 94.7354 157.191 95.2711 154.882 95.0767C152.414 94.9187 149.943 94.1626 147.459 94.3725C146.335 94.4407 145.264 94.8737 144.408 95.6057C143.559 96.3362 142.547 94.9216 143.389 94.1971V94.1971Z" fill="#2F2E41"/>
<path d="M483.31 413H55.6896C55.507 412.999 55.3321 412.927 55.2032 412.797C55.0743 412.668 55.002 412.493 55.002 412.31C55.002 412.127 55.0743 411.952 55.2032 411.823C55.3321 411.694 55.507 411.621 55.6896 411.62H483.31C483.493 411.62 483.669 411.693 483.798 411.822C483.927 411.952 484 412.127 484 412.31C484 412.493 483.927 412.669 483.798 412.798C483.669 412.927 483.493 413 483.31 413V413Z" fill="#3F3D56"/>
</g>
<defs>
<clipPath id="clip0_201_239">
<rect width="429" height="346" fill="white" transform="translate(55 67)"/>
</clipPath>
</defs>
</svg>
