<svg width="540" height="480" viewBox="0 0 540 480" fill="none" xmlns="http://www.w3.org/2000/svg">
<rect x="0.5" y="0.5" width="539" height="479" fill="white" stroke="black"/>
<g clip-path="url(#clip0_201_238)">
<path d="M427.608 76.6883L61.4404 183.486L71.1392 216.809L437.307 110.011L427.608 76.6883Z" fill="#3F3D56"/>
<path d="M105.188 336.55L51.2182 151.12C50.8181 149.745 50.9799 148.267 51.6681 147.012C52.3563 145.757 53.5144 144.826 54.8878 144.426L412.179 40.217C413.552 39.8178 415.027 39.9804 416.281 40.669C417.535 41.3577 418.464 42.5161 418.866 43.8901L466.679 208.168L465.2 208.6L417.386 44.3217C417.099 43.3407 416.435 42.5137 415.54 42.0219C414.644 41.5301 413.591 41.4136 412.61 41.6979L55.3188 145.907C54.3378 146.193 53.5106 146.857 53.0191 147.754C52.5275 148.651 52.4119 149.706 52.6977 150.688L106.668 336.118L105.188 336.55Z" fill="#3F3D56"/>
<path d="M387.598 208.931C386.514 208.93 385.46 208.578 384.593 207.926C383.726 207.275 383.092 206.361 382.788 205.319L373.736 174.218C373.366 172.941 373.517 171.57 374.155 170.405C374.794 169.24 375.869 168.376 377.143 168.002L408.212 158.941C409.487 158.57 410.857 158.721 412.021 159.361C413.185 160.001 414.048 161.076 414.421 162.352L423.473 193.453C423.843 194.73 423.692 196.101 423.053 197.266C422.414 198.432 421.34 199.296 420.066 199.669L388.997 208.73C388.543 208.863 388.072 208.931 387.598 208.931V208.931Z" fill="#76549A"/>
<path d="M104.354 151.693C104.261 151.374 104.151 151.059 104.023 150.752C103.154 148.642 101.537 146.927 99.4819 145.937C97.4269 144.948 95.0791 144.753 92.8897 145.392C90.7003 146.03 88.8237 147.455 87.6204 149.394C86.4172 151.333 85.9722 153.649 86.3711 155.897C86.4271 156.225 86.5017 156.549 86.5945 156.869C87.1572 158.791 88.3268 160.479 89.9282 161.681C91.5297 162.882 93.4769 163.532 95.4781 163.533C96.3518 163.534 97.2213 163.41 98.0593 163.162C100.412 162.474 102.395 160.88 103.575 158.73C104.755 156.58 105.035 154.05 104.354 151.693V151.693ZM97.6278 161.681C95.6661 162.251 93.5587 162.019 91.7677 161.036C89.9767 160.053 88.6483 158.399 88.0738 156.437C87.9836 156.117 87.9115 155.793 87.8579 155.465C87.5689 153.613 87.9636 151.719 88.9681 150.138C89.9727 148.556 91.5183 147.395 93.3161 146.871C95.1138 146.348 97.0406 146.497 98.736 147.292C100.431 148.088 101.779 149.474 102.528 151.192C102.668 151.493 102.784 151.805 102.875 152.125C103.443 154.089 103.21 156.198 102.226 157.99C101.243 159.782 99.5887 161.109 97.6278 161.681V161.681Z" fill="#76549A"/>
<path d="M81.6767 158.303C81.1836 156.608 81.231 154.801 81.8122 153.134C82.3934 151.467 83.4795 150.023 84.9192 149.004C83.5704 148.938 82.2253 149.196 80.9962 149.755C79.767 150.315 78.6894 151.161 77.8529 152.223C77.0164 153.284 76.4454 154.53 76.1874 155.857C75.9294 157.184 75.9919 158.553 76.3696 159.851C76.7474 161.149 77.4294 162.338 78.3591 163.318C79.2887 164.299 80.4389 165.043 81.7139 165.488C82.9889 165.934 84.3518 166.068 85.689 165.879C87.0263 165.691 88.2991 165.185 89.4016 164.404C87.64 164.318 85.9491 163.684 84.5644 162.59C83.1798 161.497 82.1703 159.998 81.6767 158.303V158.303Z" fill="#76549A"/>
<path d="M321.193 196.529C321.029 195.939 320.75 195.386 320.373 194.904C319.996 194.422 319.527 194.019 318.994 193.718C318.461 193.417 317.874 193.224 317.266 193.151C316.658 193.077 316.042 193.124 315.453 193.289L264.3 207.612L258.791 209.155H293.386L298.895 207.612L317.965 202.275C319.153 201.941 320.161 201.148 320.766 200.07C321.372 198.993 321.525 197.719 321.193 196.529V196.529Z" fill="#CCCCCC"/>
<path d="M285.003 185.831C284.67 184.64 283.878 183.631 282.801 183.025C281.725 182.419 280.452 182.266 279.263 182.599L202.507 204.087C201.434 204.392 200.505 205.069 199.888 205.999C199.271 206.928 199.005 208.047 199.14 209.155H219.011L224.527 207.612L281.775 191.585C282.964 191.249 283.973 190.455 284.578 189.376C285.183 188.297 285.336 187.022 285.003 185.831V185.831Z" fill="#CCCCCC"/>
<path d="M482.607 207.611H110.459C109.029 207.612 107.658 208.181 106.647 209.194C105.636 210.206 105.067 211.578 105.065 213.01V433.601C105.067 435.032 105.636 436.405 106.647 437.417C107.658 438.429 109.029 438.998 110.459 439H482.607C484.037 438.998 485.407 438.429 486.419 437.417C487.43 436.405 487.998 435.032 488 433.601V213.01C487.998 211.578 487.43 210.206 486.419 209.194C485.407 208.182 484.037 207.612 482.607 207.611V207.611ZM486.459 433.601C486.459 434.624 486.053 435.604 485.33 436.327C484.608 437.051 483.628 437.457 482.607 437.457H110.459C109.437 437.457 108.458 437.051 107.735 436.327C107.013 435.604 106.607 434.624 106.606 433.601V213.01C106.607 211.987 107.013 211.006 107.735 210.283C108.458 209.56 109.437 209.154 110.459 209.153H482.607C483.628 209.154 484.608 209.56 485.33 210.283C486.053 211.006 486.459 211.987 486.459 213.01V433.601Z" fill="#3F3D56"/>
<path d="M146.669 237.693C144.84 237.693 143.052 237.15 141.532 236.133C140.012 235.116 138.826 233.67 138.127 231.979C137.427 230.288 137.244 228.427 137.601 226.632C137.957 224.836 138.838 223.187 140.131 221.893C141.424 220.598 143.071 219.717 144.865 219.36C146.659 219.002 148.518 219.186 150.207 219.886C151.896 220.587 153.34 221.773 154.356 223.295C155.372 224.817 155.915 226.607 155.915 228.437C155.912 230.891 154.937 233.244 153.203 234.979C151.47 236.714 149.12 237.69 146.669 237.693V237.693ZM146.669 220.724C145.145 220.724 143.655 221.177 142.388 222.024C141.121 222.872 140.134 224.076 139.55 225.486C138.967 226.895 138.815 228.446 139.112 229.942C139.409 231.438 140.143 232.813 141.221 233.891C142.298 234.97 143.671 235.704 145.166 236.002C146.66 236.3 148.209 236.147 149.617 235.563C151.025 234.979 152.229 233.991 153.075 232.722C153.922 231.454 154.374 229.963 154.374 228.437C154.371 226.392 153.559 224.432 152.114 222.986C150.67 221.54 148.712 220.727 146.669 220.724V220.724Z" fill="#76549A"/>
<path d="M132.297 228.437C132.298 226.672 132.848 224.95 133.872 223.513C134.896 222.075 136.342 220.993 138.009 220.417C136.732 219.976 135.369 219.847 134.033 220.04C132.696 220.234 131.425 220.744 130.325 221.529C129.226 222.313 128.329 223.35 127.711 224.551C127.092 225.753 126.77 227.085 126.77 228.437C126.77 229.789 127.092 231.121 127.711 232.323C128.329 233.525 129.226 234.561 130.325 235.346C131.425 236.131 132.696 236.641 134.033 236.834C135.369 237.028 136.732 236.899 138.009 236.458C136.342 235.882 134.896 234.8 133.872 233.362C132.848 231.924 132.298 230.203 132.297 228.437V228.437Z" fill="#76549A"/>
<path d="M184.148 337.79C182.31 337.788 180.547 337.056 179.247 335.755C177.947 334.454 177.216 332.689 177.214 330.849V310.024C177.214 308.183 177.944 306.417 179.245 305.115C180.545 303.813 182.309 303.082 184.148 303.082C185.987 303.082 187.751 303.813 189.052 305.115C190.352 306.417 191.083 308.183 191.083 310.024V330.849C191.081 332.689 190.349 334.454 189.049 335.755C187.749 337.056 185.987 337.788 184.148 337.79V337.79Z" fill="#76549A"/>
<path d="M202.64 337.79C200.802 337.788 199.039 337.056 197.739 335.755C196.439 334.454 195.708 332.689 195.706 330.849V310.024C195.706 308.183 196.437 306.417 197.737 305.115C199.038 303.813 200.801 303.082 202.64 303.082C204.48 303.082 206.243 303.813 207.544 305.115C208.844 306.417 209.575 308.183 209.575 310.024V330.849C209.573 332.689 208.842 334.454 207.542 335.755C206.242 337.056 204.479 337.788 202.64 337.79V337.79Z" fill="#76549A"/>
<path d="M221.133 337.79C219.294 337.788 217.532 337.056 216.232 335.755C214.932 334.454 214.2 332.689 214.198 330.849V310.024C214.198 308.183 214.929 306.417 216.229 305.115C217.53 303.813 219.294 303.082 221.133 303.082C222.972 303.082 224.736 303.813 226.036 305.115C227.336 306.417 228.067 308.183 228.067 310.024V330.849C228.065 332.689 227.334 334.454 226.034 335.755C224.734 337.056 222.971 337.788 221.133 337.79V337.79Z" fill="#76549A"/>
<path d="M249.64 337.79C247.802 337.788 246.039 337.056 244.739 335.755C243.439 334.454 242.708 332.689 242.706 330.849V310.024C242.706 308.183 243.437 306.417 244.737 305.115C246.038 303.813 247.801 303.082 249.64 303.082C251.48 303.082 253.243 303.813 254.544 305.115C255.844 306.417 256.575 308.183 256.575 310.024V330.849C256.573 332.689 255.842 334.454 254.542 335.755C253.242 337.056 251.479 337.788 249.64 337.79V337.79Z" fill="#76549A"/>
<path d="M268.133 337.79C266.294 337.788 264.532 337.056 263.232 335.755C261.932 334.454 261.2 332.689 261.198 330.849V310.024C261.198 308.183 261.929 306.417 263.229 305.115C264.53 303.813 266.294 303.082 268.133 303.082C269.972 303.082 271.736 303.813 273.036 305.115C274.336 306.417 275.067 308.183 275.067 310.024V330.849C275.065 332.689 274.334 334.454 273.034 335.755C271.734 337.056 269.971 337.788 268.133 337.79V337.79Z" fill="#76549A"/>
<path d="M286.624 337.79C284.785 337.788 283.023 337.056 281.723 335.755C280.423 334.454 279.692 332.689 279.689 330.849V310.024C279.689 308.183 280.42 306.417 281.721 305.115C283.021 303.813 284.785 303.082 286.624 303.082C288.463 303.082 290.227 303.813 291.527 305.115C292.828 306.417 293.558 308.183 293.558 310.024V330.849C293.556 332.689 292.825 334.454 291.525 335.755C290.225 337.056 288.462 337.788 286.624 337.79V337.79Z" fill="#76549A"/>
<path d="M315.133 337.79C313.294 337.788 311.532 337.056 310.232 335.755C308.932 334.454 308.2 332.689 308.198 330.849V310.024C308.198 308.183 308.929 306.417 310.229 305.115C311.53 303.813 313.294 303.082 315.133 303.082C316.972 303.082 318.736 303.813 320.036 305.115C321.336 306.417 322.067 308.183 322.067 310.024V330.849C322.065 332.689 321.334 334.454 320.034 335.755C318.734 337.056 316.971 337.788 315.133 337.79V337.79Z" fill="#76549A"/>
<path d="M333.624 337.79C331.785 337.788 330.023 337.056 328.723 335.755C327.423 334.454 326.692 332.689 326.689 330.849V310.024C326.689 308.183 327.42 306.417 328.721 305.115C330.021 303.813 331.785 303.082 333.624 303.082C335.463 303.082 337.227 303.813 338.527 305.115C339.828 306.417 340.558 308.183 340.558 310.024V330.849C340.556 332.689 339.825 334.454 338.525 335.755C337.225 337.056 335.462 337.788 333.624 337.79V337.79Z" fill="#76549A"/>
<path d="M352.116 337.79C350.278 337.788 348.515 337.056 347.215 335.755C345.915 334.454 345.184 332.689 345.182 330.849V310.024C345.182 308.183 345.912 306.417 347.213 305.115C348.513 303.813 350.277 303.082 352.116 303.082C353.955 303.082 355.719 303.813 357.019 305.115C358.32 306.417 359.05 308.183 359.05 310.024V330.849C359.048 332.689 358.317 334.454 357.017 335.755C355.717 337.056 353.955 337.788 352.116 337.79V337.79Z" fill="#76549A"/>
<path d="M380.624 337.79C378.785 337.788 377.023 337.056 375.723 335.755C374.423 334.454 373.692 332.689 373.689 330.849V310.024C373.689 308.183 374.42 306.417 375.721 305.115C377.021 303.813 378.785 303.082 380.624 303.082C382.463 303.082 384.227 303.813 385.527 305.115C386.828 306.417 387.558 308.183 387.558 310.024V330.849C387.556 332.689 386.825 334.454 385.525 335.755C384.225 337.056 382.462 337.788 380.624 337.79V337.79Z" fill="#76549A"/>
<path d="M399.116 337.79C397.278 337.788 395.515 337.056 394.215 335.755C392.915 334.454 392.184 332.689 392.182 330.849V310.024C392.182 308.183 392.912 306.417 394.213 305.115C395.513 303.813 397.277 303.082 399.116 303.082C400.955 303.082 402.719 303.813 404.019 305.115C405.32 306.417 406.05 308.183 406.05 310.024V330.849C406.048 332.689 405.317 334.454 404.017 335.755C402.717 337.056 400.955 337.788 399.116 337.79V337.79Z" fill="#76549A"/>
<path d="M417.607 337.79C415.769 337.788 414.006 337.056 412.706 335.755C411.406 334.454 410.675 332.689 410.673 330.849V310.024C410.673 308.183 411.403 306.417 412.704 305.115C414.004 303.813 415.768 303.082 417.607 303.082C419.446 303.082 421.21 303.813 422.511 305.115C423.811 306.417 424.542 308.183 424.542 310.024V330.849C424.54 332.689 423.808 334.454 422.508 335.755C421.208 337.056 419.446 337.788 417.607 337.79V337.79Z" fill="#76549A"/>
<path d="M231.163 415.049H131.43C130.194 415.049 129.009 414.558 128.135 413.683C127.261 412.808 126.771 411.622 126.771 410.385C126.771 409.148 127.261 407.961 128.135 407.087C129.009 406.212 130.194 405.72 131.43 405.72H231.163C232.398 405.72 233.584 406.212 234.457 407.087C235.331 407.961 235.822 409.148 235.822 410.385C235.822 411.622 235.331 412.808 234.457 413.683C233.584 414.558 232.398 415.049 231.163 415.049Z" fill="#E6E6E6"/>
<path d="M199.187 394.995H163.406C162.17 394.995 160.985 394.504 160.111 393.629C159.237 392.754 158.746 391.568 158.746 390.331C158.746 389.094 159.237 387.908 160.111 387.033C160.985 386.158 162.17 385.667 163.406 385.667H199.187C200.423 385.667 201.608 386.158 202.482 387.033C203.356 387.908 203.847 389.094 203.847 390.331C203.847 391.568 203.356 392.754 202.482 393.629C201.608 394.504 200.423 394.995 199.187 394.995V394.995Z" fill="#E6E6E6"/>
<path d="M486.181 253.719H106.329V255.262H486.181V253.719Z" fill="#3F3D56"/>
</g>
<defs>
<clipPath id="clip0_201_238">
<rect width="437" height="399" fill="white" transform="translate(51 40)"/>
</clipPath>
</defs>
</svg>
