<svg width="540" height="480" viewBox="0 0 540 480" fill="none" xmlns="http://www.w3.org/2000/svg">
<rect x="0.5" y="0.5" width="539" height="479" fill="white" stroke="black"/>
<g clip-path="url(#clip0_201_110)">
<path d="M159.492 425.424L168.296 424.424L168.632 389.992L155.639 391.467L159.492 425.424Z" fill="#FFB8B8"/>
<path d="M186.202 430.673L158.533 433.813L157.32 423.122L174.299 421.196C177.134 420.874 179.981 421.692 182.213 423.469C184.446 425.246 185.881 427.837 186.202 430.673V430.673H186.202Z" fill="#2F2E41"/>
<path d="M68.9516 424.873H77.812L82.0269 390.697L68.9502 390.699L68.9516 424.873Z" fill="#FFB8B8"/>
<path d="M94.8997 433.1L67.0532 433.101L67.0527 422.342L84.1403 422.342C86.9938 422.341 89.7304 423.475 91.7481 425.492C93.7659 427.51 94.8995 430.247 94.8997 433.1Z" fill="#2F2E41"/>
<path d="M132.521 272.044L137.58 288.499L165.043 347.928L172.27 404.3L155.648 405.022L145.53 352.987L110.84 315.406L80.4863 413.695L66.7549 412.249C66.7549 412.249 78.3182 285.052 94.2178 272.044C94.2178 272.044 120.235 259.757 132.521 272.044Z" fill="#2F2E41"/>
<path d="M110.081 201.04C119.884 201.04 127.831 193.093 127.831 183.29C127.831 173.486 119.884 165.539 110.081 165.539C100.277 165.539 92.3301 173.486 92.3301 183.29C92.3301 193.093 100.277 201.04 110.081 201.04Z" fill="#FFB8B8"/>
<path d="M134.328 275.296C134.328 275.296 136.496 201.579 106.143 206.638C75.7889 211.697 88.4363 282.884 88.4363 282.884C88.4363 282.884 94.9407 295.893 110.84 281.439C126.74 266.985 134.328 275.296 134.328 275.296Z" fill="#CCCCCC"/>
<path opacity="0.2" d="M92.4121 237.715L99.5546 265.094L110.436 275.976L95.3029 270.96L92.4121 237.715Z" fill="black"/>
<path d="M134.553 306.472C133.554 306.11 132.647 305.533 131.895 304.783C131.143 304.032 130.565 303.125 130.201 302.127C129.838 301.129 129.698 300.063 129.79 299.005C129.883 297.946 130.207 296.921 130.739 296.001L113.857 276.457L127.166 274.725L141.156 293.55C142.642 294.546 143.711 296.053 144.16 297.784C144.61 299.515 144.408 301.351 143.594 302.944C142.78 304.537 141.41 305.776 139.744 306.426C138.077 307.076 136.23 307.093 134.553 306.472H134.553Z" fill="#FFB8B8"/>
<path d="M113.998 221.653L115.899 259.035L138.303 287.943L128.908 295.17L98.554 264.816C98.554 264.816 87.7134 227.958 95.6632 217.118C98.6444 213.052 101.93 211.934 104.873 212.125C107.295 212.327 109.559 213.407 111.24 215.161C112.92 216.916 113.902 219.225 113.998 221.653V221.653Z" fill="#CCCCCC"/>
<path d="M107.97 201.941C108.054 201.865 108.12 201.77 108.162 201.664C108.204 201.558 108.22 201.444 108.21 201.331C108.2 201.217 108.164 201.108 108.104 201.011C108.045 200.914 107.963 200.832 107.866 200.772C106.29 199.796 105.006 198.414 104.148 196.77C103.291 195.126 102.892 193.281 102.994 191.43C103.096 189.579 103.694 187.789 104.727 186.249C105.759 184.709 107.187 183.475 108.861 182.678C114.079 180.189 121.151 182.125 125.009 177.344C125.794 176.321 126.348 175.141 126.636 173.884C126.923 172.627 126.936 171.323 126.673 170.061C125.841 165.545 122.446 162.191 118.644 159.893C113.973 157.069 108.605 155.61 103.148 155.681C97.6908 155.752 92.3626 157.35 87.767 160.294C83.1715 163.238 79.4924 167.41 77.1465 172.338C74.8006 177.266 73.8818 182.752 74.4941 188.175C74.9849 192.522 76.326 197.396 73.7416 200.924C71.467 204.03 67.1735 204.613 63.402 205.384C55.3126 207.04 47.5084 210.858 42.0189 217.026C36.5293 223.194 33.6007 231.847 35.2558 239.937C36.911 248.026 43.5511 255.136 51.7123 256.389C58.3552 257.41 65.2145 254.589 70.0926 249.966C74.9708 245.343 78.0543 239.1 79.9992 232.666C82.3076 225.031 83.2182 216.802 87.3858 210.001C91.4642 203.345 100.253 198.573 107.141 202.04C107.273 202.109 107.423 202.136 107.571 202.119C107.719 202.101 107.858 202.039 107.97 201.941V201.941Z" fill="#2F2E41"/>
<path d="M245.594 434H23.7227C23.531 434 23.3472 433.924 23.2117 433.788C23.0761 433.653 23 433.469 23 433.277C23 433.086 23.0761 432.902 23.2117 432.766C23.3472 432.631 23.531 432.555 23.7227 432.555H245.594C245.786 432.555 245.97 432.631 246.105 432.766C246.241 432.902 246.317 433.086 246.317 433.277C246.317 433.469 246.241 433.653 246.105 433.788C245.97 433.924 245.786 434 245.594 434Z" fill="#3F3D56"/>
<path d="M469.727 187.938C469.687 208.409 461.99 228.126 448.15 243.21C434.311 258.295 415.328 267.656 394.936 269.455C374.543 271.253 354.216 265.358 337.949 252.929C321.683 240.5 310.654 222.435 307.032 202.286C303.409 182.138 307.454 161.363 318.373 144.046C329.291 126.729 346.292 114.122 366.034 108.705C385.776 103.287 406.83 105.45 425.057 114.769C443.285 124.088 457.367 139.889 464.536 159.064C464.715 159.546 464.889 160.027 465.059 160.513V160.518C465.816 162.655 466.482 164.832 467.058 167.048C468.836 173.869 469.733 180.889 469.727 187.938V187.938Z" fill="#3F3D56"/>
<path d="M378.148 132.244C374.438 130.238 370.319 129.105 366.106 128.933C361.892 128.76 357.694 129.553 353.833 131.249C350.434 132.728 346.854 135.383 345.72 140.175C350.307 137.468 356.244 141.745 357.424 148.607L357.149 148.683C356.525 153.435 357.917 158.609 360.611 161.556C360.812 160.226 361.306 158.958 362.057 157.843C362.809 156.728 363.8 155.795 364.957 155.11C366.937 153.809 369.127 152.864 370.638 150.627C372.429 147.975 372.884 144.1 373.595 140.564C374.307 137.029 375.657 133.229 378.148 132.244Z" fill="#76549A"/>
<path d="M352.473 172.685C351.202 174.592 349.506 175.789 347.983 177.28C346.225 178.879 345.072 181.034 344.718 183.384C344.525 185.044 344.823 186.732 344.782 188.41C344.741 190.089 344.181 191.978 343.039 192.395C341.237 193.046 339.861 189.699 338.009 189.465C336.536 189.281 335.211 191.597 335.638 193.606C336.064 195.615 338.068 196.504 339.219 195.193C340.26 196.94 339.527 200.109 337.963 200.645C337.798 201.746 337.633 202.842 337.472 203.943C333.519 201.177 329.525 198.366 326.163 194.317C322.424 189.851 320.106 184.37 319.504 178.578C319.068 173.923 319.715 168.599 317.578 165.017C315.868 162.151 312.932 161.518 310.291 161.697C309.809 161.729 309.323 161.784 308.842 161.843C310.4 157.165 312.378 152.636 314.753 148.315C315.291 148.084 315.79 147.773 316.234 147.393C318.692 145.306 319.784 141.083 321.779 138.161C321.907 137.973 322.04 137.79 322.178 137.611C324.219 134.946 326.952 133.575 329.593 132.3C335.44 129.462 341.457 126.586 347.63 126.981L345.873 127.15C343.824 132.892 341.772 138.634 339.719 144.375C339.407 145.256 339.092 146.138 338.774 147.021C337.609 150.287 336.408 153.763 336.587 157.418C336.692 159.582 337.444 161.894 338.875 162.637C340.21 163.325 341.668 162.481 342.957 161.646C343.502 161.298 344.044 160.949 344.589 160.596C346.547 159.335 348.717 158.041 350.785 158.885C352.679 159.656 354.078 162.229 354.344 165.003C354.588 167.7 353.93 170.402 352.473 172.685Z" fill="#76549A"/>
<path d="M364.119 211.884C358.4 208.363 352.68 204.842 346.961 201.32L347.058 201.07C343.502 202.425 342.026 208.745 342.614 213.915C343.201 219.084 345.194 223.705 346.201 228.741C347.558 235.634 347.046 242.764 344.717 249.392C352.237 240.953 358.893 231.782 364.583 222.016C365.378 220.785 365.984 219.442 366.381 218.031C366.8 216.528 366.651 214.923 365.96 213.523C365.492 212.832 364.859 212.269 364.119 211.884V211.884Z" fill="#76549A"/>
<path d="M341.547 147.82C340.876 149.262 340.772 150.904 341.257 152.419C341.822 153.64 342.845 154.588 344.106 155.057L347.266 156.624C348.317 157.145 349.45 157.671 350.522 157.242C351.814 156.725 352.711 154.699 352.479 152.817C352.232 150.815 350.97 149.438 349.803 148.265C348.17 146.624 346.537 144.983 344.903 143.342L343.983 144.47C342.987 145.441 342.164 146.574 341.547 147.82V147.82Z" fill="#76549A"/>
<path d="M452.786 169.222C454.208 169.557 455.63 169.892 457.051 170.227C456.804 175.028 454.423 179.472 451.232 181.082C449.902 181.751 448.42 181.999 447.32 183.251C446.325 184.388 445.82 186.158 445.357 187.85C444.545 190.804 443.733 193.757 442.922 196.711C442.05 199.893 440.931 203.429 438.666 204.576C436.722 205.562 434.497 204.355 433.002 202.333C431.507 200.311 430.595 197.591 429.71 194.941C429.765 197.83 428.421 200.664 426.518 201.668C424.61 202.672 422.289 201.764 421.015 199.522C420.097 197.912 419.717 195.789 418.818 194.156C417.919 192.524 416.034 191.588 415.053 193.12C414.406 194.138 414.489 195.697 414.168 196.99C414.006 197.849 413.581 198.636 412.951 199.242C412.322 199.847 411.519 200.242 410.655 200.37C409.86 200.352 409.078 200.172 408.355 199.842C407.632 199.512 406.983 199.038 406.45 198.449C403.641 195.576 401.813 191.889 401.226 187.915C400.828 186.009 400.879 184.037 401.373 182.155C401.937 180.371 403.299 178.995 404.652 179.334C405.541 177.454 403.785 174.959 402.203 175.179C400.616 175.4 399.373 177.101 398.071 178.408C396.773 179.715 394.957 180.664 393.65 179.366C393.679 179.841 393.519 180.308 393.204 180.664C392.889 181.021 392.445 181.237 391.97 181.267C391.923 181.269 391.876 181.27 391.829 181.27C390.96 181.02 390.153 180.592 389.459 180.013C386.464 178.147 382.662 179.385 380.534 182.916C381.864 177.257 383.813 170.763 387.899 169.433C389.569 168.887 391.389 169.337 392.967 168.392C395.76 166.718 396.324 160.394 393.911 157.785C394.219 160.252 394.159 163.132 392.857 164.82C391.554 166.507 388.821 165.407 388.986 162.912C388.949 163.263 388.802 163.593 388.566 163.855C388.33 164.117 388.016 164.298 387.671 164.371C387.326 164.444 386.967 164.407 386.644 164.263C386.322 164.12 386.053 163.878 385.877 163.572C385.01 162.252 385.084 160.092 385.698 158.514C386.332 157.085 387.24 155.795 388.372 154.717C390.55 152.383 392.76 150.021 395.283 148.553C397.81 147.086 400.726 146.59 403.258 148.049C404.592 148.819 405.766 150.103 407.128 150.782C407.448 150.981 407.804 151.114 408.176 151.175C408.548 151.236 408.928 151.223 409.295 151.137C409.661 151.052 410.008 150.894 410.314 150.675C410.62 150.455 410.879 150.177 411.078 149.857L411.078 149.857C411.093 149.832 411.108 149.807 411.123 149.782C412.136 148.003 411.659 145.361 412.035 143.137C412.709 139.207 416.64 137.368 418.818 139.964C417.19 139.546 415.507 141.472 415.305 143.807C415.099 146.141 416.277 148.498 417.855 149.204C420.506 150.378 423.101 147.425 425.105 144.692C427.197 141.83 429.291 138.97 431.388 136.111C431.723 135.625 432.099 135.167 432.512 134.745C433.169 134.104 434.044 133.738 434.961 133.719C435.878 133.7 436.768 134.031 437.451 134.644C439.57 136.373 440.565 139.918 442.303 142.358C444.825 145.902 448.599 146.765 452.112 147.453C454.731 147.962 457.351 148.474 459.973 148.989C461.72 152.24 463.245 155.606 464.536 159.064C459.728 161.257 455.65 164.782 452.786 169.222V169.222Z" fill="#76549A"/>
<path d="M461.252 224.401C459.287 228.39 457.002 232.214 454.419 235.834C452.768 235.128 450.993 236.389 449.447 237.572C447.833 238.81 445.893 240.016 444.238 238.888C442.546 237.732 442 234.499 442.536 231.936C443.153 229.571 444.232 227.351 445.71 225.405C447.086 223.351 448.558 221.218 450.47 220.42C452.387 219.622 454.85 220.75 455.409 223.475L456.767 223.429C456.005 222.383 456.404 220.218 457.427 219.838C458.606 219.393 459.628 221.012 460.325 222.443C460.637 223.089 460.954 223.741 461.252 224.401Z" fill="#76549A"/>
<path d="M409.262 205.03C406.345 205.214 404.034 201.622 402.498 198.088C400.962 194.554 399.561 190.513 396.928 188.715C395.424 187.687 393.709 187.546 392.077 187.048C391.152 186.814 390.295 186.363 389.579 185.733C388.862 185.102 388.306 184.309 387.957 183.421L386.107 182.673C383.518 183.967 381.147 185.658 379.079 187.684C376.717 190.193 375.246 193.41 374.892 196.838C374.539 200.543 375.844 204.674 378.284 206.065C380.211 207.165 382.455 206.472 384.408 207.479C386.847 208.736 388.296 212.39 388.844 215.998C389.392 219.605 389.253 223.354 389.646 227.003C390.038 230.651 391.119 234.448 393.356 236.317C396.156 238.657 400.264 236.713 401.52 232.454C402.136 230.365 402.114 228.007 402.575 225.839C403.387 222.02 405.577 219.186 407.313 216.053C409.05 212.921 410.418 208.666 409.262 205.03Z" fill="#76549A"/>
<path d="M380.431 167.502C380.703 167.753 380.957 168.022 381.191 168.309C381.433 168.726 381.557 169.201 381.548 169.684C381.54 170.166 381.4 170.637 381.144 171.045C381.496 171.025 381.839 170.933 382.153 170.773C382.467 170.614 382.744 170.391 382.968 170.119C383.5 169.512 383.969 168.852 384.366 168.15C384.552 167.909 384.685 167.631 384.757 167.335C384.828 167.039 384.835 166.731 384.778 166.432C384.64 166.038 384.314 165.871 384.085 165.575C383.769 164.996 383.552 164.368 383.446 163.718C383.319 163.108 383.025 162.545 382.596 162.093C382.167 161.641 381.621 161.318 381.018 161.159L381.165 161.187C380.916 161.335 380.719 161.557 380.603 161.822C380.486 162.087 380.456 162.381 380.515 162.665C380.604 163.237 380.971 163.712 380.935 164.296C380.882 165.135 380.043 165.529 379.992 166.368C379.983 166.789 380.141 167.197 380.431 167.502V167.502Z" fill="#76549A"/>
<path d="M375.433 153.24L375.446 153.237C375.535 153.155 375.619 153.067 375.695 152.972L375.433 153.24Z" fill="#76549A"/>
<path d="M376.307 157.179C376.657 156.872 376.917 156.474 377.056 156.029C377.196 155.584 377.211 155.109 377.099 154.657C376.887 153.702 376.137 153.061 375.445 153.237C375.244 153.441 374.995 153.59 374.721 153.67C374.447 153.751 374.156 153.761 373.877 153.699C373.45 153.588 372.98 153.305 372.609 153.627C372.397 153.868 372.248 154.158 372.177 154.471C372.039 154.892 371.902 155.314 371.765 155.736C371.699 155.886 371.682 156.054 371.716 156.215C371.742 156.279 371.785 156.336 371.839 156.379C371.894 156.423 371.959 156.451 372.027 156.462L374.499 157.191C374.783 157.322 375.092 157.388 375.404 157.386C375.717 157.384 376.025 157.314 376.307 157.179V157.179Z" fill="#76549A"/>
<path d="M438.513 211.569C438.132 210.945 437.751 210.321 437.37 209.698C436.996 208.976 436.484 208.333 435.864 207.807C435.593 207.58 435.243 207.47 434.89 207.501C434.538 207.532 434.212 207.702 433.985 207.973L433.985 207.973L433.965 207.997L434.011 208.354C435.031 209.447 435.726 210.803 436.018 212.27C436.105 212.907 436.075 213.566 436.151 214.206C436.159 214.503 436.225 214.796 436.347 215.067C436.468 215.338 436.641 215.582 436.857 215.786C437.456 216.187 438.161 215.596 438.587 214.875C438.969 214.283 439.14 213.58 439.073 212.879C438.978 212.408 438.787 211.962 438.513 211.569V211.569Z" fill="#76549A"/>
<path d="M444.487 212.38C444.56 211.796 444.512 211.204 444.348 210.639C444.321 209.875 444.523 209.12 444.929 208.472C445.333 207.861 445.639 207.191 445.836 206.485C445.919 206.164 445.904 205.825 445.792 205.512C445.666 205.229 445.361 205.1 445.186 205.324L445.561 205.566C445.054 205.475 444.534 205.501 444.039 205.639C443.757 205.748 443.505 205.922 443.304 206.148C443.103 206.375 442.96 206.646 442.886 206.939C442.824 207.396 442.723 207.848 442.584 208.288C442.36 208.747 441.928 208.9 441.656 209.303C441.47 209.661 441.376 210.059 441.383 210.462C441.39 210.865 441.497 211.26 441.694 211.611C442.035 212.186 442.578 212.613 443.217 212.809C443.675 212.973 444.278 212.982 444.487 212.38Z" fill="#76549A"/>
<path d="M455.128 215.591C455.293 216.021 455.515 216.428 455.787 216.801C456.296 217.314 456.989 216.998 457.607 216.874C458.167 216.785 458.742 216.85 459.269 217.061C459.796 217.273 460.256 217.623 460.6 218.074C460.36 216.879 459.837 215.759 459.075 214.807C458.312 213.856 457.333 213.102 456.218 212.608C454.77 212.106 453.244 211.868 451.712 211.903L451.45 211.97C452.117 213.911 454.211 213.868 455.128 215.591Z" fill="#76549A"/>
<path d="M410.062 219.561L410.065 219.569L410.141 219.423L410.062 219.561Z" fill="#76549A"/>
<path d="M408.447 222.685C408.095 223.324 407.792 223.989 407.541 224.675C407.209 225.785 406.989 226.925 406.885 228.079C406.803 228.735 406.778 229.572 407.189 229.892C407.307 229.971 407.449 230.003 407.59 229.984C407.73 229.965 407.859 229.896 407.951 229.789C408.18 229.547 408.367 229.269 408.504 228.967C409.312 227.576 409.939 226.087 410.371 224.537C410.821 222.893 410.713 221.146 410.065 219.569C409.526 220.608 408.986 221.647 408.447 222.685Z" fill="#76549A"/>
<path d="M392.874 139.442C393.131 139.693 393.455 139.863 393.807 139.932C394.159 140 394.523 139.965 394.855 139.829C395.542 139.528 396.172 139.112 396.718 138.598C397.17 138.263 397.554 137.845 397.848 137.366C398.01 137.079 398.114 136.763 398.153 136.437C398.193 136.11 398.168 135.778 398.079 135.462C397.953 135.158 397.751 134.891 397.493 134.687C397.235 134.483 396.93 134.348 396.605 134.295C395.69 134.024 394.776 133.753 393.861 133.482L394.523 132.886C393.842 132.52 393.089 133.198 392.664 134.038C392.391 134.586 392.201 135.171 392.099 135.775C391.954 136.406 391.949 137.061 392.083 137.694C392.216 138.327 392.487 138.924 392.874 139.442V139.442Z" fill="#76549A"/>
<path d="M409.022 134.022C409.279 134.306 409.636 134.481 410.018 134.512C410.401 134.543 410.781 134.428 411.081 134.189C411.339 133.995 411.554 133.749 411.711 133.466C411.868 133.183 411.964 132.871 411.992 132.549C412.056 131.829 411.701 131.03 411.193 130.967L411.309 130.294C410.33 130.117 409.126 130.082 408.602 131.27C408.425 131.725 408.37 132.219 408.444 132.702C408.518 133.185 408.717 133.64 409.022 134.022V134.022Z" fill="#76549A"/>
<path d="M342.489 182.475C345.86 182.475 348.594 178.81 348.594 174.289C348.594 169.768 345.86 166.102 342.489 166.102C339.117 166.102 336.384 169.768 336.384 174.289C336.384 178.81 339.117 182.475 342.489 182.475Z" fill="#E6E6E6"/>
<path d="M454.053 283.846C456.968 283.07 458.893 280.797 458.353 278.769C457.813 276.742 455.012 275.727 452.098 276.504C449.183 277.28 447.258 279.553 447.798 281.58C448.338 283.608 451.138 284.622 454.053 283.846Z" fill="#E6E6E6"/>
<path d="M418.355 284.506C421.269 283.73 423.194 281.457 422.654 279.429C422.114 277.402 419.314 276.387 416.399 277.164C413.485 277.94 411.56 280.213 412.1 282.24C412.64 284.268 415.44 285.282 418.355 284.506Z" fill="#E6E6E6"/>
<path d="M460.395 254.145C463.309 253.368 465.234 251.095 464.694 249.068C464.154 247.04 461.354 246.026 458.439 246.802C455.525 247.578 453.6 249.851 454.14 251.879C454.68 253.906 457.48 254.921 460.395 254.145Z" fill="#E6E6E6"/>
<path d="M470.924 241.519C472.24 241.356 473.116 239.69 472.882 237.798C472.647 235.907 471.39 234.505 470.074 234.668C468.758 234.832 467.882 236.497 468.116 238.389C468.351 240.281 469.608 241.682 470.924 241.519Z" fill="#E6E6E6"/>
<path d="M473.59 219.111C474.906 218.948 475.782 217.282 475.548 215.39C475.313 213.499 474.056 212.097 472.74 212.261C471.424 212.424 470.548 214.09 470.782 215.981C471.017 217.873 472.274 219.274 473.59 219.111Z" fill="#E6E6E6"/>
<path d="M437.604 262.187C438.92 262.024 439.797 260.358 439.562 258.467C439.328 256.575 438.071 255.174 436.755 255.337C435.439 255.5 434.562 257.166 434.797 259.058C435.031 260.949 436.288 262.351 437.604 262.187Z" fill="#E6E6E6"/>
<path d="M455.652 268.72C456.968 268.557 457.845 266.891 457.61 264.999C457.376 263.108 456.119 261.706 454.803 261.87C453.487 262.033 452.61 263.699 452.845 265.59C453.079 267.482 454.336 268.883 455.652 268.72Z" fill="#E6E6E6"/>
<path d="M433.738 287.223C435.054 287.06 435.931 285.394 435.696 283.503C435.462 281.611 434.205 280.21 432.889 280.373C431.573 280.536 430.696 282.202 430.931 284.094C431.165 285.985 432.422 287.387 433.738 287.223Z" fill="#E6E6E6"/>
<path d="M276.607 253.867C279.521 253.091 281.446 250.818 280.906 248.79C280.366 246.763 277.566 245.748 274.651 246.524C271.737 247.301 269.812 249.573 270.352 251.601C270.892 253.629 273.692 254.643 276.607 253.867Z" fill="#E6E6E6"/>
<path d="M240.908 254.528C243.822 253.752 245.747 251.479 245.207 249.451C244.667 247.424 241.867 246.41 238.952 247.186C236.038 247.962 234.113 250.235 234.653 252.262C235.192 254.29 237.993 255.304 240.908 254.528Z" fill="#E6E6E6"/>
<path d="M282.95 224.164C285.864 223.388 287.789 221.115 287.249 219.088C286.709 217.06 283.909 216.046 280.994 216.822C278.08 217.598 276.155 219.871 276.695 221.899C277.234 223.926 280.035 224.941 282.95 224.164Z" fill="#E6E6E6"/>
<path d="M293.477 211.54C294.793 211.377 295.67 209.711 295.435 207.819C295.201 205.927 293.944 204.526 292.628 204.689C291.312 204.852 290.435 206.518 290.67 208.41C290.904 210.302 292.161 211.703 293.477 211.54Z" fill="#E6E6E6"/>
<path d="M296.143 189.132C297.459 188.969 298.336 187.303 298.101 185.411C297.867 183.52 296.61 182.118 295.294 182.281C293.978 182.445 293.101 184.11 293.336 186.002C293.57 187.894 294.827 189.295 296.143 189.132Z" fill="#E6E6E6"/>
<path d="M260.158 232.208C261.474 232.045 262.351 230.379 262.116 228.488C261.882 226.596 260.625 225.195 259.309 225.358C257.993 225.521 257.116 227.187 257.35 229.078C257.585 230.97 258.842 232.371 260.158 232.208Z" fill="#E6E6E6"/>
<path d="M278.207 238.741C279.523 238.578 280.399 236.912 280.165 235.02C279.93 233.129 278.673 231.727 277.357 231.89C276.041 232.054 275.165 233.719 275.399 235.611C275.634 237.503 276.891 238.904 278.207 238.741Z" fill="#E6E6E6"/>
<path d="M256.292 257.244C257.608 257.081 258.484 255.415 258.25 253.523C258.015 251.632 256.758 250.23 255.442 250.394C254.126 250.557 253.25 252.223 253.484 254.114C253.719 256.006 254.976 257.407 256.292 257.244Z" fill="#E6E6E6"/>
<path d="M493.495 116.598C496.41 115.822 498.335 113.549 497.795 111.522C497.255 109.494 494.455 108.48 491.54 109.256C488.625 110.032 486.7 112.305 487.24 114.333C487.78 116.36 490.581 117.375 493.495 116.598Z" fill="#E6E6E6"/>
<path d="M457.796 117.26C460.711 116.483 462.636 114.211 462.096 112.183C461.556 110.155 458.755 109.141 455.841 109.917C452.926 110.693 451.001 112.966 451.541 114.994C452.081 117.021 454.882 118.036 457.796 117.26Z" fill="#E6E6E6"/>
<path d="M499.838 86.8952C502.753 86.119 504.678 83.8461 504.138 81.8186C503.598 79.791 500.797 78.7766 497.883 79.5528C494.968 80.329 493.043 82.6019 493.583 84.6295C494.123 86.657 496.924 87.6714 499.838 86.8952Z" fill="#E6E6E6"/>
<path d="M510.366 74.2714C511.682 74.1083 512.559 72.4424 512.324 70.5507C512.09 68.659 510.833 67.2577 509.517 67.4208C508.201 67.584 507.324 69.2498 507.558 71.1416C507.793 73.0333 509.05 74.4346 510.366 74.2714Z" fill="#E6E6E6"/>
<path d="M513.032 51.8635C514.348 51.7004 515.225 50.0345 514.99 48.1428C514.756 46.251 513.499 44.8498 512.183 45.0129C510.867 45.1761 509.99 46.8419 510.224 48.7336C510.459 50.6254 511.716 52.0267 513.032 51.8635Z" fill="#E6E6E6"/>
<path d="M477.047 94.9398C478.363 94.7767 479.239 93.1108 479.005 91.2191C478.77 89.3273 477.513 87.9261 476.197 88.0892C474.881 88.2524 474.005 89.9182 474.239 91.81C474.474 93.7017 475.731 95.103 477.047 94.9398Z" fill="#E6E6E6"/>
<path d="M495.095 101.473C496.411 101.309 497.288 99.6436 497.054 97.7518C496.819 95.8601 495.562 94.4588 494.246 94.622C492.93 94.7851 492.053 96.4509 492.288 98.3427C492.523 100.234 493.779 101.636 495.095 101.473Z" fill="#E6E6E6"/>
<path d="M473.181 119.976C474.497 119.813 475.374 118.147 475.14 116.255C474.905 114.363 473.648 112.962 472.332 113.125C471.016 113.288 470.139 114.954 470.374 116.846C470.608 118.738 471.865 120.139 473.181 119.976Z" fill="#E6E6E6"/>
<path d="M265.881 258.945C260.04 258.945 256.243 257.494 254.562 254.609C251.248 248.92 256.799 238.937 271.06 224.938L272.258 226.158C259.011 239.162 253.251 248.96 256.04 253.748C257.804 256.777 263.056 257.862 271.23 256.886C279.345 255.917 290.099 253.03 303.193 248.304C330.151 238.575 363.972 222.164 398.427 202.094C432.88 182.024 463.839 160.7 485.601 142.049C489.781 138.466 493.574 135.019 496.876 131.804C501.21 127.688 505.208 123.231 508.833 118.478C513.714 111.85 515.362 106.746 513.597 103.717C510.65 98.6584 498.27 99.1341 478.736 105.059L478.24 103.422C499.198 97.0666 511.591 96.876 515.075 102.857C517.239 106.573 515.603 112.17 510.21 119.493C506.53 124.321 502.47 128.848 498.069 133.03C494.742 136.269 490.921 139.74 486.714 143.347C464.876 162.064 433.827 183.452 399.287 203.571C364.747 223.692 330.826 240.15 303.774 249.913C290.558 254.682 279.676 257.6 271.433 258.584C269.591 258.813 267.737 258.934 265.881 258.945V258.945Z" fill="#3F3D56"/>
</g>
<defs>
<clipPath id="clip0_201_110">
<rect width="493" height="389" fill="white" transform="translate(23 45)"/>
</clipPath>
</defs>
</svg>
