<svg width="540" height="480" viewBox="0 0 540 480" fill="none" xmlns="http://www.w3.org/2000/svg">
<rect x="0.5" y="0.5" width="539" height="479" fill="white" stroke="black"/>
<g clip-path="url(#clip0_202_363)">
<path d="M206.991 282.044L105.349 303.454C102.412 304.07 99.3505 303.495 96.8363 301.858C94.3221 300.22 92.5607 297.652 91.9384 294.718L74.4969 212.024C73.8813 209.089 74.4558 206.029 76.0946 203.517C77.7334 201.004 80.3026 199.244 83.2385 198.622L184.88 177.211C187.817 176.596 190.879 177.17 193.393 178.808C195.907 180.446 197.668 183.013 198.291 185.947L215.732 268.641C216.348 271.577 215.773 274.636 214.134 277.149C212.496 279.661 209.926 281.422 206.991 282.044V282.044ZM83.5132 199.924C80.9227 200.473 78.6558 202.026 77.2098 204.243C75.7638 206.46 75.2568 209.16 75.8 211.75L93.2415 294.444C93.7906 297.033 95.3448 299.298 97.5632 300.743C99.7816 302.188 102.483 302.695 105.075 302.152L206.716 280.741C209.306 280.193 211.573 278.639 213.019 276.422C214.465 274.205 214.972 271.506 214.429 268.916L196.988 186.222C196.438 183.633 194.884 181.367 192.666 179.922C190.447 178.477 187.746 177.971 185.154 178.513L83.5132 199.924Z" fill="#3F3D56"/>
<path d="M178.564 204.478L127.267 215.283C126.819 215.387 126.347 215.317 125.948 215.087C125.548 214.857 125.252 214.484 125.117 214.044C125.056 213.814 125.042 213.574 125.076 213.339C125.11 213.103 125.192 212.878 125.317 212.675C125.441 212.472 125.606 212.297 125.8 212.16C125.995 212.023 126.215 211.927 126.448 211.878L178.665 200.879C180.704 202.027 180.06 204.163 178.564 204.478L178.564 204.478Z" fill="#CCCCCC"/>
<path d="M180.461 213.47L129.164 224.276C128.715 224.38 128.243 224.31 127.844 224.079C127.445 223.849 127.148 223.476 127.014 223.036C126.952 222.806 126.938 222.566 126.972 222.331C127.007 222.096 127.089 221.87 127.213 221.667C127.338 221.464 127.502 221.289 127.697 221.152C127.891 221.015 128.112 220.919 128.344 220.87L180.562 209.871C182.6 211.019 181.956 213.155 180.46 213.47L180.461 213.47Z" fill="#CCCCCC"/>
<path d="M119.155 231.731L103.5 235.029C102.989 235.136 102.456 235.036 102.018 234.751C101.58 234.466 101.274 234.019 101.166 233.508L97.2715 215.046C97.1643 214.535 97.2643 214.002 97.5495 213.565C97.8348 213.127 98.282 212.821 98.7931 212.713L114.448 209.415C114.96 209.308 115.492 209.408 115.93 209.693C116.368 209.978 116.674 210.425 116.783 210.935L120.677 229.398C120.784 229.909 120.684 230.442 120.399 230.879C120.114 231.317 119.666 231.623 119.155 231.731V231.731Z" fill="#CCCCCC"/>
<path d="M184.196 231.913L105.907 248.404C105.458 248.508 104.986 248.438 104.587 248.208C104.188 247.978 103.891 247.605 103.757 247.164C103.695 246.935 103.681 246.695 103.716 246.459C103.75 246.224 103.832 245.998 103.956 245.796C104.081 245.593 104.245 245.418 104.44 245.281C104.634 245.144 104.855 245.048 105.088 244.999L184.297 228.313C186.336 229.462 185.691 231.598 184.196 231.913V231.913Z" fill="#CCCCCC"/>
<path d="M186.092 240.908L107.804 257.399C107.355 257.503 106.883 257.433 106.484 257.203C106.085 256.973 105.788 256.6 105.653 256.159C105.592 255.929 105.578 255.69 105.612 255.454C105.646 255.219 105.728 254.993 105.853 254.79C105.977 254.588 106.142 254.413 106.336 254.276C106.531 254.139 106.751 254.043 106.984 253.994L186.193 237.308C188.232 238.457 187.588 240.592 186.092 240.908V240.908Z" fill="#CCCCCC"/>
<path d="M187.989 249.897L109.7 266.388C109.251 266.492 108.779 266.422 108.38 266.192C107.981 265.962 107.684 265.589 107.55 265.148C107.488 264.918 107.474 264.679 107.509 264.443C107.543 264.208 107.625 263.982 107.749 263.78C107.874 263.577 108.038 263.402 108.233 263.265C108.427 263.128 108.648 263.032 108.881 262.983L188.09 246.297C190.129 247.446 189.484 249.581 187.989 249.897H187.989Z" fill="#CCCCCC"/>
<path d="M189.885 258.89L111.597 275.382C111.148 275.486 110.676 275.416 110.277 275.186C109.878 274.956 109.581 274.583 109.446 274.142C109.385 273.912 109.371 273.673 109.405 273.437C109.439 273.202 109.521 272.976 109.646 272.773C109.77 272.571 109.935 272.396 110.129 272.259C110.324 272.122 110.544 272.026 110.777 271.977L189.986 255.291C192.025 256.44 191.381 258.575 189.885 258.89V258.89Z" fill="#CCCCCC"/>
<path d="M191.782 267.88L113.493 284.372C113.044 284.476 112.572 284.406 112.173 284.175C111.774 283.945 111.477 283.572 111.343 283.132C111.281 282.902 111.267 282.662 111.301 282.427C111.336 282.192 111.418 281.966 111.542 281.763C111.667 281.561 111.831 281.385 112.026 281.248C112.22 281.111 112.441 281.015 112.674 280.966L191.883 264.281C193.922 265.429 193.277 267.565 191.782 267.88V267.88Z" fill="#CCCCCC"/>
<path d="M204.269 226.711C204.091 227.034 203.939 227.37 203.814 227.716L171.764 235.665L166.189 229.9L156.384 237.172L165.262 248.336C165.979 249.238 166.97 249.883 168.085 250.174C169.2 250.465 170.38 250.387 171.447 249.951L206.225 235.749C207.368 236.59 208.74 237.063 210.159 237.106C211.577 237.148 212.975 236.758 214.167 235.987C215.358 235.216 216.287 234.101 216.829 232.79C217.37 231.479 217.5 230.034 217.2 228.648C216.9 227.261 216.185 225.999 215.149 225.029C214.114 224.058 212.808 223.426 211.404 223.216C210 223.006 208.566 223.227 207.291 223.852C206.017 224.476 204.963 225.474 204.269 226.711L204.269 226.711Z" fill="#FFB8B8"/>
<path d="M94.8702 297.443C95.8694 297.134 96.7888 296.611 97.5636 295.909C98.3384 295.207 98.9498 294.344 99.3547 293.38C99.7596 292.417 99.9482 291.376 99.9071 290.332C99.8661 289.287 99.5965 288.265 99.1172 287.336L121.173 226.071L105.856 223.358L88.9921 284.433C87.484 285.341 86.3617 286.77 85.8376 288.45C85.3136 290.13 85.4244 291.943 86.149 293.547C86.8735 295.151 88.1615 296.433 89.7689 297.151C91.3763 297.869 93.1914 297.973 94.8702 297.443V297.443Z" fill="#FFB8B8"/>
<path d="M118.373 236.946L103.249 231.145C102.819 230.98 102.43 230.725 102.107 230.395C101.785 230.066 101.537 229.672 101.381 229.238C101.225 228.805 101.164 228.343 101.203 227.884C101.241 227.425 101.379 226.98 101.605 226.578L109.539 212.521C110.397 210.326 112.09 208.561 114.248 207.612C116.406 206.663 118.853 206.608 121.051 207.459C123.25 208.31 125.021 209.997 125.978 212.15C126.934 214.304 126.996 216.749 126.152 218.948L122.653 234.651C122.552 235.101 122.356 235.523 122.078 235.89C121.799 236.257 121.445 236.56 121.038 236.778C120.632 236.996 120.184 237.123 119.724 237.152C119.264 237.181 118.803 237.111 118.373 236.946V236.946Z" fill="#76549A"/>
<path d="M152.508 412.466H160.671L164.555 380.998L152.507 380.999L152.508 412.466Z" fill="#FFB8B8"/>
<path d="M150.426 409.802L166.502 409.802H166.503C167.848 409.802 169.181 410.067 170.424 410.581C171.667 411.096 172.796 411.85 173.747 412.8C174.699 413.751 175.453 414.88 175.968 416.122C176.483 417.364 176.748 418.696 176.748 420.04V420.373L150.426 420.374L150.426 409.802Z" fill="#2F2E41"/>
<path d="M106.564 412.466H114.727L118.611 380.998L106.562 380.999L106.564 412.466Z" fill="#FFB8B8"/>
<path d="M104.481 409.802L120.558 409.802H120.559C121.904 409.802 123.236 410.067 124.479 410.581C125.722 411.096 126.852 411.85 127.803 412.8C128.754 413.751 129.509 414.88 130.024 416.122C130.539 417.364 130.804 418.696 130.804 420.04V420.373L104.482 420.374L104.481 409.802Z" fill="#2F2E41"/>
<path d="M115.121 399.801H104.79C104.385 399.801 103.984 399.718 103.611 399.559C103.238 399.399 102.902 399.166 102.622 398.873C102.342 398.579 102.125 398.232 101.983 397.853C101.841 397.473 101.778 397.069 101.797 396.664L106.704 291.303L107.014 291.295L156.899 289.995L166.661 395.416C166.699 395.811 166.657 396.21 166.539 396.589C166.421 396.968 166.229 397.32 165.974 397.624C165.718 397.928 165.405 398.179 165.052 398.361C164.699 398.543 164.313 398.653 163.917 398.684L152.314 399.612C151.585 399.67 150.86 399.459 150.275 399.02C149.691 398.581 149.287 397.944 149.14 397.228L134.297 322.182C134.257 321.954 134.136 321.748 133.956 321.602C133.777 321.455 133.551 321.378 133.319 321.384H133.315C133.083 321.379 132.856 321.457 132.677 321.605C132.498 321.753 132.378 321.961 132.339 322.19L118.061 397.385C117.926 398.065 117.559 398.677 117.023 399.118C116.487 399.558 115.815 399.799 115.121 399.801V399.801Z" fill="#2F2E41"/>
<path d="M134.045 197.335C143.077 197.335 150.399 190.018 150.399 180.991C150.399 171.965 143.077 164.647 134.045 164.647C125.012 164.647 117.69 171.965 117.69 180.991C117.69 190.018 125.012 197.335 134.045 197.335Z" fill="#FFB8B8"/>
<path d="M128.561 303.65C120.767 303.65 112.76 301.603 106.123 295.549C105.77 295.229 105.497 294.83 105.327 294.385C105.157 293.94 105.095 293.461 105.145 292.987C105.855 286.608 109.301 253.672 107.36 231.671C106.982 227.561 107.564 223.42 109.061 219.574C110.558 215.728 112.929 212.282 115.987 209.509C118.991 206.741 122.598 204.71 126.523 203.574C130.447 202.438 134.582 202.23 138.601 202.965H138.601C138.805 203.001 139.009 203.039 139.212 203.078C152.306 205.611 161.403 217.721 160.373 231.247C158.871 250.984 157.525 277.681 159.639 292.779C159.727 293.397 159.619 294.026 159.331 294.58C159.042 295.133 158.588 295.582 158.031 295.865C153.221 298.294 141.168 303.65 128.561 303.65Z" fill="#76549A"/>
<path d="M149.901 238.122C149.517 237.867 149.193 237.532 148.951 237.14C148.709 236.748 148.554 236.309 148.497 235.852L146.504 219.888C145.872 217.618 146.166 215.19 147.322 213.136C148.478 211.082 150.402 209.57 152.672 208.932C154.942 208.293 157.373 208.58 159.431 209.73C161.489 210.88 163.008 212.798 163.653 215.065L170.216 229.812C170.403 230.233 170.497 230.689 170.492 231.15C170.487 231.61 170.383 232.064 170.186 232.481C169.99 232.898 169.706 233.267 169.353 233.564C169.001 233.861 168.589 234.079 168.145 234.202L152.539 238.542C152.095 238.666 151.629 238.693 151.174 238.62C150.719 238.547 150.285 238.378 149.901 238.122V238.122Z" fill="#76549A"/>
<path d="M128.335 197.104C126.788 197.133 125.249 196.855 123.809 196.286C123.176 196.042 122.518 195.841 121.886 195.597C116.302 193.441 112.623 187.498 112.491 181.516C112.36 175.535 115.459 169.729 120.062 165.903C124.664 162.077 130.626 160.113 136.595 159.659C143.025 159.17 150.265 160.799 153.858 166.151C154.815 167.575 155.483 169.303 154.917 171.023C154.747 171.542 154.444 172.008 154.038 172.373C152.433 173.799 150.833 172.727 149.198 172.632C146.949 172.502 144.93 174.32 144.204 176.451C143.478 178.582 143.798 180.927 144.384 183.1C144.83 184.408 145.112 185.766 145.222 187.143C145.269 187.834 145.139 188.525 144.844 189.152C144.549 189.778 144.099 190.319 143.536 190.723C142.132 191.571 140.287 191.08 138.881 190.233C137.475 189.385 136.26 188.207 134.742 187.584C133.223 186.96 131.183 187.099 130.3 188.481C130.019 188.984 129.829 189.533 129.738 190.102C128.946 193.709 129.128 193.497 128.335 197.104V197.104Z" fill="#2F2E41"/>
<path d="M354.861 174.787H250.987C247.986 174.783 245.108 173.59 242.986 171.47C240.864 169.349 239.67 166.473 239.667 163.474V78.9631C239.67 75.9639 240.864 73.0885 242.986 70.9677C245.108 68.8469 247.986 67.654 250.987 67.6506H354.861C357.862 67.654 360.74 68.8469 362.862 70.9677C364.984 73.0885 366.177 75.9639 366.181 78.9631V163.474C366.177 166.473 364.984 169.349 362.862 171.47C360.74 173.59 357.862 174.783 354.861 174.787V174.787ZM250.987 68.9815C248.339 68.9845 245.8 70.0371 243.927 71.9084C242.055 73.7796 241.002 76.3168 240.999 78.9631V163.474C241.002 166.121 242.055 168.658 243.927 170.529C245.8 172.4 248.339 173.453 250.987 173.456H354.861C357.509 173.453 360.048 172.4 361.92 170.529C363.793 168.658 364.846 166.121 364.849 163.474V78.9631C364.846 76.3168 363.793 73.7796 361.92 71.9084C360.048 70.0371 357.509 68.9845 354.861 68.9815H250.987Z" fill="#3F3D56"/>
<path d="M343.054 93.0294H290.63C290.169 93.0388 289.722 92.873 289.379 92.5655C289.036 92.258 288.823 91.8319 288.782 91.3731C288.769 91.1357 288.805 90.8981 288.887 90.6749C288.969 90.4517 289.096 90.2476 289.259 90.075C289.423 89.9024 289.62 89.7649 289.839 89.671C290.057 89.577 290.293 89.5286 290.531 89.5286H343.895C345.653 91.0724 344.582 93.0295 343.053 93.0295L343.054 93.0294Z" fill="#CCCCCC"/>
<path d="M343.054 102.219H290.63C290.169 102.228 289.722 102.063 289.379 101.755C289.036 101.448 288.823 101.022 288.782 100.563C288.769 100.325 288.805 100.088 288.887 99.8646C288.969 99.6414 289.096 99.4373 289.259 99.2647C289.423 99.0921 289.62 98.9546 289.839 98.8607C290.057 98.7667 290.293 98.7183 290.531 98.7183H343.895C345.653 100.262 344.582 102.219 343.053 102.219L343.054 102.219Z" fill="#CCCCCC"/>
<path d="M279.298 107.451H263.298C262.776 107.451 262.275 107.243 261.906 106.874C261.536 106.505 261.329 106.004 261.328 105.482V86.6138C261.329 86.0918 261.536 85.5912 261.906 85.2221C262.275 84.8529 262.776 84.6453 263.298 84.6448H279.298C279.82 84.6455 280.321 84.8532 280.69 85.2223C281.06 85.5914 281.267 86.0918 281.268 86.6138V105.482C281.268 106.004 281.06 106.505 280.69 106.874C280.321 107.243 279.82 107.451 279.298 107.451V107.451Z" fill="#3F3D56"/>
<path d="M342.902 121.035H262.894C262.433 121.044 261.986 120.879 261.643 120.571C261.3 120.264 261.086 119.837 261.045 119.379C261.033 119.141 261.068 118.904 261.151 118.681C261.233 118.457 261.359 118.253 261.523 118.081C261.687 117.908 261.884 117.771 262.103 117.677C262.321 117.583 262.557 117.534 262.795 117.534H343.744C345.502 119.078 344.431 121.035 342.902 121.035V121.035Z" fill="#CCCCCC"/>
<path d="M342.902 130.227H262.894C262.433 130.237 261.986 130.071 261.643 129.763C261.3 129.456 261.086 129.03 261.045 128.571C261.033 128.334 261.068 128.096 261.151 127.873C261.233 127.65 261.359 127.446 261.523 127.273C261.687 127.1 261.884 126.963 262.103 126.869C262.321 126.775 262.557 126.727 262.795 126.727H343.744C345.502 128.27 344.431 130.227 342.902 130.227V130.227Z" fill="#CCCCCC"/>
<path d="M342.902 139.414H262.894C262.433 139.423 261.986 139.258 261.643 138.95C261.3 138.643 261.086 138.216 261.045 137.758C261.033 137.52 261.068 137.283 261.151 137.059C261.233 136.836 261.359 136.632 261.523 136.46C261.687 136.287 261.884 136.149 262.103 136.056C262.321 135.962 262.557 135.913 262.795 135.913H343.744C345.502 137.457 344.431 139.414 342.902 139.414V139.414Z" fill="#CCCCCC"/>
<path d="M342.902 148.606H262.894C262.433 148.615 261.986 148.449 261.643 148.142C261.3 147.834 261.086 147.408 261.045 146.949C261.033 146.712 261.068 146.474 261.151 146.251C261.233 146.028 261.359 145.824 261.523 145.651C261.687 145.479 261.884 145.341 262.103 145.247C262.321 145.153 262.557 145.105 262.795 145.105H343.744C345.502 146.649 344.431 148.606 342.902 148.606V148.606Z" fill="#CCCCCC"/>
<path d="M342.902 157.793H262.894C262.433 157.802 261.986 157.636 261.643 157.329C261.3 157.021 261.086 156.595 261.045 156.136C261.033 155.899 261.068 155.661 261.151 155.438C261.233 155.215 261.359 155.011 261.523 154.838C261.687 154.666 261.884 154.528 262.103 154.434C262.321 154.34 262.557 154.292 262.795 154.292H343.744C345.502 155.836 344.431 157.793 342.902 157.793Z" fill="#CCCCCC"/>
<path d="M332.222 59C333.105 59.001 333.951 59.3519 334.575 59.9756C335.199 60.5994 335.55 61.4451 335.551 62.3272V72.9743C335.55 73.8564 335.199 74.7021 334.575 75.3258C333.951 75.9496 333.105 76.3005 332.222 76.3015H273.626C272.744 76.3005 271.897 75.9496 271.273 75.3258C270.649 74.7021 270.298 73.8564 270.297 72.9743V62.3272C270.298 61.4451 270.649 60.5994 271.273 59.9756C271.897 59.3519 272.744 59.001 273.626 59" fill="#76549A"/>
<path d="M504.68 279.261H400.806C397.805 279.258 394.928 278.065 392.806 275.944C390.683 273.823 389.49 270.948 389.486 267.949V183.438C389.49 180.438 390.683 177.563 392.806 175.442C394.928 173.321 397.805 172.128 400.806 172.125H504.68C507.682 172.128 510.559 173.321 512.681 175.442C514.803 177.563 515.997 180.438 516 183.438V267.949C515.997 270.948 514.803 273.823 512.681 275.944C510.559 278.065 507.682 279.258 504.68 279.261ZM400.806 173.456C398.158 173.459 395.619 174.511 393.747 176.383C391.874 178.254 390.821 180.791 390.818 183.438V267.949C390.821 270.595 391.874 273.132 393.747 275.003C395.619 276.875 398.158 277.927 400.806 277.93H504.68C507.329 277.927 509.867 276.875 511.74 275.003C513.612 273.132 514.665 270.595 514.668 267.949V183.438C514.665 180.791 513.612 178.254 511.74 176.383C509.867 174.511 507.329 173.459 504.68 173.456H400.806Z" fill="#3F3D56"/>
<path d="M492.873 197.504H440.449C439.989 197.513 439.542 197.347 439.198 197.04C438.855 196.732 438.642 196.306 438.601 195.847C438.588 195.61 438.624 195.372 438.706 195.149C438.788 194.926 438.915 194.722 439.079 194.549C439.242 194.377 439.44 194.239 439.658 194.145C439.877 194.051 440.112 194.003 440.35 194.003H493.715C495.473 195.547 494.401 197.504 492.873 197.504H492.873Z" fill="#3F3D56"/>
<path d="M492.873 206.693H440.449C439.989 206.703 439.542 206.537 439.198 206.229C438.855 205.922 438.642 205.496 438.601 205.037C438.588 204.799 438.624 204.562 438.706 204.339C438.788 204.116 438.915 203.911 439.079 203.739C439.242 203.566 439.44 203.429 439.658 203.335C439.877 203.241 440.112 203.192 440.35 203.192H493.715C495.473 204.736 494.401 206.693 492.873 206.693H492.873Z" fill="#3F3D56"/>
<path d="M429.116 211.926H413.117C412.594 211.925 412.094 211.718 411.724 211.349C411.355 210.979 411.147 210.479 411.146 209.957V191.088C411.147 190.566 411.355 190.066 411.724 189.696C412.094 189.327 412.594 189.12 413.117 189.119H429.116C429.638 189.12 430.139 189.328 430.509 189.697C430.878 190.066 431.086 190.566 431.086 191.088V209.957C431.086 210.479 430.878 210.979 430.509 211.349C430.139 211.718 429.638 211.925 429.116 211.926V211.926Z" fill="#CCCCCC"/>
<path d="M492.374 263.165H476.375C475.852 263.164 475.351 262.956 474.982 262.587C474.613 262.218 474.405 261.718 474.404 261.196V250.312C474.405 249.79 474.613 249.29 474.982 248.921C475.351 248.551 475.852 248.344 476.375 248.343H492.374C492.896 248.344 493.397 248.552 493.766 248.921C494.136 249.29 494.344 249.79 494.344 250.312V261.196C494.344 261.718 494.136 262.218 493.767 262.587C493.397 262.956 492.896 263.164 492.374 263.165V263.165Z" fill="#3F3D56"/>
<path d="M492.721 225.509H412.712C412.251 225.519 411.804 225.353 411.461 225.045C411.118 224.738 410.905 224.312 410.864 223.853C410.851 223.616 410.887 223.378 410.969 223.155C411.051 222.932 411.178 222.728 411.342 222.555C411.505 222.382 411.702 222.245 411.921 222.151C412.14 222.057 412.375 222.009 412.613 222.009H493.563C495.321 223.552 494.249 225.509 492.721 225.509V225.509Z" fill="#CCCCCC"/>
<path d="M492.721 234.702H412.712C412.251 234.711 411.804 234.545 411.461 234.238C411.118 233.93 410.905 233.504 410.864 233.045C410.851 232.808 410.887 232.57 410.969 232.347C411.051 232.124 411.178 231.92 411.342 231.747C411.505 231.575 411.702 231.437 411.921 231.343C412.14 231.249 412.375 231.201 412.613 231.201H493.563C495.321 232.745 494.249 234.702 492.721 234.702V234.702Z" fill="#CCCCCC"/>
<path d="M492.721 243.888H412.712C412.251 243.897 411.804 243.732 411.461 243.424C411.118 243.117 410.905 242.691 410.864 242.232C410.851 241.994 410.887 241.757 410.969 241.534C411.051 241.31 411.178 241.106 411.342 240.934C411.505 240.761 411.702 240.624 411.921 240.53C412.14 240.436 412.375 240.387 412.613 240.387H493.563C495.321 241.931 494.249 243.888 492.721 243.888V243.888Z" fill="#CCCCCC"/>
<path d="M450.771 253.08H412.712C412.251 253.089 411.804 252.923 411.461 252.616C411.118 252.309 410.905 251.882 410.864 251.424C410.851 251.186 410.887 250.949 410.969 250.725C411.051 250.502 411.178 250.298 411.342 250.126C411.505 249.953 411.702 249.815 411.921 249.722C412.14 249.628 412.375 249.579 412.613 249.579H451.613C453.371 251.123 452.3 253.08 450.771 253.08V253.08Z" fill="#CCCCCC"/>
<path d="M450.771 262.267H412.712C412.251 262.276 411.804 262.111 411.461 261.803C411.118 261.496 410.905 261.069 410.864 260.611C410.851 260.373 410.887 260.136 410.969 259.912C411.051 259.689 411.178 259.485 411.342 259.313C411.505 259.14 411.702 259.002 411.921 258.909C412.14 258.815 412.375 258.766 412.613 258.766H451.613C453.371 260.31 452.3 262.267 450.771 262.267V262.267Z" fill="#CCCCCC"/>
<path d="M482.041 180.776H423.446C422.563 180.775 421.717 180.424 421.092 179.8C420.468 179.176 420.117 178.331 420.116 177.449V166.802C420.117 165.919 420.468 165.074 421.092 164.45C421.717 163.826 422.563 163.475 423.446 163.474H482.041C482.924 163.475 483.77 163.826 484.394 164.45C485.019 165.074 485.37 165.919 485.371 166.802V177.449C485.37 178.331 485.019 179.176 484.394 179.8C483.77 180.424 482.924 180.775 482.041 180.776Z" fill="#76549A"/>
<path d="M279.359 421H25.6659C25.4893 421 25.3199 420.93 25.195 420.805C25.0702 420.68 25 420.511 25 420.335C25 420.158 25.0702 419.989 25.195 419.864C25.3199 419.739 25.4893 419.669 25.6659 419.669H279.359C279.536 419.669 279.705 419.739 279.83 419.864C279.955 419.989 280.025 420.158 280.025 420.335C280.025 420.511 279.955 420.68 279.83 420.805C279.705 420.93 279.536 421 279.359 421Z" fill="#3F3D56"/>
<path d="M89.4311 78.8242C91.8092 78.8242 93.7371 76.8975 93.7371 74.5209C93.7371 72.1442 91.8092 70.2175 89.4311 70.2175C87.0529 70.2175 85.125 72.1442 85.125 74.5209C85.125 76.8975 87.0529 78.8242 89.4311 78.8242Z" fill="#F2F2F2"/>
<path d="M89.4311 95.9748C91.8092 95.9748 93.7371 94.0482 93.7371 91.6715C93.7371 89.2948 91.8092 87.3682 89.4311 87.3682C87.0529 87.3682 85.125 89.2948 85.125 91.6715C85.125 94.0482 87.0529 95.9748 89.4311 95.9748Z" fill="#F2F2F2"/>
<path d="M89.4311 113.125C91.8092 113.125 93.7371 111.199 93.7371 108.822C93.7371 106.445 91.8092 104.519 89.4311 104.519C87.0529 104.519 85.125 106.445 85.125 108.822C85.125 111.199 87.0529 113.125 89.4311 113.125Z" fill="#F2F2F2"/>
<path d="M89.4311 130.276C91.8092 130.276 93.7371 128.349 93.7371 125.973C93.7371 123.596 91.8092 121.669 89.4311 121.669C87.0529 121.669 85.125 123.596 85.125 125.973C85.125 128.349 87.0529 130.276 89.4311 130.276Z" fill="#F2F2F2"/>
<path d="M107.41 78.8242C109.788 78.8242 111.716 76.8975 111.716 74.5209C111.716 72.1442 109.788 70.2175 107.41 70.2175C105.031 70.2175 103.104 72.1442 103.104 74.5209C103.104 76.8975 105.031 78.8242 107.41 78.8242Z" fill="#F2F2F2"/>
<path d="M107.41 95.9748C109.788 95.9748 111.716 94.0482 111.716 91.6715C111.716 89.2948 109.788 87.3682 107.41 87.3682C105.031 87.3682 103.104 89.2948 103.104 91.6715C103.104 94.0482 105.031 95.9748 107.41 95.9748Z" fill="#F2F2F2"/>
<path d="M107.41 113.125C109.788 113.125 111.716 111.199 111.716 108.822C111.716 106.445 109.788 104.519 107.41 104.519C105.031 104.519 103.104 106.445 103.104 108.822C103.104 111.199 105.031 113.125 107.41 113.125Z" fill="#F2F2F2"/>
<path d="M107.41 130.276C109.788 130.276 111.716 128.349 111.716 125.973C111.716 123.596 109.788 121.669 107.41 121.669C105.031 121.669 103.104 123.596 103.104 125.973C103.104 128.349 105.031 130.276 107.41 130.276Z" fill="#F2F2F2"/>
<path d="M125.388 78.8242C127.766 78.8242 129.694 76.8975 129.694 74.5209C129.694 72.1442 127.766 70.2175 125.388 70.2175C123.01 70.2175 121.082 72.1442 121.082 74.5209C121.082 76.8975 123.01 78.8242 125.388 78.8242Z" fill="#F2F2F2"/>
<path d="M125.388 95.9748C127.766 95.9748 129.694 94.0482 129.694 91.6715C129.694 89.2948 127.766 87.3682 125.388 87.3682C123.01 87.3682 121.082 89.2948 121.082 91.6715C121.082 94.0482 123.01 95.9748 125.388 95.9748Z" fill="#F2F2F2"/>
<path d="M125.388 113.125C127.766 113.125 129.694 111.199 129.694 108.822C129.694 106.445 127.766 104.519 125.388 104.519C123.01 104.519 121.082 106.445 121.082 108.822C121.082 111.199 123.01 113.125 125.388 113.125Z" fill="#F2F2F2"/>
<path d="M125.388 130.276C127.766 130.276 129.694 128.349 129.694 125.973C129.694 123.596 127.766 121.669 125.388 121.669C123.01 121.669 121.082 123.596 121.082 125.973C121.082 128.349 123.01 130.276 125.388 130.276Z" fill="#F2F2F2"/>
<path d="M143.367 78.8242C145.745 78.8242 147.673 76.8975 147.673 74.5209C147.673 72.1442 145.745 70.2175 143.367 70.2175C140.988 70.2175 139.061 72.1442 139.061 74.5209C139.061 76.8975 140.988 78.8242 143.367 78.8242Z" fill="#F2F2F2"/>
<path d="M143.367 95.9748C145.745 95.9748 147.673 94.0482 147.673 91.6715C147.673 89.2948 145.745 87.3682 143.367 87.3682C140.988 87.3682 139.061 89.2948 139.061 91.6715C139.061 94.0482 140.988 95.9748 143.367 95.9748Z" fill="#F2F2F2"/>
<path d="M143.367 113.125C145.745 113.125 147.673 111.199 147.673 108.822C147.673 106.445 145.745 104.519 143.367 104.519C140.988 104.519 139.061 106.445 139.061 108.822C139.061 111.199 140.988 113.125 143.367 113.125Z" fill="#F2F2F2"/>
<path d="M143.367 130.276C145.745 130.276 147.673 128.349 147.673 125.973C147.673 123.596 145.745 121.669 143.367 121.669C140.988 121.669 139.061 123.596 139.061 125.973C139.061 128.349 140.988 130.276 143.367 130.276Z" fill="#F2F2F2"/>
<path d="M161.344 78.8242C163.722 78.8242 165.65 76.8975 165.65 74.5209C165.65 72.1442 163.722 70.2175 161.344 70.2175C158.966 70.2175 157.038 72.1442 157.038 74.5209C157.038 76.8975 158.966 78.8242 161.344 78.8242Z" fill="#F2F2F2"/>
<path d="M161.344 95.9748C163.722 95.9748 165.65 94.0482 165.65 91.6715C165.65 89.2948 163.722 87.3682 161.344 87.3682C158.966 87.3682 157.038 89.2948 157.038 91.6715C157.038 94.0482 158.966 95.9748 161.344 95.9748Z" fill="#F2F2F2"/>
<path d="M161.344 113.125C163.722 113.125 165.65 111.199 165.65 108.822C165.65 106.445 163.722 104.519 161.344 104.519C158.966 104.519 157.038 106.445 157.038 108.822C157.038 111.199 158.966 113.125 161.344 113.125Z" fill="#F2F2F2"/>
<path d="M161.344 130.276C163.722 130.276 165.65 128.349 165.65 125.973C165.65 123.596 163.722 121.669 161.344 121.669C158.966 121.669 157.038 123.596 157.038 125.973C157.038 128.349 158.966 130.276 161.344 130.276Z" fill="#F2F2F2"/>
<path d="M179.323 78.8242C181.701 78.8242 183.629 76.8975 183.629 74.5209C183.629 72.1442 181.701 70.2175 179.323 70.2175C176.944 70.2175 175.017 72.1442 175.017 74.5209C175.017 76.8975 176.944 78.8242 179.323 78.8242Z" fill="#F2F2F2"/>
<path d="M179.323 95.9748C181.701 95.9748 183.629 94.0482 183.629 91.6715C183.629 89.2948 181.701 87.3682 179.323 87.3682C176.944 87.3682 175.017 89.2948 175.017 91.6715C175.017 94.0482 176.944 95.9748 179.323 95.9748Z" fill="#F2F2F2"/>
<path d="M179.323 113.125C181.701 113.125 183.629 111.199 183.629 108.822C183.629 106.445 181.701 104.519 179.323 104.519C176.944 104.519 175.017 106.445 175.017 108.822C175.017 111.199 176.944 113.125 179.323 113.125Z" fill="#F2F2F2"/>
<path d="M179.323 130.276C181.701 130.276 183.629 128.349 183.629 125.973C183.629 123.596 181.701 121.669 179.323 121.669C176.944 121.669 175.017 123.596 175.017 125.973C175.017 128.349 176.944 130.276 179.323 130.276Z" fill="#F2F2F2"/>
<path d="M425.692 317.052C428.07 317.052 429.998 315.126 429.998 312.749C429.998 310.372 428.07 308.446 425.692 308.446C423.314 308.446 421.386 310.372 421.386 312.749C421.386 315.126 423.314 317.052 425.692 317.052Z" fill="#F2F2F2"/>
<path d="M425.692 334.203C428.07 334.203 429.998 332.276 429.998 329.9C429.998 327.523 428.07 325.596 425.692 325.596C423.314 325.596 421.386 327.523 421.386 329.9C421.386 332.276 423.314 334.203 425.692 334.203Z" fill="#F2F2F2"/>
<path d="M425.692 351.353C428.07 351.353 429.998 349.427 429.998 347.05C429.998 344.673 428.07 342.747 425.692 342.747C423.314 342.747 421.386 344.673 421.386 347.05C421.386 349.427 423.314 351.353 425.692 351.353Z" fill="#F2F2F2"/>
<path d="M443.67 317.052C446.049 317.052 447.976 315.126 447.976 312.749C447.976 310.372 446.049 308.446 443.67 308.446C441.292 308.446 439.364 310.372 439.364 312.749C439.364 315.126 441.292 317.052 443.67 317.052Z" fill="#F2F2F2"/>
<path d="M443.67 334.203C446.049 334.203 447.976 332.276 447.976 329.9C447.976 327.523 446.049 325.596 443.67 325.596C441.292 325.596 439.364 327.523 439.364 329.9C439.364 332.276 441.292 334.203 443.67 334.203Z" fill="#F2F2F2"/>
<path d="M443.67 351.353C446.049 351.353 447.976 349.427 447.976 347.05C447.976 344.673 446.049 342.747 443.67 342.747C441.292 342.747 439.364 344.673 439.364 347.05C439.364 349.427 441.292 351.353 443.67 351.353Z" fill="#F2F2F2"/>
<path d="M461.648 317.052C464.026 317.052 465.954 315.126 465.954 312.749C465.954 310.372 464.026 308.446 461.648 308.446C459.27 308.446 457.342 310.372 457.342 312.749C457.342 315.126 459.27 317.052 461.648 317.052Z" fill="#F2F2F2"/>
<path d="M461.648 334.203C464.026 334.203 465.954 332.276 465.954 329.9C465.954 327.523 464.026 325.596 461.648 325.596C459.27 325.596 457.342 327.523 457.342 329.9C457.342 332.276 459.27 334.203 461.648 334.203Z" fill="#F2F2F2"/>
<path d="M461.648 351.353C464.026 351.353 465.954 349.427 465.954 347.05C465.954 344.673 464.026 342.747 461.648 342.747C459.27 342.747 457.342 344.673 457.342 347.05C457.342 349.427 459.27 351.353 461.648 351.353Z" fill="#F2F2F2"/>
<path d="M479.626 317.052C482.005 317.052 483.932 315.126 483.932 312.749C483.932 310.372 482.005 308.446 479.626 308.446C477.248 308.446 475.32 310.372 475.32 312.749C475.32 315.126 477.248 317.052 479.626 317.052Z" fill="#F2F2F2"/>
<path d="M479.626 334.203C482.005 334.203 483.932 332.276 483.932 329.9C483.932 327.523 482.005 325.596 479.626 325.596C477.248 325.596 475.32 327.523 475.32 329.9C475.32 332.276 477.248 334.203 479.626 334.203Z" fill="#F2F2F2"/>
<path d="M479.626 351.353C482.005 351.353 483.932 349.427 483.932 347.05C483.932 344.673 482.005 342.747 479.626 342.747C477.248 342.747 475.32 344.673 475.32 347.05C475.32 349.427 477.248 351.353 479.626 351.353Z" fill="#F2F2F2"/>
</g>
<defs>
<clipPath id="clip0_202_363">
<rect width="491" height="362" fill="white" transform="translate(25 59)"/>
</clipPath>
</defs>
</svg>
