<svg width="464" height="399" viewBox="0 0 464 399" fill="none" xmlns="http://www.w3.org/2000/svg">
<g clip-path="url(#clip0_57_1345)">
<path d="M148.2 55.0945C144.47 35.1491 150.342 12.4579 166.664 0.385017C165.739 22.4309 172.648 44.0932 186.169 61.5392C191.408 68.2484 197.935 75.1657 197.732 83.6731C197.606 88.9666 194.741 93.8979 190.965 97.6131C187.189 101.328 182.537 104.007 177.942 106.644L177.226 107.756C163.754 92.5727 151.929 75.0398 148.2 55.0945Z" fill="#F0F0F0"/>
<path d="M166.961 0.689931C160.104 16.0236 158.257 33.1263 161.682 49.5687C162.356 53.1215 163.587 56.5458 165.329 59.7157C167.125 62.7487 169.702 65.2458 172.791 66.9474C175.639 68.5918 178.743 69.9443 181.142 72.2519C182.352 73.4513 183.295 74.8927 183.908 76.4818C184.522 78.0708 184.792 79.7714 184.702 81.4722C184.587 85.7159 182.953 89.6652 181.221 93.4719C179.297 97.6984 177.232 102.058 177.357 106.81C177.372 107.386 176.477 107.375 176.462 106.8C176.245 98.5331 182.227 91.8935 183.56 83.9607C184.182 80.259 183.691 76.3477 181.087 73.4785C178.809 70.9694 175.609 69.572 172.711 67.9319C169.673 66.316 167.078 63.9816 165.151 61.1324C163.253 58.0614 161.893 54.6901 161.127 51.163C159.277 43.2497 158.683 35.095 159.369 26.9975C160.099 17.7516 162.407 8.69872 166.193 0.230499C166.428 -0.293533 167.194 0.169314 166.961 0.68992L166.961 0.689931Z" fill="white"/>
<path d="M160.267 44.3392C157.428 44.5389 154.61 43.7237 152.317 42.0393C150.024 40.3549 148.405 37.9109 147.749 35.1439C147.618 34.5835 148.484 34.3541 148.615 34.9152C149.221 37.493 150.729 39.7694 152.868 41.3335C155.006 42.8977 157.634 43.6466 160.277 43.445C160.851 43.4019 160.838 44.2963 160.267 44.3392Z" fill="white"/>
<path d="M171.237 66.3037C175.091 61.9491 177.16 56.3032 177.033 50.4916C177.02 49.9158 177.915 49.9259 177.928 50.5009C178.049 56.5488 175.883 62.42 171.863 66.9426C171.479 67.3734 170.855 66.7322 171.237 66.3037V66.3037Z" fill="white"/>
<path d="M161.147 18.307C162.262 18.4584 163.397 18.3309 164.45 17.9359C165.503 17.5408 166.441 16.8906 167.181 16.0437C167.559 15.6082 168.183 16.25 167.807 16.6826C166.986 17.6146 165.949 18.3314 164.786 18.7704C163.624 19.2094 162.371 19.3573 161.138 19.2012C161.021 19.1962 160.91 19.1467 160.827 19.0628C160.745 18.9789 160.698 18.8668 160.695 18.7494C160.697 18.631 160.746 18.5181 160.83 18.4353C160.915 18.3524 161.029 18.3063 161.147 18.307V18.307Z" fill="white"/>
<path d="M233.41 16.8828C233.181 17.1614 232.953 17.44 232.727 17.726C229.678 21.4875 226.941 25.4903 224.541 29.6949C224.35 30.017 224.162 30.3464 223.981 30.6733C218.307 40.8646 214.576 52.0199 212.978 63.5719C212.347 68.1693 212.066 72.8081 212.139 77.448C212.24 83.856 212.859 90.7958 210.893 96.6894C210.695 97.3065 210.459 97.9109 210.186 98.4988L178.639 108.541C178.556 108.528 178.475 108.522 178.391 108.509L177.15 108.968C177.13 108.729 177.114 108.48 177.093 108.241C177.081 108.103 177.075 107.962 177.063 107.823C177.057 107.73 177.051 107.637 177.04 107.553C177.038 107.522 177.036 107.491 177.036 107.467C177.026 107.384 177.024 107.305 177.016 107.228C176.922 105.84 176.835 104.45 176.763 103.055C176.761 103.048 176.761 103.048 176.766 103.038C176.224 92.4139 176.566 81.651 178.531 71.282C178.591 70.97 178.647 70.651 178.721 70.3345C179.633 65.6655 180.925 61.0789 182.585 56.6203C183.502 54.1818 184.542 51.7913 185.7 49.4579C188.706 43.4345 192.641 37.9209 197.361 33.1192C206.772 23.5486 219.142 17.0918 232.397 16.8884C232.736 16.8835 233.068 16.8806 233.41 16.8828Z" fill="#F0F0F0"/>
<path d="M233.466 17.3054C218.751 25.4235 206.971 37.9678 199.797 53.1565C198.195 56.3989 197.114 59.8734 196.595 63.452C196.202 66.9544 196.754 70.4981 198.195 73.715C199.479 76.7414 201.142 79.6886 201.667 82.9739C201.91 84.6596 201.794 86.3777 201.327 88.0156C200.859 89.6534 200.05 91.174 198.953 92.4776C196.305 95.7968 192.62 97.9671 188.943 99.9644C184.86 102.182 180.585 104.421 177.821 108.29C177.486 108.759 176.778 108.212 177.112 107.744C181.92 101.012 190.698 99.3097 196.542 93.7776C199.269 91.1962 201.234 87.7781 200.884 83.9202C200.577 80.5468 198.864 77.5062 197.538 74.4531C196.087 71.3355 195.421 67.9102 195.599 64.4764C195.935 60.8828 196.88 57.3725 198.394 54.0958C201.685 46.6645 206.125 39.7964 211.552 33.7431C217.706 26.8003 225.004 20.9606 233.13 16.4766C233.633 16.1993 233.966 17.0299 233.466 17.3054V17.3054Z" fill="white"/>
<path d="M201.819 48.13C199.432 46.5815 197.673 44.2357 196.858 41.5114C196.042 38.7871 196.222 35.8618 197.365 33.2578C197.598 32.7317 198.428 33.0691 198.194 33.5958C197.125 36.0187 196.957 38.7437 197.722 41.279C198.487 43.8143 200.134 45.9929 202.365 47.4216C202.85 47.7327 202.301 48.4392 201.819 48.13V48.13Z" fill="white"/>
<path d="M197.342 72.2661C203.043 71.1077 208.098 67.8448 211.499 63.1281C211.835 62.6605 212.544 63.2069 212.207 63.6739C208.66 68.5757 203.393 71.9606 197.457 73.153C196.891 73.2663 196.779 72.3788 197.342 72.2662V72.2661Z" fill="white"/>
<path d="M218.209 27.8744C219.008 28.6659 219.991 29.2467 221.07 29.5648C222.148 29.8829 223.289 29.9282 224.39 29.6968C224.954 29.5764 225.066 30.464 224.505 30.5836C223.288 30.8337 222.028 30.782 220.835 30.4332C219.642 30.0844 218.553 29.4491 217.663 28.5828C217.572 28.5081 217.513 28.4018 217.498 28.2853C217.483 28.1688 217.513 28.0509 217.581 27.9557C217.654 27.8622 217.761 27.8013 217.879 27.7861C217.996 27.7709 218.115 27.8026 218.209 27.8744V27.8744Z" fill="white"/>
<path d="M328.276 151.198C328.359 151.564 328.413 151.935 328.438 152.309L357.574 169.104L364.656 165.03L372.206 174.906L360.37 183.334C359.414 184.015 358.263 184.368 357.089 184.339C355.915 184.311 354.782 183.903 353.86 183.176L323.816 159.494C322.46 159.995 320.983 160.072 319.582 159.715C318.181 159.357 316.923 158.582 315.973 157.493C315.024 156.403 314.429 155.05 314.268 153.615C314.107 152.179 314.388 150.729 315.072 149.456C315.756 148.183 316.812 147.149 318.099 146.491C319.386 145.832 320.843 145.581 322.276 145.77C323.709 145.959 325.051 146.58 326.123 147.549C327.195 148.519 327.945 149.791 328.276 151.198V151.198Z" fill="#FFB6B6"/>
<path d="M357.979 167.25C358.071 166.821 358.255 166.418 358.518 166.067C358.78 165.716 359.116 165.426 359.501 165.216L372.953 157.893C374.744 156.542 376.999 155.956 379.222 156.264C381.445 156.571 383.455 157.747 384.812 159.533C386.169 161.32 386.761 163.571 386.459 165.793C386.157 168.015 384.985 170.026 383.201 171.386L372.419 182.33C372.112 182.642 371.74 182.884 371.33 183.04C370.921 183.196 370.482 183.262 370.044 183.233C369.606 183.204 369.18 183.082 368.794 182.873C368.408 182.665 368.072 182.376 367.808 182.026L358.525 169.73C358.261 169.38 358.075 168.977 357.981 168.549C357.887 168.121 357.886 167.678 357.979 167.25V167.25Z" fill="#3F3D56"/>
<path d="M381.403 125.271C383.338 119.108 387.739 113.455 393.826 111.372C399.913 109.289 408.826 112.462 413.403 117.019C421.773 125.355 422.031 135.558 416.28 144.607C415.136 144.547 411.189 144.502 410.031 144.459L408.393 139.005V144.405C399.357 144.126 389.949 144.301 380.535 144.481C379.692 138.075 379.467 131.434 381.403 125.271Z" fill="#2F2E41"/>
<path d="M379.421 383.363H371.179L367.258 351.598L379.423 351.599L379.421 383.363Z" fill="#FFB6B6"/>
<path d="M430.22 383.363H421.977L418.056 351.598L430.221 351.599L430.22 383.363Z" fill="#FFB6B6"/>
<path d="M406.152 188.267L408.02 193.119L407.647 197.971L371.095 210.62L372.909 189.387L377.018 184.536L406.152 188.267Z" fill="#FFB6B6"/>
<path d="M394.596 144.608C401.805 144.608 407.65 138.768 407.65 131.564C407.65 124.361 401.805 118.521 394.596 118.521C387.386 118.521 381.541 124.361 381.541 131.564C381.541 138.768 387.386 144.608 394.596 144.608Z" fill="#FFB7B7"/>
<path d="M414.336 210.529V218.819C414.336 218.819 424.047 231.428 418.818 241.132L433.802 370.264H418.114L391.925 261.284L380.762 368.024H367.315L365.712 283.132C365.291 260.803 369.022 238.589 376.716 217.62V217.62L414.336 210.529Z" fill="#2F2E41"/>
<path d="M385.626 114.58C388.134 113.052 391.007 112.225 393.945 112.187C396.882 112.148 399.776 112.898 402.324 114.36C404.872 115.821 406.98 117.939 408.428 120.493C409.876 123.047 410.61 125.943 410.555 128.878C403.258 129.213 395.592 129.3 387.819 129.315L385.982 124.823L384.899 129.319C382.531 129.318 380.158 129.315 377.781 129.309C377.684 126.383 378.357 123.482 379.734 120.897C381.111 118.312 383.142 116.134 385.626 114.58V114.58Z" fill="#2F2E41"/>
<path d="M383.108 399H377.26L376.216 393.483L373.542 399H358.03C357.287 399 356.562 398.763 355.964 398.322C355.365 397.882 354.922 397.262 354.701 396.553C354.48 395.844 354.491 395.082 354.734 394.38C354.976 393.678 355.437 393.071 356.049 392.649L368.436 384.101V378.524L381.466 379.301L383.108 399Z" fill="#2F2E41"/>
<path d="M434.654 399H428.805L427.761 393.483L425.087 399H409.576C408.832 399 408.108 398.763 407.509 398.322C406.91 397.882 406.468 397.262 406.246 396.553C406.025 395.844 406.037 395.082 406.279 394.38C406.521 393.678 406.982 393.071 407.594 392.649L419.982 384.101V378.524L433.011 379.301L434.654 399Z" fill="#2F2E41"/>
<path d="M420.276 237.116C421.001 227.153 420.254 217.138 418.057 207.393C415.284 195.095 411.761 179.446 411.692 179.042C411.691 179.034 411.69 179.026 411.69 179.018L410.616 156.095C410.613 156.029 410.585 155.966 410.538 155.919C410.49 155.872 410.427 155.845 410.36 155.843L402.932 155.593C402.864 155.591 402.799 155.562 402.751 155.513C402.703 155.463 402.676 155.397 402.676 155.328V155.328C402.676 154.776 402.567 154.228 402.355 153.717C402.144 153.206 401.833 152.742 401.442 152.351C401.051 151.96 400.586 151.65 400.075 151.439C399.564 151.227 399.016 151.118 398.462 151.118H383.627C382.666 151.119 381.738 151.469 381.018 152.105C380.297 152.74 379.834 153.616 379.714 154.569C379.707 154.635 379.676 154.695 379.627 154.739C379.578 154.782 379.513 154.806 379.448 154.804L373.675 154.611C373.617 154.609 373.56 154.626 373.512 154.659C373.465 154.693 373.43 154.741 373.413 154.796L373.011 156.07C367.183 174.821 365.565 194.626 368.272 214.073C368.971 219.248 368.654 227.029 368.39 231.364C368.364 231.788 368.422 232.213 368.56 232.614C368.699 233.016 368.915 233.386 369.198 233.703C369.48 234.021 369.822 234.28 370.204 234.465C370.587 234.65 371.002 234.757 371.427 234.781C382.159 235.398 412.545 250.089 419.82 243.075C419.838 243.058 420.031 240.471 420.276 237.116Z" fill="#3F3D56"/>
<path d="M360.758 151.198C360.842 151.564 360.896 151.935 360.921 152.309L390.057 169.104L397.139 165.03L404.689 174.906L392.853 183.334C391.897 184.015 390.746 184.368 389.572 184.339C388.398 184.311 387.265 183.903 386.343 183.176L356.298 159.494C354.943 159.995 353.466 160.072 352.065 159.715C350.664 159.357 349.405 158.582 348.456 157.493C347.507 156.403 346.912 155.05 346.751 153.615C346.59 152.179 346.871 150.729 347.555 149.456C348.239 148.183 349.295 147.149 350.581 146.491C351.868 145.832 353.325 145.581 354.759 145.77C356.192 145.959 357.534 146.58 358.606 147.549C359.677 148.519 360.428 149.791 360.758 151.198V151.198Z" fill="#FFB6B6"/>
<path d="M390.462 167.25C390.554 166.821 390.738 166.418 391.001 166.067C391.263 165.716 391.599 165.426 391.984 165.216L405.436 157.893C407.227 156.543 409.481 155.957 411.704 156.265C413.927 156.573 415.937 157.748 417.293 159.534C418.65 161.321 419.242 163.571 418.94 165.793C418.639 168.015 417.467 170.026 415.684 171.386L404.902 182.33C404.595 182.642 404.223 182.884 403.813 183.04C403.403 183.196 402.965 183.262 402.527 183.233C402.089 183.204 401.663 183.082 401.277 182.873C400.891 182.665 400.555 182.376 400.291 182.026L391.008 169.73C390.744 169.38 390.558 168.977 390.464 168.549C390.37 168.121 390.369 167.678 390.462 167.25Z" fill="#3F3D56"/>
<path d="M33.9928 353.749C52.7666 353.749 67.9857 338.543 67.9857 319.785C67.9857 301.028 52.7666 285.821 33.9928 285.821C15.2191 285.821 0 301.028 0 319.785C0 338.543 15.2191 353.749 33.9928 353.749Z" fill="#F0F0F0"/>
<path d="M334.378 201.927L88.0371 314.93C84.5307 316.534 80.5307 316.682 76.9148 315.343C73.2989 314.004 70.3623 311.286 68.7493 307.786L7.95843 175.492C6.35339 171.988 6.20476 167.992 7.54514 164.379C8.88553 160.766 11.6055 157.832 15.1083 156.22L261.449 43.2168C264.956 41.6131 268.955 41.4646 272.571 42.8038C276.187 44.1431 279.124 46.8607 280.737 50.3605L341.528 182.655C343.133 186.159 343.282 190.155 341.941 193.768C340.601 197.381 337.881 200.315 334.378 201.927V201.927Z" fill="white"/>
<path d="M19.2056 165.137C18.0676 165.661 17.184 166.614 16.7486 167.788C16.3131 168.961 16.3614 170.26 16.8828 171.398L77.6738 303.693C78.1978 304.83 79.1518 305.712 80.3264 306.147C81.5011 306.583 82.8006 306.534 83.9397 306.013L330.281 193.01C331.419 192.486 332.302 191.533 332.738 190.359C333.173 189.186 333.125 187.887 332.603 186.749L271.812 54.4544C271.288 53.3174 270.334 52.4346 269.16 51.9995C267.985 51.5644 266.686 51.6127 265.546 52.1337L19.2056 165.137Z" fill="#E4E4E4"/>
<path d="M334.378 201.927L88.0371 314.93C84.5307 316.534 80.5307 316.682 76.9148 315.343C73.2989 314.004 70.3623 311.286 68.7493 307.786L7.95843 175.492C6.35339 171.988 6.20476 167.992 7.54514 164.379C8.88553 160.766 11.6055 157.832 15.1083 156.22L261.449 43.2168C264.956 41.6131 268.955 41.4646 272.571 42.8038C276.187 44.1431 279.124 46.8607 280.737 50.3605L341.528 182.655C343.133 186.159 343.282 190.155 341.941 193.768C340.601 197.381 337.881 200.315 334.378 201.927V201.927ZM15.7386 157.592C12.5996 159.036 10.1621 161.666 8.96098 164.903C7.75982 168.141 7.89305 171.722 9.33142 174.862L70.1223 307.157C71.5678 310.293 74.1994 312.728 77.4397 313.928C80.68 315.129 84.2645 314.996 87.4068 313.558L333.748 200.555C336.887 199.111 339.324 196.481 340.525 193.244C341.726 190.006 341.593 186.425 340.155 183.285L279.364 50.9903C277.918 47.854 275.287 45.4187 272.047 44.2185C268.806 43.0184 265.222 43.1515 262.079 44.5886L15.7386 157.592Z" fill="#CACACA"/>
<path d="M272.823 141.893L77.1202 231.668C75.544 232.388 73.7837 232.605 72.0795 232.289C70.3754 231.972 68.8106 231.138 67.5986 229.9L10.3399 171.231C9.40079 170.269 8.70664 169.095 8.31575 167.809C7.92487 166.523 7.84867 165.162 8.09357 163.841C8.33847 162.519 8.89731 161.276 9.72311 160.215C10.5489 159.154 11.6175 158.307 12.8391 157.745L263.644 42.2263C264.85 41.6713 266.17 41.4096 267.497 41.4627C268.823 41.5157 270.118 41.882 271.275 42.5314C272.433 43.1809 273.42 44.0951 274.156 45.1991C274.891 46.3032 275.355 47.5656 275.508 48.8831L275.542 48.8823L277.717 134.05C277.761 135.692 277.32 137.312 276.45 138.706C275.579 140.101 274.319 141.209 272.823 141.893V141.893ZM264.285 43.5932L13.4714 159.115C12.4694 159.577 11.5929 160.272 10.9156 161.142C10.2383 162.012 9.77994 163.032 9.57907 164.116C9.3782 165.199 9.44069 166.316 9.76128 167.37C10.0819 168.425 10.6512 169.388 11.4214 170.177L68.6801 228.846C69.6741 229.861 70.9576 230.546 72.3554 230.805C73.7532 231.065 75.197 230.887 76.4899 230.296L272.193 140.522C273.419 139.96 274.454 139.051 275.167 137.907C275.881 136.764 276.242 135.435 276.207 134.088L274.051 49.6754L274.352 49.6679L274.051 49.6754C274.021 48.5363 273.71 47.4222 273.144 46.4331C272.577 45.4439 271.774 44.6106 270.807 44.0078C269.839 43.405 268.736 43.0516 267.598 42.9793C266.46 42.9069 265.322 43.1179 264.285 43.5932V43.5932Z" fill="#CACACA"/>
<path d="M150.1 263.343L89.1271 291.313C88.6846 291.516 88.2064 291.631 87.7197 291.649C87.233 291.668 86.7474 291.591 86.2906 291.422C85.8338 291.253 85.4148 290.996 85.0576 290.665C84.7004 290.334 84.4119 289.936 84.2087 289.494C84.0054 289.052 83.8915 288.574 83.8732 288.087C83.855 287.601 83.9328 287.116 84.1023 286.66C84.2718 286.203 84.5297 285.785 84.8611 285.428C85.1926 285.072 85.5911 284.784 86.0339 284.581L147.007 256.611C147.9 256.203 148.919 256.165 149.84 256.507C150.761 256.848 151.509 257.541 151.919 258.433C152.329 259.325 152.367 260.344 152.026 261.264C151.685 262.185 150.992 262.932 150.1 263.343V263.343Z" fill="white"/>
<path d="M194.706 176.898C195.753 179.17 196.341 181.626 196.438 184.125C196.534 186.624 196.136 189.118 195.267 191.464C194.398 193.81 193.075 195.961 191.373 197.796C189.671 199.63 187.624 201.112 185.349 202.155C183.074 203.199 180.616 203.784 178.114 203.878C175.613 203.972 173.117 203.572 170.77 202.701C168.423 201.831 166.271 200.507 164.437 198.805C162.602 197.103 161.121 195.056 160.079 192.782" fill="#CACACA"/>
<path d="M332.181 381.87H61.1177C57.2613 381.865 53.5642 380.333 50.8373 377.608C48.1104 374.884 46.5766 371.19 46.5723 367.337V221.765C46.5767 217.912 48.1105 214.218 50.8374 211.493C53.5642 208.769 57.2614 207.236 61.1177 207.232H332.181C336.038 207.236 339.735 208.769 342.462 211.493C345.188 214.218 346.722 217.912 346.727 221.765V367.337C346.722 371.19 345.188 374.884 342.462 377.608C339.735 380.333 336.038 381.865 332.181 381.87Z" fill="white"/>
<path d="M61.1179 217.043C59.8651 217.045 58.664 217.543 57.7781 218.428C56.8923 219.313 56.394 220.513 56.3926 221.765V367.337C56.394 368.588 56.8923 369.788 57.7781 370.673C58.664 371.559 59.8651 372.056 61.1179 372.058H332.181C333.434 372.056 334.635 371.559 335.521 370.673C336.407 369.788 336.905 368.588 336.907 367.337V221.765C336.905 220.513 336.407 219.313 335.521 218.428C334.635 217.543 333.434 217.045 332.181 217.043H61.1179Z" fill="#76549A"/>
<path d="M332.181 381.87H61.1177C57.2613 381.865 53.5642 380.333 50.8373 377.608C48.1104 374.884 46.5766 371.19 46.5723 367.337V221.765C46.5767 217.912 48.1105 214.218 50.8374 211.493C53.5642 208.769 57.2614 207.236 61.1177 207.232H332.181C336.038 207.236 339.735 208.769 342.462 211.493C345.188 214.218 346.722 217.912 346.727 221.765V367.337C346.722 371.19 345.188 374.884 342.462 377.608C339.735 380.333 336.038 381.865 332.181 381.87ZM61.1177 208.741C57.6619 208.745 54.3488 210.118 51.9051 212.56C49.4615 215.002 48.087 218.312 48.0831 221.765V367.337C48.087 370.789 49.4615 374.1 51.9051 376.541C54.3488 378.983 57.6619 380.356 61.1177 380.36H332.181C335.637 380.356 338.95 378.983 341.394 376.541C343.837 374.1 345.212 370.789 345.216 367.337V221.765C345.212 218.312 343.837 215.002 341.394 212.56C338.95 210.118 335.637 208.745 332.181 208.741H61.1177Z" fill="#3F3D56"/>
<path d="M301.311 301.65H85.9671C84.2338 301.648 82.5435 301.111 81.127 300.113C79.7104 299.115 78.6367 297.704 78.0522 296.074L50.516 218.885C50.0645 217.619 49.9236 216.264 50.1054 214.932C50.2872 213.6 50.7862 212.332 51.5607 211.233C52.3351 210.134 53.3622 209.237 54.5557 208.617C55.7492 207.997 57.0742 207.673 58.4193 207.671L334.59 207.247C335.918 207.245 337.227 207.558 338.41 208.159C339.593 208.76 340.617 209.633 341.398 210.705C342.178 211.778 342.694 213.02 342.901 214.331C343.109 215.641 343.003 216.981 342.592 218.242L342.623 218.256L309.034 296.562C308.387 298.073 307.31 299.361 305.937 300.265C304.564 301.17 302.955 301.652 301.311 301.65V301.65ZM334.602 208.756L58.4213 209.18C57.3181 209.182 56.2314 209.448 55.2525 209.957C54.2736 210.465 53.4311 211.201 52.796 212.102C52.1608 213.003 51.7515 214.044 51.6024 215.136C51.4533 216.228 51.5688 217.34 51.9391 218.378L79.4752 295.567C79.9545 296.904 80.8352 298.061 81.9971 298.88C83.159 299.698 84.5454 300.139 85.9671 300.141H301.311C302.66 300.142 303.979 299.747 305.105 299.005C306.232 298.263 307.115 297.207 307.645 295.967L340.936 218.355L341.214 218.474L340.936 218.355C341.386 217.307 341.568 216.165 341.466 215.03C341.365 213.895 340.983 212.803 340.355 211.852C339.727 210.9 338.873 210.12 337.869 209.579C336.865 209.039 335.742 208.756 334.602 208.756V208.756Z" fill="#3F3D56"/>
<path d="M139.063 360.861H71.9713C70.9882 360.861 70.0454 360.47 69.3503 359.776C68.6552 359.081 68.2646 358.139 68.2646 357.157C68.2646 356.175 68.6552 355.233 69.3503 354.538C70.0454 353.844 70.9882 353.454 71.9713 353.454H139.063C140.047 353.454 140.989 353.844 141.684 354.538C142.38 355.233 142.77 356.175 142.77 357.157C142.77 358.139 142.38 359.081 141.684 359.776C140.989 360.47 140.047 360.861 139.063 360.861V360.861Z" fill="white"/>
<path d="M215.701 300.896C215.701 305.944 213.694 310.786 210.121 314.355C206.548 317.925 201.703 319.931 196.65 319.931C191.597 319.931 186.751 317.925 183.179 314.355C179.606 310.786 177.599 305.944 177.599 300.896" fill="#3F3D56"/>
<path d="M95.1799 82.0382C98.9347 82.0382 101.978 78.997 101.978 75.2454C101.978 71.4939 98.9347 68.4526 95.1799 68.4526C91.4252 68.4526 88.3813 71.4939 88.3813 75.2454C88.3813 78.997 91.4252 82.0382 95.1799 82.0382Z" fill="#F0F0F0"/>
<path d="M6.79857 245.065C10.5533 245.065 13.5971 242.024 13.5971 238.272C13.5971 234.52 10.5533 231.479 6.79857 231.479C3.04382 231.479 0 234.52 0 238.272C0 242.024 3.04382 245.065 6.79857 245.065Z" fill="#F0F0F0"/>
<path d="M346.727 117.512C350.482 117.512 353.525 114.47 353.525 110.719C353.525 106.967 350.482 103.926 346.727 103.926C342.972 103.926 339.928 106.967 339.928 110.719C339.928 114.47 342.972 117.512 346.727 117.512Z" fill="#F0F0F0"/>
<path d="M463.1 399H333.706C333.467 399 333.238 398.905 333.07 398.737C332.901 398.568 332.806 398.34 332.806 398.101C332.806 397.863 332.901 397.634 333.07 397.466C333.238 397.297 333.467 397.203 333.706 397.203H463.1C463.339 397.203 463.567 397.298 463.735 397.467C463.903 397.635 463.997 397.863 463.997 398.101C463.997 398.339 463.903 398.567 463.735 398.736C463.567 398.904 463.339 398.999 463.1 399V399Z" fill="#CACACA"/>
</g>
<defs>
<clipPath id="clip0_57_1345">
<rect width="464" height="399" fill="white"/>
</clipPath>
</defs>
</svg>
