<svg width="540" height="480" viewBox="0 0 540 480" fill="none" xmlns="http://www.w3.org/2000/svg">
<rect x="0.5" y="0.5" width="539" height="479" fill="white" stroke="black"/>
<g clip-path="url(#clip0_63_1392)">
<path d="M105.97 308.809C103.609 309.063 101.034 309.444 98.2939 310.001C86.677 312.365 86.4359 320.247 86.5377 322.054L86.4588 322.005C85.2907 323.877 84.5591 325.772 84.1169 327.56L83.5849 303.403C83.9289 302.686 84.2419 301.874 84.5029 301.041C85.3725 303.717 86.7979 306.244 88.0267 306.077C89.6245 305.859 90.3211 301.161 90.023 297.823C92.0548 300.438 95.4743 303.234 96.7643 302.372C97.7951 301.683 97.1839 298.846 96.0585 296.268C98.4034 297.679 101 298.607 101.806 297.711C102.906 296.487 100.271 292.314 97.8407 289.984C101.094 290.287 105.231 289.769 105.502 288.29C105.726 287.071 103.263 285.533 100.628 284.543C103.275 283.846 105.75 282.631 105.668 281.428C105.571 280 101.896 279.043 98.7252 278.898C101.117 277.028 103.314 274.444 102.642 273.275C102.024 272.201 99.1504 272.617 96.4989 273.564C98.068 271.322 99.1711 268.796 98.331 267.932C97.2845 266.855 93.5703 268.714 91.0355 270.768C91.5289 267.567 91.2795 263.528 89.8429 263.162C88.6411 262.857 86.9378 265.206 85.77 267.766C85.2539 265.08 84.209 262.53 83.0031 262.53C81.2853 262.53 79.8927 267.705 79.8927 271.076C79.8927 271.267 79.8978 271.446 79.9065 271.618C79.734 271.418 79.5364 271.209 79.3111 270.991C76.8904 268.642 72.2047 266.035 71.0079 267.266C70.1677 268.13 71.2709 270.656 72.84 272.898C70.1885 271.951 67.3148 271.535 66.697 272.609C65.8669 274.053 69.415 277.657 72.2991 279.405C72.1257 279.384 71.9435 279.367 71.7497 279.353C68.3832 279.124 63.121 280.16 63.0041 281.872C62.922 283.075 65.3974 284.29 68.0445 284.987C65.409 285.977 62.9468 287.515 63.1703 288.734C63.4415 290.213 67.5787 290.731 70.8316 290.428C68.4014 292.758 65.7663 296.931 66.866 298.155C67.6719 299.051 70.2689 298.123 72.6138 296.712C71.4884 299.29 70.8772 302.127 71.908 302.816C73.2703 303.726 77.0063 300.557 78.9761 297.83C78.7753 301.166 79.5742 305.749 81.1592 305.93C81.8221 306.006 82.5245 305.299 83.1584 304.212L81.3631 330.178C80.9434 333.202 83.6278 335.175 83.8677 336.421L84.255 354.004C83.8179 352.752 83.2293 351.47 82.4358 350.198L82.3569 350.248C82.4586 348.44 82.2174 340.559 70.6006 338.195C67.8608 337.638 65.2851 337.257 62.9241 337.003C60.1371 336.703 59.0499 340.515 61.5676 341.747C65.2138 343.53 68.6437 345.776 70.4315 348.437C75.0021 355.239 81.3173 351.307 82.2152 350.697C83.2181 352.365 83.8757 354.045 84.2911 355.644L84.4967 364.982C84.4464 365.203 84.4115 365.327 84.4088 365.336L84.5051 365.364L85.0028 387.963L89.6194 387.926L87.9681 364.827C88.2456 363.581 89.0993 359.336 87.9681 354.927L86.3169 336.778C86.3127 336.764 86.4106 337.254 86.3169 336.778L84.1629 329.646C84.4761 327.44 85.203 324.958 86.6793 322.503C87.5772 323.113 93.8924 327.045 98.4631 320.243C100.251 317.583 103.681 315.336 107.327 313.553C109.845 312.321 108.757 308.509 105.97 308.809L105.97 308.809ZM84.8815 362.277L84.7945 358.325C84.97 359.819 84.9611 361.168 84.8815 362.277Z" fill="#F2F2F2"/>
<path d="M459.279 308.809C456.918 309.063 454.342 309.444 451.602 310.001C439.985 312.365 439.744 320.247 439.846 322.054L439.767 322.005C438.599 323.877 437.867 325.772 437.425 327.56L436.893 303.403C437.237 302.686 437.55 301.874 437.811 301.041C438.681 303.717 440.106 306.244 441.335 306.077C442.933 305.859 443.629 301.161 443.331 297.823C445.363 300.438 448.782 303.234 450.072 302.372C451.103 301.683 450.492 298.846 449.367 296.268C451.712 297.679 454.309 298.607 455.114 297.711C456.214 296.487 453.579 292.314 451.149 289.984C454.402 290.287 458.539 289.769 458.81 288.29C459.034 287.071 456.571 285.533 453.936 284.543C456.583 283.846 459.058 282.631 458.976 281.428C458.879 280 455.204 279.043 452.033 278.898C454.425 277.028 456.622 274.444 455.95 273.275C455.332 272.201 452.458 272.617 449.807 273.564C451.376 271.322 452.479 268.796 451.639 267.932C450.593 266.855 446.878 268.714 444.344 270.768C444.837 267.567 444.588 263.528 443.151 263.162C441.949 262.857 440.246 265.206 439.078 267.766C438.562 265.08 437.517 262.53 436.311 262.53C434.593 262.53 433.201 267.705 433.201 271.076C433.201 271.267 433.206 271.446 433.215 271.618C433.042 271.418 432.845 271.209 432.619 270.991C430.199 268.642 425.513 266.035 424.316 267.266C423.476 268.13 424.579 270.656 426.148 272.898C423.497 271.951 420.623 271.535 420.005 272.609C419.175 274.053 422.723 277.657 425.607 279.405C425.434 279.384 425.252 279.367 425.058 279.353C421.691 279.124 416.429 280.16 416.312 281.872C416.23 283.075 418.706 284.29 421.353 284.987C418.717 285.977 416.255 287.515 416.478 288.734C416.75 290.213 420.887 290.731 424.14 290.428C421.71 292.758 419.074 296.931 420.174 298.155C420.98 299.051 423.577 298.123 425.922 296.712C424.797 299.29 424.185 302.127 425.216 302.816C426.578 303.726 430.314 300.557 432.284 297.83C432.083 301.166 432.882 305.749 434.467 305.93C435.13 306.006 435.833 305.299 436.467 304.212L434.671 330.178C434.252 333.202 436.936 335.175 437.176 336.421L437.563 354.004C437.126 352.752 436.537 351.47 435.744 350.198L435.665 350.248C435.767 348.44 435.525 340.559 423.909 338.195C421.169 337.638 418.593 337.257 416.232 337.003C413.445 336.703 412.358 340.515 414.876 341.747C418.522 343.53 421.952 345.776 423.74 348.437C428.31 355.239 434.625 351.307 435.523 350.697C436.526 352.365 437.184 354.045 437.599 355.644L437.805 364.982C437.754 365.203 437.72 365.327 437.717 365.336L437.813 365.364L438.311 387.963L442.927 387.926L441.276 364.827C441.554 363.581 442.407 359.336 441.276 354.927L439.625 336.778C439.621 336.764 439.719 337.254 439.625 336.778L437.471 329.646C437.784 327.44 438.511 324.958 439.987 322.503C440.885 323.113 447.201 327.045 451.771 320.243C453.559 317.583 456.989 315.336 460.635 313.553C463.153 312.321 462.066 308.509 459.279 308.809V308.809ZM438.19 362.277L438.103 358.325C438.278 359.819 438.269 361.168 438.19 362.277Z" fill="#F2F2F2"/>
<path d="M387.602 234.853L385.437 183.285C385.437 183.285 383.006 152.67 381.06 141.979C379.115 131.288 365.984 134.204 365.984 134.204L367.443 164.819L373.738 196.149L378.638 238.813C378.385 240.047 378.242 241.388 378.242 242.797C378.242 248.773 380.74 253.619 383.822 253.619C386.903 253.619 389.401 248.773 389.401 242.797C389.401 239.652 388.706 236.83 387.602 234.853V234.853Z" fill="#FFB6B6"/>
<path d="M282.225 221.491C284.527 218.752 287.284 216.89 289.759 216.173L318.876 183.285C318.876 183.285 321.308 152.67 323.253 141.979C325.199 131.288 338.33 134.204 338.33 134.204L336.871 164.819L328.603 197.864L294.532 226.767C293.937 227.85 293.208 228.932 292.334 229.972C288.189 234.905 282.566 237.006 279.774 234.664C276.983 232.322 278.08 226.425 282.225 221.491V221.491Z" fill="#FFB6B6"/>
<path d="M346.287 130.073L349.665 117.099L362.823 116.466L366.759 134.351L346.287 130.073Z" fill="#FFB6B6"/>
<path opacity="0.1" d="M346.287 130.073L349.665 117.099L362.823 116.466L366.759 134.351L346.287 130.073Z" fill="black"/>
<path d="M312.688 342.627L300.364 341.924L301.98 379.715L310.331 380.193L312.688 342.627Z" fill="#FFB6B6"/>
<path d="M300.912 367.766L305.191 369.717L305.186 372.309C305.186 372.309 306.218 369.309 311.76 368.654L312.421 371.167C312.421 371.167 314.571 373.632 314.202 378.091L312.791 390.031L308.612 389.935L307.937 381.626C307.937 381.626 306.786 379.741 301.483 388.7C301.483 388.7 295.641 390.171 286.595 387.14C285.352 386.724 284.488 385.564 284.505 384.254C284.514 383.531 284.796 382.862 285.704 382.623C288.014 382.012 290.269 382.786 291.761 380.944C293.252 379.102 300.912 367.766 300.912 367.766V367.766Z" fill="#2F2E41"/>
<path d="M378.83 342.627L366.506 341.924L368.122 379.715L376.473 380.193L378.83 342.627Z" fill="#FFB6B6"/>
<path d="M367.054 367.766L371.334 369.717L371.328 372.309C371.328 372.309 372.36 369.309 377.902 368.654L378.563 371.167C378.563 371.167 380.713 373.632 380.344 378.091L378.933 390.031L374.754 389.935L374.079 381.626C374.079 381.626 372.928 379.741 367.625 388.7C367.625 388.7 361.784 390.171 352.737 387.14C351.494 386.724 350.63 385.564 350.647 384.254C350.656 383.531 350.939 382.862 351.846 382.623C354.156 382.012 356.411 382.786 357.903 380.944C359.394 379.102 367.054 367.766 367.054 367.766V367.766Z" fill="#2F2E41"/>
<path d="M356.404 124.739C364.462 124.739 370.994 118.212 370.994 110.161C370.994 102.109 364.462 95.582 356.404 95.582C348.346 95.582 341.813 102.109 341.813 110.161C341.813 118.212 348.346 124.739 356.404 124.739Z" fill="#FFB6B6"/>
<path d="M364.678 112.584C364.678 112.584 358.263 102.096 351.842 103.254C345.42 104.412 342.073 105.457 342.073 105.457C342.073 105.457 339.458 97.0947 348.237 93.0829C348.237 93.0829 335.813 82.6892 349.054 76.0189C362.295 69.3485 370.535 75.8132 370.535 75.8132C370.535 75.8132 381.494 85.1 369.343 93.6947C369.343 93.6947 379.86 105.665 369.238 117.099C369.238 117.099 371.113 108.392 368.562 110.177C366.011 111.962 364.678 112.584 364.678 112.584V112.584Z" fill="#2F2E41"/>
<path d="M366.227 131.045L346.287 128.615L330.967 141.007C330.967 141.007 323.348 162.219 329.022 175.024C329.158 175.331 329.265 196.649 329.265 196.649H371.63C371.63 196.649 371.589 182.138 373.208 176.883C373.439 176.132 373.705 175.57 374.009 175.267C376.44 172.837 382.276 157.286 379.358 150.483C376.44 143.68 366.227 131.045 366.227 131.045V131.045Z" fill="#76549A"/>
<path d="M329.022 195.677L302.274 280.719L296.438 347.78H312.73L326.591 285.578L345.678 249.572L364.525 352.64H380.971L380.574 213.171L371.596 195.677H329.022Z" fill="#2F2E41"/>
<path d="M515 388.08H25V389.573H515V388.08Z" fill="#3F3D56"/>
<path d="M276.172 212.888C271.315 205.074 259.984 203.235 251.568 206.963C243.151 210.691 237.334 218.639 233.379 226.946C229.424 235.253 226.936 244.203 222.872 252.457C210.912 276.742 186.692 292.603 171.457 314.983C160.01 331.798 153.948 352.214 154.366 372.546C154.526 380.334 155.786 388.528 160.65 394.615C167.87 403.65 180.652 405.504 192.162 406.694C198.847 407.385 207.053 407.365 210.496 401.597C211.858 399.315 197.223 391.356 197.457 388.71C198.724 374.43 214.894 365.362 216.161 351.082C218.148 361.032 215.602 371.304 216.004 381.442C216.405 391.58 221.407 403.047 231.342 405.144C234.407 405.79 237.869 405.343 240.193 403.242C242.516 401.142 243.195 397.174 241.125 394.824C243.244 396.987 246.821 397.549 249.503 396.14C252.185 394.732 253.75 391.469 253.169 388.498C252.741 386.313 251.33 384.476 250.108 382.614C243.489 372.531 241.765 359.391 245.558 347.943C252.264 327.706 274.286 314.498 278.016 293.509C280.787 277.922 272.883 260.26 281.27 246.829C285.05 240.777 291.468 236.961 296.587 231.988C301.706 227.014 305.709 219.405 302.779 212.899L276.614 212.87" fill="#3F3D56"/>
<path d="M195.483 391.536C194.832 391.536 194.164 391.362 193.52 391.016C192.034 390.221 190.914 388.647 190.666 387.007C190.253 384.28 191.553 381.631 192.598 379.503C195.455 373.682 198.28 367.458 198.697 360.991C199.151 353.93 196.285 347.385 191.395 344.317C187.76 342.037 182.907 341.45 177.731 342.667C173.146 343.744 169.028 345.946 164.502 348.501C164.143 348.704 163.687 348.578 163.484 348.218C163.281 347.86 163.408 347.404 163.767 347.201C168.224 344.685 172.619 342.334 177.389 341.213C182.957 339.906 188.213 340.558 192.189 343.053C197.537 346.408 200.677 353.487 200.188 361.087C199.754 367.826 196.863 374.205 193.939 380.16C192.936 382.203 191.799 384.518 192.143 386.784C192.32 387.956 193.157 389.129 194.226 389.701C194.746 389.98 195.539 390.231 196.363 389.848C196.738 389.673 197.182 389.836 197.356 390.209C197.53 390.583 197.368 391.027 196.994 391.201C196.514 391.425 196.004 391.536 195.483 391.536V391.536Z" fill="#2F2E41"/>
<path d="M252.725 212.376C251.747 215.053 253.052 218.053 254.861 220.256C256.669 222.459 258.992 224.231 260.586 226.594C263.926 231.547 263.425 238.319 260.858 243.713C258.291 249.107 253.964 253.429 249.721 257.636C250.034 255.832 249.122 254.011 247.878 252.667C246.634 251.323 245.068 250.325 243.677 249.133C237.199 243.584 235.173 233.473 239.013 225.86" fill="#2F2E41"/>
<path d="M164.248 371.625C158.761 370.953 154.126 375.886 148.65 376.643C142.318 377.517 136.495 372.511 133.677 366.777C130.86 361.044 130.137 354.535 128.199 348.449C126.26 342.362 122.521 336.197 116.429 334.262C113.873 333.451 110.981 333.495 108.606 334.741C106.232 335.987 104.491 338.53 104.551 341.209C104.624 344.506 107.154 347.145 108.687 350.065C111.126 354.711 111.05 360.214 112.127 365.35C114.717 377.696 124.769 388.167 137.007 391.266C143.335 392.869 150.42 392.502 155.902 388.959C161.385 385.417 164.726 378.281 162.697 372.081" fill="#3F3D56"/>
</g>
<defs>
<clipPath id="clip0_63_1392">
<rect width="490" height="334" fill="white" transform="translate(25 73)"/>
</clipPath>
</defs>
</svg>
