<svg width="540" height="480" viewBox="0 0 540 480" fill="none" xmlns="http://www.w3.org/2000/svg">
<rect x="0.5" y="0.5" width="539" height="479" fill="white" stroke="black"/>
<g clip-path="url(#clip0_202_279)">
<path d="M276.789 367.68C269.422 368.766 261.967 369.127 254.529 368.757C236.596 367.85 218.959 362.629 203.887 352.813C197.204 348.46 190.829 343.113 187.37 335.93C182.675 326.175 184.317 313.825 191.021 305.329C193.467 302.264 196.475 299.695 199.884 297.761C200.389 297.475 200.905 297.2 201.427 296.937C207.107 294.078 213.487 292.908 219.81 293.568C230.561 294.744 240.483 301.317 246.216 310.5C251.322 318.689 253.102 328.351 254.15 338.035C254.348 339.859 254.518 341.69 254.683 343.509C253.769 348.779 252.333 353.945 250.394 358.93C250.296 359.173 250.215 359.423 250.153 359.678C251.251 362.063 252.296 364.47 253.288 366.899C254.22 367.406 255.264 367.67 256.325 367.669H276.745L276.789 367.68Z" fill="#F2F2F2"/>
<path d="M252.865 368.147C252.73 368.207 252.584 368.24 252.436 368.243C252.288 368.247 252.14 368.221 252.002 368.166C251.864 368.112 251.738 368.031 251.632 367.928C251.526 367.824 251.441 367.701 251.383 367.564C251.295 367.355 251.213 367.146 251.125 366.938C250.334 365.014 249.505 363.109 248.638 361.222C237.53 336.872 220.963 315.413 200.224 298.514C200.105 298.43 200.011 298.316 199.951 298.184C199.891 298.052 199.868 297.905 199.884 297.761C199.914 297.595 199.981 297.439 200.08 297.303C200.179 297.167 200.308 297.055 200.456 296.975C200.605 296.896 200.769 296.852 200.937 296.845C201.105 296.838 201.272 296.869 201.427 296.937C201.509 296.974 201.587 297.022 201.657 297.079C210.531 304.313 218.671 312.404 225.96 321.234C233.251 330.056 239.67 339.564 245.129 349.626C246.617 352.373 248.03 355.16 249.368 357.985C249.631 358.545 249.895 359.111 250.153 359.677C251.251 362.063 252.296 364.47 253.288 366.899C253.305 366.938 253.321 366.982 253.338 367.02C253.388 367.124 253.416 367.238 253.419 367.353C253.423 367.469 253.401 367.584 253.356 367.69C253.312 367.797 253.245 367.893 253.16 367.971C253.075 368.05 252.975 368.11 252.865 368.147Z" fill="white"/>
<path d="M180.04 295.662C191.866 295.662 201.454 286.065 201.454 274.228C201.454 262.39 191.866 252.794 180.04 252.794C168.213 252.794 158.625 262.39 158.625 274.228C158.625 286.065 168.213 295.662 180.04 295.662Z" fill="#76549A"/>
<path d="M177.917 282.404C177.435 282.405 176.966 282.249 176.581 281.96L176.557 281.942L171.524 278.085C171.291 277.907 171.095 277.684 170.948 277.429C170.801 277.175 170.705 276.894 170.667 276.602C170.628 276.311 170.647 276.015 170.723 275.731C170.799 275.447 170.93 275.181 171.109 274.947C171.287 274.714 171.51 274.518 171.764 274.371C172.019 274.224 172.299 274.128 172.59 274.09C172.882 274.051 173.178 274.07 173.461 274.146C173.745 274.222 174.011 274.354 174.244 274.533L177.504 277.034L185.207 266.979C185.386 266.746 185.608 266.55 185.863 266.403C186.117 266.256 186.397 266.161 186.689 266.122C186.98 266.084 187.275 266.103 187.559 266.179C187.843 266.255 188.109 266.386 188.342 266.565L188.294 266.63L188.343 266.566C188.813 266.927 189.12 267.461 189.198 268.049C189.276 268.637 189.117 269.232 188.757 269.703L179.696 281.531C179.486 281.803 179.217 282.024 178.908 282.175C178.6 282.327 178.261 282.405 177.917 282.404V282.404Z" fill="white"/>
<path d="M502.346 369H37.6539C37.4808 369 37.315 368.93 37.1928 368.808C37.0706 368.685 37.002 368.519 37.002 368.346C37.002 368.172 37.0706 368.006 37.1928 367.884C37.315 367.761 37.4808 367.692 37.6539 367.691H502.346C502.519 367.692 502.685 367.761 502.807 367.884C502.93 368.006 502.998 368.172 502.998 368.346C502.998 368.519 502.93 368.685 502.807 368.808C502.685 368.93 502.519 369 502.346 369V369Z" fill="#3F3D56"/>
<path d="M127.899 185.714C136.676 185.714 143.79 178.593 143.79 169.808C143.79 161.024 136.676 153.903 127.899 153.903C119.123 153.903 112.009 161.024 112.009 169.808C112.009 178.593 119.123 185.714 127.899 185.714Z" fill="#2F2E41"/>
<path d="M115.496 161.233C118.064 158.663 118.584 155.016 116.658 153.089C114.732 151.161 111.089 151.682 108.522 154.252C105.954 156.822 105.433 160.469 107.359 162.396C109.285 164.324 112.928 163.803 115.496 161.233Z" fill="#2F2E41"/>
<path d="M144.462 156.182C145.532 153.675 143.692 150.485 140.352 149.057C137.012 147.63 133.438 148.504 132.368 151.011C131.298 153.518 133.138 156.708 136.478 158.136C139.817 159.564 143.392 158.689 144.462 156.182Z" fill="#2F2E41"/>
<path d="M172.148 261.635C172.55 260.871 172.779 260.028 172.82 259.166C172.861 258.304 172.712 257.443 172.385 256.645C172.058 255.846 171.559 255.129 170.925 254.544C170.291 253.959 169.537 253.521 168.715 253.259L145.754 204.643L135.251 212.015L161.123 257.485C160.776 258.896 160.958 260.385 161.634 261.671C162.311 262.957 163.435 263.95 164.794 264.461C166.153 264.973 167.652 264.968 169.008 264.447C170.363 263.926 171.481 262.925 172.148 261.635V261.635Z" fill="#FFB8B8"/>
<path d="M151.02 212.754L138.826 218.212C138.479 218.367 138.102 218.446 137.722 218.443C137.342 218.439 136.967 218.354 136.623 218.192C136.279 218.031 135.974 217.797 135.728 217.507C135.482 217.216 135.302 216.877 135.199 216.51L131.603 203.676C130.82 201.894 130.774 199.875 131.475 198.06C132.177 196.244 133.57 194.782 135.347 193.993C137.125 193.203 139.142 193.152 140.958 193.849C142.773 194.546 144.238 195.936 145.032 197.713L152.171 208.915C152.375 209.235 152.508 209.596 152.56 209.973C152.613 210.35 152.583 210.734 152.474 211.098C152.365 211.462 152.178 211.799 151.927 212.085C151.677 212.371 151.367 212.599 151.02 212.754V212.754Z" fill="#CCCCCC"/>
<path d="M94.7012 266.455C95.5412 266.26 96.3282 265.882 97.0068 265.35C97.6854 264.817 98.2391 264.142 98.6288 263.372C99.0185 262.602 99.2348 261.756 99.2625 260.893C99.2902 260.031 99.1286 259.172 98.789 258.379L120.534 209.206L108.095 206.07L90.6315 255.392C89.3376 256.051 88.3304 257.162 87.8006 258.515C87.2708 259.868 87.2552 261.369 87.7569 262.732C88.2585 264.096 89.2425 265.228 90.5224 265.914C91.8023 266.6 93.2892 266.793 94.7012 266.455H94.7012Z" fill="#FFB8B8"/>
<path d="M88.7734 355.585L95.099 357.89L106.993 334.566L97.6566 331.164L88.7734 355.585Z" fill="#FFB8B8"/>
<path d="M105.159 368.215L85.279 360.97L88.0757 353.282L100.275 357.728C102.312 358.47 103.971 359.992 104.887 361.959C105.803 363.925 105.901 366.176 105.159 368.215V368.215V368.215Z" fill="#2F2E41"/>
<path d="M103.735 342.163C103.347 342.163 102.964 342.077 102.613 341.91L95.3434 338.464C94.7474 338.184 94.2778 337.691 94.0269 337.082C93.776 336.472 93.7621 335.791 93.988 335.172L114.504 278.307C114.674 277.836 114.974 277.423 115.369 277.116C115.764 276.809 116.238 276.62 116.736 276.572C117.234 276.523 117.735 276.617 118.182 276.843C118.629 277.068 119.002 277.415 119.26 277.845L130.111 295.947C130.352 296.35 130.482 296.81 130.487 297.281C130.492 297.751 130.372 298.214 130.139 298.622L106.041 340.832C105.808 341.237 105.472 341.573 105.067 341.807C104.662 342.041 104.203 342.163 103.735 342.163V342.163Z" fill="#2F2E41"/>
<path d="M128.403 187.104C135.851 187.104 141.889 181.06 141.889 173.605C141.889 166.15 135.851 160.107 128.403 160.107C120.955 160.107 114.917 166.15 114.917 173.605C114.917 181.06 120.955 187.104 128.403 187.104Z" fill="#FFB8B8"/>
<path d="M147.483 234.978L123.604 228.405L110.904 202.982C110.293 201.76 110.005 200.403 110.067 199.039C110.128 197.675 110.537 196.349 111.254 195.188C111.971 194.026 112.973 193.067 114.165 192.402C115.356 191.737 116.698 191.388 118.062 191.388H137.061C139.033 191.387 140.935 192.115 142.403 193.434C147.5 198.003 158.207 211.177 147.586 234.748L147.483 234.978Z" fill="#CCCCCC"/>
<path d="M117.591 218L105.492 212.332C105.148 212.171 104.843 211.937 104.597 211.647C104.351 211.357 104.17 211.017 104.067 210.651C103.965 210.285 103.942 209.901 104.001 209.525C104.059 209.149 104.198 208.79 104.408 208.473L111.761 197.359C112.595 195.601 114.092 194.246 115.923 193.591C117.754 192.936 119.77 193.034 121.529 193.865C123.288 194.695 124.646 196.189 125.305 198.02C125.965 199.851 125.872 201.869 125.048 203.632L121.246 216.362C121.137 216.726 120.951 217.063 120.7 217.349C120.449 217.635 120.14 217.863 119.793 218.019C119.446 218.174 119.07 218.253 118.69 218.25C118.31 218.247 117.935 218.162 117.591 218V218Z" fill="#CCCCCC"/>
<path d="M132.228 361.958H138.96L142.162 335.969L132.227 335.969L132.228 361.958Z" fill="#FFB8B8"/>
<path d="M151.942 368.214L130.786 368.215L130.785 360.033L143.768 360.032C145.936 360.032 148.015 360.894 149.548 362.428C151.081 363.963 151.942 366.044 151.942 368.214V368.214Z" fill="#2F2E41"/>
<path d="M134.769 352.054C134.164 352.055 133.577 351.847 133.107 351.465C132.637 351.083 132.313 350.551 132.19 349.958C130.255 340.833 120.205 294.092 112.361 270.016C104.381 245.52 117.972 234.363 120.778 232.375C121.077 232.164 121.314 231.877 121.466 231.544L123.504 227.056C123.715 226.593 124.055 226.2 124.483 225.924C124.912 225.649 125.41 225.502 125.919 225.502H125.935C141.215 225.594 146.352 230.415 147.852 232.484C148.073 232.792 148.224 233.144 148.296 233.517C148.367 233.89 148.357 234.273 148.265 234.642L138.597 274.566C138.537 274.814 138.524 275.07 138.557 275.323L148.176 347.813C148.223 348.162 148.199 348.516 148.107 348.855C148.015 349.194 147.857 349.512 147.641 349.789C147.425 350.066 147.156 350.298 146.85 350.47C146.544 350.642 146.206 350.752 145.858 350.792L135.08 352.037C134.977 352.048 134.873 352.054 134.769 352.054V352.054Z" fill="#2F2E41"/>
<path d="M114.232 165.115C117.314 167.241 120.972 168.372 124.715 168.357C123.38 169.284 121.86 169.91 120.26 170.192C125.236 171.26 130.379 171.289 135.368 170.277C136.476 170.099 137.546 169.731 138.53 169.19C139.021 168.916 139.448 168.541 139.784 168.091C140.12 167.641 140.358 167.125 140.482 166.577C140.814 164.681 139.338 162.959 137.805 161.799C135.457 160.049 132.75 158.844 129.88 158.27C127.01 157.696 124.048 157.767 121.209 158.48C119.355 158.959 117.498 159.77 116.294 161.26C115.09 162.75 114.733 165.047 115.88 166.582L114.232 165.115Z" fill="#2F2E41"/>
<path d="M361.789 223.666C365.731 223.666 368.927 220.467 368.927 216.521C368.927 212.575 365.731 209.376 361.789 209.376C357.846 209.376 354.65 212.575 354.65 216.521C354.65 220.467 357.846 223.666 361.789 223.666Z" fill="#76549A"/>
<path d="M361.082 219.246C360.921 219.247 360.765 219.195 360.636 219.098L360.628 219.092L358.951 217.807C358.873 217.747 358.807 217.673 358.758 217.588C358.709 217.503 358.677 217.41 358.664 217.312C358.651 217.215 358.657 217.116 358.682 217.021C358.708 216.927 358.751 216.838 358.811 216.76C358.871 216.682 358.945 216.617 359.03 216.568C359.115 216.518 359.208 216.487 359.306 216.474C359.403 216.461 359.502 216.468 359.596 216.493C359.691 216.519 359.78 216.563 359.857 216.623L360.944 217.456L363.512 214.105C363.571 214.027 363.645 213.962 363.73 213.913C363.815 213.864 363.908 213.832 364.005 213.819C364.102 213.806 364.201 213.813 364.296 213.838C364.39 213.863 364.479 213.907 364.557 213.967L364.541 213.988L364.557 213.967C364.714 214.087 364.816 214.265 364.842 214.461C364.868 214.657 364.815 214.856 364.695 215.013L361.675 218.955C361.605 219.046 361.515 219.12 361.412 219.17C361.309 219.221 361.196 219.247 361.082 219.246V219.246Z" fill="white"/>
<path d="M361.789 244.55C365.731 244.55 368.927 241.351 368.927 237.405C368.927 233.459 365.731 230.261 361.789 230.261C357.846 230.261 354.65 233.459 354.65 237.405C354.65 241.351 357.846 244.55 361.789 244.55Z" fill="#76549A"/>
<path d="M361.082 240.131C360.921 240.131 360.765 240.079 360.636 239.983L360.628 239.977L358.951 238.691C358.873 238.632 358.807 238.557 358.758 238.473C358.709 238.388 358.677 238.294 358.664 238.197C358.651 238.099 358.657 238.001 358.682 237.906C358.708 237.811 358.751 237.722 358.811 237.644C358.871 237.566 358.945 237.501 359.03 237.452C359.115 237.403 359.208 237.371 359.306 237.358C359.403 237.346 359.502 237.352 359.596 237.378C359.691 237.403 359.78 237.447 359.857 237.507L360.944 238.341L363.512 234.989C363.571 234.911 363.645 234.846 363.73 234.797C363.815 234.748 363.908 234.716 364.005 234.703C364.102 234.691 364.201 234.697 364.296 234.722C364.39 234.748 364.479 234.791 364.557 234.851L364.541 234.873L364.557 234.851C364.714 234.972 364.816 235.15 364.842 235.346C364.868 235.542 364.815 235.74 364.695 235.897L361.675 239.84C361.605 239.931 361.515 240.004 361.412 240.055C361.309 240.105 361.196 240.131 361.082 240.131V240.131Z" fill="white"/>
<path d="M365.632 268.732C369.575 268.732 372.771 265.533 372.771 261.587C372.771 257.641 369.575 254.442 365.632 254.442C361.69 254.442 358.494 257.641 358.494 261.587C358.494 265.533 361.69 268.732 365.632 268.732Z" fill="#76549A"/>
<path d="M364.925 264.313C364.765 264.313 364.608 264.261 364.48 264.165L364.472 264.159L362.794 262.873C362.716 262.814 362.651 262.739 362.602 262.654C362.553 262.57 362.521 262.476 362.508 262.379C362.495 262.281 362.501 262.182 362.526 262.088C362.551 261.993 362.595 261.904 362.655 261.826C362.714 261.748 362.789 261.683 362.874 261.634C362.958 261.585 363.052 261.553 363.149 261.54C363.247 261.527 363.345 261.534 363.44 261.559C363.535 261.585 363.623 261.629 363.701 261.689L364.788 262.523L367.355 259.171C367.415 259.093 367.489 259.028 367.574 258.979C367.659 258.93 367.752 258.898 367.849 258.885C367.946 258.873 368.045 258.879 368.139 258.904C368.234 258.93 368.323 258.973 368.4 259.033L368.384 259.055L368.401 259.033C368.557 259.154 368.66 259.332 368.686 259.528C368.712 259.724 368.659 259.922 368.539 260.079L365.518 264.022C365.448 264.112 365.359 264.186 365.256 264.236C365.153 264.287 365.04 264.313 364.925 264.313V264.313Z" fill="white"/>
<path d="M434.465 321.239C434.391 321.239 434.344 321.237 434.328 321.236L425.466 321.237V319.929H434.36C434.566 319.937 438.767 320.055 442.638 315.354C448.407 308.347 453.144 291.002 442.953 248.159C429.249 190.551 440.679 139.658 446.229 120.45C446.502 119.5 446.551 118.499 446.372 117.527C446.192 116.554 445.789 115.637 445.195 114.847C444.6 114.057 443.83 113.417 442.946 112.976C442.061 112.535 441.086 112.307 440.098 112.308H307.749C306.743 112.309 305.751 112.548 304.854 113.005C303.957 113.462 303.181 114.124 302.588 114.937C300.237 118.174 297.01 124.393 294.991 135.638L293.705 135.406C295.768 123.918 299.099 117.516 301.531 114.168C302.245 113.188 303.181 112.39 304.261 111.84C305.342 111.289 306.536 111.002 307.749 111H440.099C441.289 110.999 442.464 111.275 443.529 111.806C444.595 112.337 445.523 113.11 446.239 114.061C446.955 115.013 447.441 116.119 447.657 117.291C447.873 118.463 447.814 119.669 447.484 120.814C441.963 139.921 430.592 190.551 444.224 247.857C454.559 291.302 449.591 309.023 443.603 316.239C439.654 320.998 435.302 321.239 434.465 321.239Z" fill="#E6E6E6"/>
<path d="M410.617 345.107C410.543 345.107 410.497 345.105 410.48 345.104L401.618 345.105V343.798H410.513C410.72 343.804 414.92 343.924 418.791 339.222C424.56 332.216 429.297 314.87 419.105 272.028C405.402 214.419 416.831 163.526 422.381 144.319C422.655 143.368 422.704 142.367 422.524 141.395C422.345 140.423 421.942 139.505 421.347 138.716C420.752 137.926 419.983 137.285 419.098 136.845C418.214 136.404 417.239 136.175 416.251 136.176H283.901C282.895 136.178 281.903 136.416 281.007 136.873C280.11 137.33 279.333 137.992 278.74 138.806C276.389 142.043 273.162 148.261 271.144 159.506L269.857 159.275C271.92 147.786 275.252 141.384 277.683 138.037C278.398 137.056 279.333 136.259 280.414 135.708C281.494 135.158 282.689 134.87 283.901 134.868H416.251C417.442 134.867 418.616 135.143 419.682 135.674C420.747 136.206 421.675 136.978 422.392 137.93C423.108 138.882 423.593 139.987 423.809 141.159C424.025 142.331 423.966 143.537 423.637 144.682C418.115 163.79 406.745 214.419 420.377 271.725C430.711 315.17 425.743 332.891 419.756 340.107C415.806 344.866 411.455 345.107 410.617 345.107Z" fill="#CCCCCC"/>
<path d="M396.53 295.596C382.896 238.29 394.267 187.657 399.791 168.553C400.12 167.408 400.179 166.202 399.962 165.03C399.746 163.858 399.261 162.753 398.544 161.801C397.828 160.85 396.901 160.077 395.836 159.546C394.77 159.014 393.596 158.737 392.406 158.737H260.053C258.841 158.738 257.647 159.026 256.567 159.576C255.487 160.126 254.552 160.923 253.837 161.903C248.495 169.256 237.409 193.642 249.791 261.114C256.413 297.211 256.314 321.822 254.151 338.035C252.937 347.163 251.065 353.627 249.368 357.985L249.187 358.446C248.829 359.328 248.643 360.27 248.638 361.222C248.625 362.296 248.84 363.361 249.269 364.347C249.698 365.332 250.33 366.215 251.125 366.938C251.643 367.424 252.229 367.831 252.865 368.147C253.394 368.416 253.952 368.621 254.529 368.757C255.117 368.9 255.72 368.972 256.325 368.971H386.635C386.652 368.971 386.695 368.977 386.772 368.977C387.607 368.977 391.961 368.735 395.909 363.975C401.894 356.759 406.863 339.04 396.53 295.596ZM394.943 363.09C391.072 367.795 386.871 367.674 386.668 367.669H256.325C255.281 367.668 254.254 367.412 253.332 366.923C252.41 366.433 251.622 365.725 251.037 364.86C250.522 364.112 250.176 363.262 250.024 362.366C249.871 361.471 249.915 360.554 250.153 359.678C250.215 359.423 250.296 359.173 250.395 358.93C252.333 353.945 253.769 348.779 254.683 343.509C257.78 326.609 258.356 300.531 251.076 260.878C238.787 193.905 249.653 169.888 254.892 162.672C255.486 161.86 256.263 161.199 257.159 160.743C258.056 160.286 259.047 160.047 260.053 160.045H392.406C393.393 160.045 394.367 160.274 395.251 160.714C396.135 161.155 396.905 161.795 397.499 162.585C398.093 163.374 398.496 164.291 398.676 165.263C398.855 166.234 398.807 167.235 398.534 168.185C392.983 187.393 381.556 238.29 395.261 295.898C405.452 338.738 400.714 356.083 394.943 363.09Z" fill="#3F3D56"/>
<path d="M333.653 221.138H265.464C264.078 221.138 262.748 220.586 261.768 219.605C260.788 218.624 260.237 217.294 260.237 215.906C260.237 214.519 260.788 213.188 261.768 212.207C262.748 211.226 264.078 210.675 265.464 210.675H333.653C335.04 210.675 336.369 211.226 337.349 212.207C338.329 213.188 338.88 214.519 338.88 215.906C338.88 217.294 338.329 218.624 337.349 219.605C336.369 220.586 335.04 221.138 333.653 221.138V221.138Z" fill="#CCCCCC"/>
<path d="M333.653 243.671H265.464C264.078 243.671 262.748 243.12 261.768 242.138C260.788 241.157 260.237 239.827 260.237 238.439C260.237 237.052 260.788 235.721 261.768 234.74C262.748 233.759 264.078 233.208 265.464 233.208H333.653C335.04 233.208 336.369 233.759 337.349 234.74C338.329 235.721 338.88 237.052 338.88 238.439C338.88 239.827 338.329 241.157 337.349 242.138C336.369 243.12 335.04 243.671 333.653 243.671V243.671Z" fill="#CCCCCC"/>
<path d="M339.145 266.753H270.955C269.569 266.753 268.24 266.202 267.259 265.221C266.279 264.24 265.729 262.909 265.729 261.522C265.729 260.134 266.279 258.804 267.259 257.823C268.24 256.842 269.569 256.291 270.955 256.291H339.145C340.531 256.291 341.86 256.842 342.84 257.823C343.821 258.804 344.371 260.134 344.371 261.522C344.371 262.909 343.821 264.24 342.84 265.221C341.86 266.202 340.531 266.753 339.145 266.753V266.753Z" fill="#CCCCCC"/>
<path d="M342.987 290.935H274.798C273.412 290.935 272.082 290.384 271.102 289.403C270.122 288.422 269.571 287.091 269.571 285.704C269.571 284.316 270.122 282.986 271.102 282.005C272.082 281.024 273.412 280.472 274.798 280.472H342.987C344.374 280.472 345.703 281.024 346.683 282.005C347.663 282.986 348.214 284.316 348.214 285.704C348.214 287.091 347.663 288.422 346.683 289.403C345.703 290.384 344.374 290.935 342.987 290.935Z" fill="#CCCCCC"/>
<path d="M343.016 180.518H294.016C293.329 180.518 292.649 180.384 292.014 180.121C291.38 179.858 290.803 179.473 290.317 178.987C289.831 178.501 289.446 177.925 289.183 177.289C288.92 176.654 288.784 175.974 288.784 175.286C288.784 174.599 288.92 173.918 289.183 173.283C289.446 172.648 289.831 172.071 290.317 171.585C290.803 171.099 291.38 170.714 292.014 170.451C292.649 170.189 293.329 170.054 294.016 170.055H343.016C344.403 170.055 345.732 170.606 346.712 171.587C347.692 172.568 348.243 173.899 348.243 175.286C348.243 176.674 347.692 178.004 346.712 178.985C345.732 179.966 344.403 180.518 343.016 180.518Z" fill="#76549A"/>
<path d="M370.025 292.848C373.967 292.848 377.163 289.65 377.163 285.704C377.163 281.758 373.967 278.559 370.025 278.559C366.083 278.559 362.887 281.758 362.887 285.704C362.887 289.65 366.083 292.848 370.025 292.848Z" fill="#CCCCCC"/>
<path d="M346.282 314.568H278.093C276.707 314.568 275.377 314.016 274.397 313.035C273.417 312.054 272.866 310.724 272.866 309.336C272.866 307.949 273.417 306.618 274.397 305.637C275.377 304.656 276.707 304.105 278.093 304.105H346.282C347.669 304.105 348.998 304.656 349.978 305.637C350.958 306.618 351.509 307.949 351.509 309.336C351.509 310.724 350.958 312.054 349.978 313.035C348.998 314.016 347.669 314.568 346.282 314.568Z" fill="#CCCCCC"/>
<path d="M373.32 316.481C377.262 316.481 380.458 313.282 380.458 309.336C380.458 305.39 377.262 302.192 373.32 302.192C369.378 302.192 366.182 305.39 366.182 309.336C366.182 313.282 369.378 316.481 373.32 316.481Z" fill="#CCCCCC"/>
</g>
<defs>
<clipPath id="clip0_202_279">
<rect width="466" height="258" fill="white" transform="translate(37 111)"/>
</clipPath>
</defs>
</svg>
