<svg width="540" height="480" viewBox="0 0 540 480" fill="none" xmlns="http://www.w3.org/2000/svg">
<rect x="0.5" y="0.5" width="539" height="479" fill="white" stroke="black"/>
<g clip-path="url(#clip0_22_816)">
<path d="M434.601 110.191H26.4543C27.0308 106.921 28.1566 103.826 29.7301 101.024C34.7558 92.0665 44.339 86 55.3194 86H405.736C416.709 86 426.299 92.0665 431.318 101.024C432.891 103.826 434.024 106.921 434.601 110.191Z" fill="#F2F2F2"/>
<path d="M514 393.87C514 394.318 513.641 394.678 513.193 394.678H345.476C345.028 394.678 344.669 394.318 344.669 393.87C344.669 393.653 344.75 393.463 344.886 393.321H405.736C407.031 393.321 408.299 393.232 409.547 393.063H513.193C513.641 393.063 514 393.422 514 393.87V393.87Z" fill="#3F3D56"/>
<path d="M351.248 229.275H109.802C107.558 229.275 105.733 227.448 105.733 225.203C105.733 222.958 107.558 221.132 109.802 221.132H351.248C353.492 221.132 355.318 222.958 355.318 225.203C355.318 227.448 353.492 229.275 351.248 229.275Z" fill="#E6E6E6"/>
<path d="M434.601 110.191C434.024 106.921 432.892 103.826 431.318 101.024C426.299 92.0665 416.709 86 405.736 86H55.3195C44.3391 86 34.7558 92.0665 29.7302 101.024C28.1567 103.826 27.0309 106.921 26.4544 110.191C26.156 111.861 26 113.577 26 115.335V365.343C26 381.52 39.1507 394.678 55.3195 394.678H405.736C409.086 394.678 412.314 394.108 415.319 393.063C426.794 389.086 435.055 378.161 435.055 365.343V115.335C435.055 113.584 434.899 111.861 434.601 110.191ZM433.699 365.343C433.699 379.498 423.186 391.203 409.547 393.063C408.299 393.232 407.031 393.321 405.736 393.321H96.969C58.5207 393.321 27.3564 362.133 27.3564 323.665V115.335C27.3564 113.577 27.5192 111.861 27.8312 110.191C28.4416 106.893 29.6285 103.806 31.2901 101.024C36.1665 92.8401 45.1055 87.3572 55.3195 87.3572H405.736C415.95 87.3572 424.889 92.8401 429.765 101.024C431.427 103.806 432.614 106.893 433.224 110.191C433.536 111.861 433.699 113.577 433.699 115.335V365.343Z" fill="#3F3D56"/>
<path d="M416.605 232.627L414.31 224.207L424.637 220.38L425.785 228.034L416.605 232.627Z" fill="#FFB6B6"/>
<path opacity="0.1" d="M416.605 232.627L414.31 224.207L420.392 221.64L418.502 231.566L416.605 232.627Z" fill="black"/>
<path d="M386.372 304.785C384.399 303.611 384.295 300.145 386.14 297.043C386.947 295.686 387.994 294.623 389.081 293.956L390.164 292.185L403.866 267.61C403.866 267.61 409.863 244.432 412.305 241.63C414.747 238.827 418.277 239.488 418.277 239.488L421.409 242.27L410.232 275.098L396.44 294.531L394.592 297.236C394.524 298.51 394.091 299.938 393.283 301.296C391.439 304.397 388.345 305.959 386.372 304.785V304.785Z" fill="#FFB6B6"/>
<path d="M416.04 230.222C416.04 230.222 420.398 230.053 423.148 233.44C425.897 236.827 411.493 275.002 411.493 275.002L399.76 274.587L416.04 230.222V230.222Z" fill="#76549A"/>
<path d="M417.179 225.547C423.094 225.547 427.889 220.749 427.889 214.831C427.889 208.913 423.094 204.115 417.179 204.115C411.264 204.115 406.469 208.913 406.469 214.831C406.469 220.749 411.264 225.547 417.179 225.547Z" fill="#FFB6B6"/>
<path d="M392.124 370.401L384.857 388.388L380.649 384.178L379.119 376.141L385.239 368.487L392.124 370.401Z" fill="#FFB6B6"/>
<path d="M460.21 363.895L467.478 372.314L464.035 379.203L456.385 378.055L452.56 367.339L460.21 363.895Z" fill="#FFB6B6"/>
<path d="M411.823 263.434L410.867 278.934L434.583 274.724L433.052 265.157L411.823 263.434Z" fill="#FFB6B6"/>
<path d="M410.676 279.125L434.583 271.28C434.583 271.28 443.38 288.884 433.818 299.983C424.255 311.081 392.507 374.228 392.507 374.228L382.944 369.635L396.715 329.451L412.015 292.329L410.676 279.125V279.125Z" fill="#2F2E41"/>
<path d="M433.817 293.477L442.998 333.661L462.123 364.66L452.178 370.401L425.402 333.661L416.605 305.341L433.817 293.477Z" fill="#2F2E41"/>
<path d="M375.677 374.611H369.052C369.052 374.611 361.322 371.549 359.511 374.611C357.699 377.672 367.594 386.356 367.594 386.356C367.594 386.356 381.414 394.129 383.327 393.746C385.239 393.363 386.004 388.771 386.004 388.771L388.299 383.413L384.857 384.561C384.857 384.561 380.267 381.882 381.414 377.29L375.677 374.611V374.611Z" fill="#2F2E41"/>
<path d="M465.948 373.463V369.635L470.395 373.463C470.395 373.463 477.806 376.142 472.068 381.882C466.33 387.623 459.063 393.746 459.063 393.746C459.063 393.746 447.588 396.808 446.823 393.363C446.058 389.919 446.823 388.525 446.823 388.525L451.03 386.475L454.855 376.524L460.975 377.29L465.948 373.463Z" fill="#2F2E41"/>
<path d="M420.43 216.936L416.987 216.553L410.676 210.238C410.676 210.238 404.938 213.3 404.938 211.004C404.938 200.288 411.441 200.671 416.796 199.905C422.151 199.14 421.577 198.948 423.299 201.819C424.086 203.131 426.932 203.924 426.932 203.924C426.932 203.924 432.288 196.652 434.965 205.454C437.643 214.257 434.2 241.429 436.878 243.725C439.555 246.021 425.884 248.314 427.364 239.322C428.845 230.33 431.523 216.553 429.993 213.491C428.463 210.43 428.08 211.195 428.08 211.195C429.976 210.42 431.215 224.064 424.066 224.732L423.872 218.084C423.872 218.084 422.725 214.639 420.43 216.936V216.936Z" fill="#2F2E41"/>
<path d="M415.649 230.139L427.124 225.547L442.424 271.471L410.944 270.324L408.109 256.617C408.109 256.617 405.342 249.483 407.637 245.273C409.932 241.063 415.649 230.139 415.649 230.139V230.139Z" fill="#76549A"/>
<path d="M445.509 307.069C443.222 307.265 441.118 304.51 440.809 300.914C440.674 299.34 440.905 297.866 441.4 296.69L441.248 294.62L438.061 266.661C438.061 266.661 432.128 243.791 432.479 240.089C432.83 236.388 433.384 235.406 433.384 235.406L437.55 235.84L447.597 269.031L447.715 292.865L447.789 296.141C448.476 297.216 448.956 298.629 449.091 300.202C449.399 303.798 447.796 306.872 445.509 307.069H445.509Z" fill="#FFB6B6"/>
<path d="M426.167 229.182C426.167 229.182 429.61 226.503 433.818 227.651C438.025 228.8 448.565 268.218 448.565 268.218L438.79 274.724L426.167 229.182V229.182Z" fill="#76549A"/>
<path d="M226.893 295.436H181.007C178.207 295.436 175.928 293.156 175.928 290.355V285.763C175.928 282.961 178.207 280.682 181.007 280.682H226.893C229.693 280.682 231.971 282.961 231.971 285.763V290.355C231.971 293.156 229.693 295.436 226.893 295.436Z" fill="#76549A"/>
<path d="M403.23 145.383H357.344C354.544 145.383 352.266 143.103 352.266 140.302V135.71C352.266 132.908 354.544 130.629 357.344 130.629H403.23C406.03 130.629 408.309 132.908 408.309 135.71V140.302C408.309 143.103 406.03 145.383 403.23 145.383Z" fill="#76549A"/>
<path d="M294.964 295.775H249.078C246.091 295.775 243.661 293.343 243.661 290.355V285.763C243.661 282.774 246.091 280.343 249.078 280.343H294.964C297.951 280.343 300.382 282.774 300.382 285.763V290.355C300.382 293.343 297.951 295.775 294.964 295.775ZM249.078 281.7C246.839 281.7 245.017 283.522 245.017 285.763V290.355C245.017 292.595 246.839 294.418 249.078 294.418H294.964C297.203 294.418 299.025 292.595 299.025 290.355V285.763C299.025 283.522 297.203 281.7 294.964 281.7H249.078Z" fill="#76549A"/>
<path d="M351.248 208.239H109.802C107.558 208.239 105.733 206.413 105.733 204.167C105.733 201.922 107.558 200.096 109.802 200.096H351.248C353.492 200.096 355.318 201.922 355.318 204.167C355.318 206.413 353.492 208.239 351.248 208.239Z" fill="#E6E6E6"/>
<path d="M94.4257 142.078H63.9057C61.6618 142.078 59.8364 140.251 59.8364 138.006C59.8364 135.761 61.6618 133.935 63.9057 133.935H94.4257C96.6696 133.935 98.495 135.761 98.495 138.006C98.495 140.251 96.6696 142.078 94.4257 142.078V142.078Z" fill="#E6E6E6"/>
<path d="M276.867 142.078H246.347C244.103 142.078 242.278 140.251 242.278 138.006C242.278 135.761 244.103 133.935 246.347 133.935H276.867C279.111 133.935 280.936 135.761 280.936 138.006C280.936 140.251 279.111 142.078 276.867 142.078Z" fill="#E6E6E6"/>
<path d="M334.516 142.078H303.996C301.752 142.078 299.927 140.251 299.927 138.006C299.927 135.761 301.752 133.935 303.996 133.935H334.516C336.76 133.935 338.585 135.761 338.585 138.006C338.585 140.251 336.76 142.078 334.516 142.078Z" fill="#E6E6E6"/>
<path d="M297.669 250.311H163.381C161.137 250.311 159.312 248.484 159.312 246.239C159.312 243.994 161.137 242.168 163.381 242.168H297.669C299.913 242.168 301.738 243.994 301.738 246.239C301.738 248.484 299.913 250.311 297.669 250.311Z" fill="#E6E6E6"/>
<path d="M303.523 339.378H157.532C156.175 339.378 155.072 338.273 155.072 336.916C155.072 335.558 156.175 334.454 157.532 334.454H303.523C304.88 334.454 305.983 335.558 305.983 336.916C305.983 338.273 304.88 339.378 303.523 339.378Z" fill="#E6E6E6"/>
<path d="M271.126 352.097H189.929C188.572 352.097 187.468 350.993 187.468 349.635C187.468 348.278 188.572 347.173 189.929 347.173H271.126C272.483 347.173 273.586 348.278 273.586 349.635C273.586 350.993 272.483 352.097 271.126 352.097Z" fill="#E6E6E6"/>
<path d="M304.879 100.519H158.889C157.532 100.519 156.428 99.4144 156.428 98.0569C156.428 96.6994 157.532 95.5951 158.889 95.5951H304.879C306.236 95.5951 307.34 96.6994 307.34 98.0569C307.34 99.4144 306.236 100.519 304.879 100.519Z" fill="white"/>
<path d="M324.521 92.7601L323.595 93.7541L327.764 97.6308H315.106C314.732 97.6308 314.428 97.9347 314.428 98.3094C314.428 98.6841 314.732 98.988 315.106 98.988H327.766L323.595 102.866L324.521 103.86L330.486 98.3107L324.521 92.7601V92.7601Z" fill="#76549A"/>
</g>
<defs>
<clipPath id="clip0_22_816">
<rect width="488" height="309" fill="white" transform="translate(26 86)"/>
</clipPath>
</defs>
</svg>
