<svg width="540" height="480" viewBox="0 0 540 480" fill="none" xmlns="http://www.w3.org/2000/svg">
<rect x="0.5" y="0.5" width="539" height="479" fill="white" stroke="black"/>
<g clip-path="url(#clip0_63_1389)">
<path d="M497.897 357.945C493.553 357.765 489.595 356.014 487.804 353.302C487.72 353.175 487.641 353.046 487.567 352.916C486.914 351.76 486.71 350.432 487.424 349.293C488.139 348.155 489.925 347.29 491.718 347.469C493.511 347.649 494.91 349.077 494.168 350.207C494.003 347.923 493.867 345.523 495.711 343.535C496.727 342.496 498.051 341.812 499.487 341.587C503.203 340.934 505.671 343.032 506.165 345.151C506.53 346.715 506.026 348.305 505.525 349.851C507.07 348.026 510.746 347.214 513.562 348.076C516.377 348.938 517.939 351.354 516.977 353.357C515.844 355.717 512.066 356.938 508.557 357.582C505.66 358.115 501.315 358.087 497.897 357.945Z" fill="#F2F2F2"/>
<path d="M346.645 357.945C342.301 357.765 338.343 356.014 336.552 353.302C336.468 353.175 336.39 353.046 336.316 352.916C335.662 351.76 335.458 350.432 336.172 349.293C336.887 348.155 338.673 347.29 340.466 347.469C342.259 347.649 343.658 349.077 342.916 350.207C342.751 347.923 342.615 345.523 344.46 343.535C345.475 342.496 346.799 341.812 348.235 341.587C351.951 340.934 354.419 343.032 354.913 345.151C355.278 346.715 354.774 348.305 354.273 349.851C355.818 348.026 359.494 347.214 362.31 348.076C365.125 348.938 366.687 351.354 365.725 353.357C364.592 355.717 360.814 356.938 357.305 357.582C354.408 358.115 350.063 358.087 346.645 357.945Z" fill="#F2F2F2"/>
<path d="M207.456 221.834H176.299C173.821 221.831 171.445 220.847 169.692 219.098C167.94 217.348 166.954 214.976 166.952 212.501V154.241C166.954 151.767 167.94 149.394 169.692 147.645C171.445 145.895 173.821 144.911 176.299 144.908H207.456C209.934 144.911 212.309 145.895 214.062 147.645C215.814 149.394 216.8 151.767 216.803 154.241V212.501C216.8 214.976 215.814 217.348 214.062 219.098C212.309 220.847 209.934 221.831 207.456 221.834V221.834Z" fill="#F2F2F2"/>
<path d="M398.818 351.747H391.874L388.569 324.999L398.819 325L398.818 351.747Z" fill="#FFB8B8"/>
<path d="M400.59 358.469L378.196 358.468V358.186C378.196 357.043 378.422 355.911 378.86 354.855C379.298 353.799 379.94 352.84 380.749 352.032C381.559 351.223 382.519 350.582 383.577 350.145C384.634 349.708 385.768 349.483 386.913 349.483H386.913L400.59 349.483L400.59 358.469Z" fill="#2F2E41"/>
<path d="M476.402 345.259L469.856 347.574L457.798 323.462L467.46 320.046L476.402 345.259Z" fill="#FFB8B8"/>
<path d="M480.319 351.005L459.21 358.469L459.116 358.203C458.734 357.125 458.568 355.983 458.628 354.842C458.687 353.701 458.972 352.582 459.465 351.551C459.957 350.519 460.649 349.595 461.499 348.83C462.35 348.065 463.343 347.475 464.422 347.093L464.423 347.093L477.315 342.534L480.319 351.005Z" fill="#2F2E41"/>
<path d="M398.625 342.766C398.469 342.766 398.314 342.752 398.16 342.724L389.668 341.183C389.09 341.076 388.566 340.774 388.185 340.327C387.803 339.881 387.587 339.316 387.573 338.73C386.339 281.649 392.408 243.291 405.612 215.797C405.847 215.311 406.232 214.912 406.71 214.66C407.188 214.407 407.734 214.314 408.269 214.394L438.81 218.796C439.367 218.877 439.882 219.14 440.275 219.544C440.667 219.948 440.914 220.47 440.978 221.029L443.671 244.731C443.686 244.859 443.713 244.985 443.751 245.108L473.033 332.707C473.233 333.344 473.174 334.034 472.871 334.629C472.568 335.225 472.043 335.678 471.409 335.892L463.496 338.525C462.914 338.716 462.282 338.692 461.716 338.458C461.15 338.224 460.686 337.795 460.41 337.249L420.802 262.677C420.723 262.521 420.598 262.392 420.443 262.309C420.288 262.226 420.111 262.193 419.937 262.215C419.763 262.237 419.599 262.312 419.469 262.43C419.34 262.548 419.25 262.704 419.212 262.875L401.106 340.766C400.984 341.332 400.671 341.84 400.22 342.204C399.768 342.568 399.205 342.766 398.625 342.766Z" fill="#2F2E41"/>
<path d="M374.488 169.568C374.558 169.873 374.603 170.184 374.624 170.496L398.959 184.513L404.874 181.113L411.179 189.356L401.294 196.391C400.495 196.959 399.534 197.254 398.553 197.23C397.573 197.206 396.627 196.865 395.857 196.259L370.763 176.492C369.631 176.911 368.398 176.975 367.228 176.677C366.058 176.379 365.006 175.732 364.213 174.822C363.421 173.913 362.924 172.784 362.789 171.585C362.655 170.387 362.889 169.176 363.46 168.114C364.032 167.052 364.914 166.189 365.988 165.639C367.063 165.09 368.28 164.88 369.477 165.038C370.674 165.195 371.795 165.713 372.69 166.523C373.585 167.332 374.213 168.394 374.488 169.568V169.568Z" fill="#FFB8B8"/>
<path d="M399.293 183.112C399.366 182.754 399.516 182.415 399.732 182.12C399.949 181.825 400.226 181.58 400.546 181.401L411.713 175.166C413.197 174.023 415.074 173.513 416.933 173.75C418.793 173.986 420.482 174.949 421.632 176.427C422.781 177.906 423.296 179.779 423.065 181.636C422.833 183.493 421.873 185.183 420.395 186.334L411.492 195.566C411.238 195.83 410.93 196.035 410.589 196.169C410.248 196.303 409.882 196.362 409.516 196.342C409.15 196.322 408.793 196.223 408.469 196.053C408.145 195.883 407.861 195.645 407.637 195.355L399.772 185.177C399.548 184.888 399.39 184.553 399.307 184.197C399.224 183.841 399.22 183.471 399.293 183.112Z" fill="#76549A"/>
<path d="M425.298 168.171C432.982 168.171 439.212 161.951 439.212 154.278C439.212 146.606 432.982 140.386 425.298 140.386C417.614 140.386 411.385 146.606 411.385 154.278C411.385 161.951 417.614 168.171 425.298 168.171Z" fill="#FFB8B8"/>
<path d="M438.846 221.76C438.708 221.76 438.57 221.748 438.434 221.726L408.323 216.797C407.983 216.741 407.658 216.617 407.367 216.433C407.076 216.248 406.826 216.006 406.631 215.722C406.437 215.438 406.302 215.117 406.235 214.78C406.168 214.442 406.17 214.094 406.242 213.757L407.707 206.862C406.957 205.745 400.851 196.032 408.288 186.909C408.145 183.668 409.275 180.5 411.437 178.078C413.599 175.657 416.622 174.173 419.863 173.944L435.424 172.763C437.426 172.612 439.435 172.942 441.282 173.728C443.129 174.513 444.76 175.729 446.039 177.275C447.317 178.821 448.204 180.651 448.627 182.61C449.049 184.57 448.994 186.602 448.466 188.536L441.332 219.78C441.203 220.342 440.886 220.843 440.435 221.203C439.984 221.562 439.424 221.759 438.846 221.76V221.76Z" fill="#76549A"/>
<path d="M466.965 247.886C467.476 247.159 467.82 246.329 467.975 245.454C468.13 244.579 468.09 243.681 467.86 242.823C467.629 241.965 467.213 241.168 466.64 240.488C466.068 239.808 465.353 239.262 464.546 238.887L447.402 186.257L437.467 190.964L456.225 242.21C455.685 243.605 455.677 245.149 456.201 246.55C456.725 247.951 457.746 249.111 459.07 249.811C460.394 250.511 461.929 250.701 463.384 250.347C464.839 249.992 466.113 249.116 466.965 247.886V247.886Z" fill="#FFB8B8"/>
<path d="M451.194 195.019L438.001 198.999C437.626 199.112 437.231 199.143 436.842 199.09C436.454 199.037 436.081 198.901 435.75 198.691C435.419 198.481 435.137 198.202 434.924 197.874C434.71 197.546 434.57 197.175 434.513 196.788L432.51 183.215C431.94 181.294 432.156 179.226 433.112 177.464C434.067 175.702 435.683 174.39 437.606 173.816C439.528 173.242 441.601 173.453 443.368 174.403C445.135 175.353 446.452 176.963 447.031 178.882L452.873 191.25C453.04 191.604 453.129 191.99 453.133 192.381C453.138 192.773 453.057 193.161 452.898 193.519C452.739 193.876 452.504 194.196 452.21 194.455C451.916 194.714 451.569 194.906 451.194 195.019H451.194Z" fill="#76549A"/>
<path d="M411.773 154.815C414.862 155.99 418.224 156.255 421.459 155.576C424.694 154.898 427.666 153.306 430.02 150.989C428.561 154.839 428.969 171.167 428.969 171.167C428.969 171.167 441.911 165.032 443.667 163.959C454.038 157.622 439.735 130.053 427.836 134.401C425.821 135.137 424.137 136.004 423.322 137.986C421.546 135.798 418.182 135.323 415.595 136.447C413.008 137.571 411.169 140.007 410.181 142.645C409.4 144.774 409.096 147.048 409.291 149.307C409.486 151.566 410.175 153.755 411.31 155.719L411.773 154.815Z" fill="black"/>
<path d="M351.06 122H32.6941C27.7376 122.005 22.9855 123.973 19.4808 127.472C15.976 130.972 14.0049 135.717 14 140.666V227.773C14.0049 232.722 15.976 237.467 19.4808 240.967C22.9855 244.466 27.7376 246.434 32.6941 246.439H351.06C356.017 246.434 360.769 244.466 364.273 240.967C367.778 237.467 369.749 232.722 369.754 227.773V140.666C369.749 135.717 367.778 130.972 364.273 127.472C360.769 123.973 356.017 122.005 351.06 122V122ZM368.621 227.773C368.615 232.422 366.763 236.878 363.471 240.166C360.179 243.453 355.716 245.302 351.06 245.308H32.6941C28.0384 245.302 23.5751 243.453 20.2831 240.166C16.991 236.878 15.1389 232.422 15.133 227.773V140.666C15.1389 136.017 16.991 131.561 20.2831 128.274C23.5751 124.986 28.0384 123.137 32.6941 123.131H351.06C355.716 123.137 360.179 124.986 363.471 128.274C366.763 131.561 368.615 136.017 368.621 140.666V227.773Z" fill="#3F3D56"/>
<path d="M64.2759 204.3C62.9314 204.3 61.6171 203.901 60.4992 203.156C59.3813 202.41 58.51 201.35 57.9955 200.109C57.481 198.869 57.3464 197.504 57.6086 196.188C57.8709 194.871 58.5184 193.662 59.4691 192.712C60.4198 191.763 61.631 191.117 62.9497 190.855C64.2683 190.593 65.6352 190.727 66.8773 191.241C68.1195 191.755 69.1811 192.625 69.9281 193.741C70.6751 194.857 71.0737 196.169 71.0737 197.512C71.0717 199.311 70.3548 201.037 69.0804 202.309C67.806 203.582 66.0782 204.297 64.2759 204.3V204.3ZM64.2759 191.856C63.1555 191.856 62.0602 192.187 61.1286 192.809C60.1971 193.43 59.471 194.314 59.0422 195.347C58.6135 196.381 58.5013 197.518 58.7199 198.615C58.9384 199.713 59.478 200.721 60.2702 201.512C61.0625 202.303 62.0718 202.841 63.1707 203.06C64.2696 203.278 65.4086 203.166 66.4437 202.738C67.4789 202.31 68.3636 201.585 68.9861 200.654C69.6085 199.724 69.9408 198.631 69.9408 197.512C69.9391 196.012 69.3417 194.575 68.2797 193.514C67.2177 192.454 65.7778 191.857 64.2759 191.856V191.856Z" fill="#3F3D56"/>
<path d="M64.0528 189.027C63.9026 189.027 63.7585 188.968 63.6522 188.862C63.546 188.756 63.4863 188.612 63.4863 188.462V181.957C63.4863 181.807 63.546 181.663 63.6522 181.557C63.7585 181.451 63.9026 181.391 64.0528 181.391C64.2031 181.391 64.3471 181.451 64.4534 181.557C64.5596 181.663 64.6193 181.807 64.6193 181.957V188.462C64.6193 188.612 64.5596 188.756 64.4534 188.862C64.3471 188.968 64.2031 189.027 64.0528 189.027Z" fill="#3F3D56"/>
<path d="M55.212 197.855H48.6973C48.5471 197.855 48.403 197.795 48.2968 197.689C48.1905 197.583 48.1309 197.439 48.1309 197.289C48.1309 197.139 48.1905 196.995 48.2968 196.889C48.403 196.783 48.5471 196.724 48.6973 196.724H55.212C55.3622 196.724 55.5063 196.783 55.6125 196.889C55.7188 196.995 55.7784 197.139 55.7784 197.289C55.7784 197.439 55.7188 197.583 55.6125 197.689C55.5063 197.795 55.3622 197.855 55.212 197.855Z" fill="#3F3D56"/>
<path d="M79.0044 197.855H72.4898C72.3396 197.855 72.1955 197.795 72.0893 197.689C71.983 197.583 71.9233 197.439 71.9233 197.289C71.9233 197.139 71.983 196.995 72.0893 196.889C72.1955 196.783 72.3396 196.724 72.4898 196.724H79.0044C79.1547 196.724 79.2988 196.783 79.405 196.889C79.5112 196.995 79.5709 197.139 79.5709 197.289C79.5709 197.439 79.5112 197.583 79.405 197.689C79.2988 197.795 79.1547 197.855 79.0044 197.855Z" fill="#3F3D56"/>
<path d="M72.3111 191.67C72.1983 191.67 72.0881 191.637 71.9946 191.574C71.9011 191.511 71.8285 191.421 71.7861 191.317C71.7438 191.213 71.7335 191.098 71.7568 190.988C71.7801 190.878 71.8357 190.777 71.9167 190.699L74.6448 188.056C74.7527 187.951 74.8977 187.894 75.0479 187.896C75.1981 187.899 75.3413 187.96 75.4459 188.068C75.5505 188.176 75.608 188.32 75.6057 188.47C75.6034 188.62 75.5416 188.763 75.4337 188.868L72.7056 191.511C72.6 191.613 72.4584 191.671 72.3111 191.67V191.67Z" fill="#3F3D56"/>
<path d="M55.6741 191.67C55.5268 191.67 55.3852 191.613 55.2796 191.511L52.5514 188.868C52.4981 188.816 52.4554 188.754 52.4259 188.686C52.3964 188.618 52.3806 188.545 52.3795 188.47C52.3783 188.396 52.3919 188.322 52.4193 188.253C52.4467 188.184 52.4875 188.121 52.5393 188.068C52.5911 188.015 52.6529 187.972 52.7212 187.943C52.7895 187.913 52.8629 187.897 52.9373 187.896C53.0117 187.895 53.0856 187.909 53.1547 187.936C53.2239 187.963 53.2869 188.004 53.3403 188.056L56.0685 190.699C56.1494 190.777 56.2051 190.878 56.2284 190.988C56.2516 191.098 56.2414 191.213 56.1991 191.317C56.1567 191.421 56.0841 191.511 55.9906 191.574C55.897 191.637 55.7868 191.67 55.6741 191.67Z" fill="#3F3D56"/>
<path d="M53.5127 207.128C53.4014 207.128 53.2926 207.095 53.1998 207.033C53.107 206.972 53.0344 206.885 52.991 206.782C52.9477 206.68 52.9355 206.567 52.956 206.458C52.9765 206.349 53.0287 206.248 53.1062 206.168L55.8344 203.363C55.9391 203.255 56.0823 203.193 56.2326 203.191C56.3828 203.189 56.5278 203.246 56.6356 203.351C56.7434 203.455 56.8052 203.599 56.8074 203.749C56.8096 203.899 56.752 204.043 56.6474 204.151L53.9192 206.956C53.8664 207.011 53.8032 207.054 53.7334 207.083C53.6636 207.113 53.5885 207.128 53.5127 207.128V207.128Z" fill="#3F3D56"/>
<path d="M75.6056 207.693C75.5301 207.693 75.4552 207.678 75.3856 207.649C75.316 207.62 75.2529 207.577 75.2003 207.523L71.9056 204.152C71.8537 204.099 71.8127 204.036 71.7851 203.967C71.7575 203.898 71.7438 203.824 71.7447 203.75C71.7456 203.676 71.7611 203.602 71.7904 203.534C71.8197 203.466 71.8622 203.404 71.9155 203.352C71.9687 203.3 72.0316 203.259 72.1007 203.232C72.1697 203.204 72.2436 203.19 72.3179 203.191C72.3923 203.192 72.4658 203.208 72.5341 203.237C72.6025 203.266 72.6644 203.309 72.7164 203.362L76.011 206.733C76.0889 206.812 76.1415 206.913 76.1622 207.022C76.183 207.132 76.171 207.245 76.1277 207.347C76.0844 207.45 76.0118 207.537 75.919 207.599C75.8261 207.661 75.7171 207.693 75.6056 207.693Z" fill="#3F3D56"/>
<path d="M64.0528 213.35C63.9026 213.35 63.7585 213.29 63.6522 213.184C63.546 213.078 63.4863 212.934 63.4863 212.784V206.279C63.4863 206.129 63.546 205.985 63.6522 205.879C63.7585 205.773 63.9026 205.714 64.0528 205.714C64.2031 205.714 64.3471 205.773 64.4534 205.879C64.5596 205.985 64.6193 206.129 64.6193 206.279V212.784C64.6193 212.934 64.5596 213.078 64.4534 213.184C64.3471 213.29 64.2031 213.35 64.0528 213.35Z" fill="#3F3D56"/>
<path d="M138.154 208.259H119.243C117.312 208.226 115.47 207.437 114.116 206.062C112.761 204.686 112.002 202.835 112.002 200.906C112.002 198.977 112.761 197.125 114.116 195.75C115.47 194.374 117.312 193.585 119.243 193.552H120.689C121.407 192.035 122.54 190.752 123.957 189.851C125.374 188.951 127.018 188.469 128.698 188.462C130.983 188.483 133.174 189.371 134.826 190.948C136.477 192.524 137.466 194.668 137.591 196.946H138.154C139.64 196.971 141.057 197.577 142.099 198.636C143.142 199.694 143.726 201.118 143.726 202.603C143.726 204.087 143.142 205.512 142.099 206.57C141.057 207.628 139.64 208.234 138.154 208.259V208.259ZM119.243 194.684C117.612 194.716 116.059 195.386 114.917 196.55C113.775 197.713 113.136 199.277 113.136 200.906C113.136 202.535 113.775 204.099 114.917 205.262C116.059 206.425 117.612 207.095 119.243 207.128H138.154C139.339 207.103 140.468 206.616 141.298 205.77C142.128 204.924 142.593 203.787 142.593 202.603C142.593 201.418 142.128 200.281 141.298 199.435C140.468 198.59 139.339 198.102 138.154 198.078H137.041C136.891 198.078 136.747 198.018 136.641 197.912C136.534 197.806 136.475 197.662 136.475 197.512C136.493 195.433 135.684 193.432 134.226 191.947C132.769 190.463 130.781 189.616 128.698 189.593C127.176 189.601 125.689 190.055 124.423 190.899C123.157 191.744 122.166 192.94 121.575 194.341C121.531 194.443 121.459 194.53 121.366 194.59C121.274 194.651 121.165 194.684 121.054 194.684H119.243Z" fill="#3F3D56"/>
<path d="M201.321 197.544L200.88 196.502C201.737 196.141 202.491 195.574 203.077 194.852C203.662 194.13 204.061 193.275 204.237 192.363C204.413 191.451 204.362 190.509 204.087 189.622C203.813 188.734 203.324 187.927 202.663 187.273C202.002 186.619 201.19 186.138 200.299 185.871C199.408 185.605 198.464 185.562 197.552 185.746C196.64 185.93 195.788 186.335 195.07 186.926C194.352 187.517 193.791 188.275 193.436 189.134L192.389 188.702C192.814 187.672 193.488 186.762 194.349 186.053C195.211 185.344 196.234 184.857 197.328 184.637C198.422 184.416 199.554 184.468 200.624 184.788C201.693 185.107 202.668 185.685 203.46 186.47C204.253 187.255 204.84 188.222 205.17 189.287C205.499 190.353 205.561 191.482 205.35 192.577C205.138 193.671 204.66 194.697 203.958 195.563C203.255 196.43 202.35 197.11 201.321 197.544V197.544Z" fill="#3F3D56"/>
<path d="M202.166 208.259H183.256C181.324 208.226 179.483 207.437 178.129 206.062C176.774 204.686 176.015 202.835 176.015 200.906C176.015 198.977 176.774 197.125 178.129 195.75C179.483 194.374 181.324 193.585 183.256 193.552H184.702C185.42 192.035 186.553 190.752 187.97 189.851C189.387 188.951 191.031 188.469 192.711 188.462C194.996 188.483 197.187 189.371 198.838 190.948C200.49 192.524 201.479 194.668 201.603 196.946H202.166C203.653 196.971 205.07 197.577 206.112 198.636C207.154 199.694 207.739 201.118 207.739 202.603C207.739 204.087 207.154 205.512 206.112 206.57C205.07 207.628 203.653 208.234 202.166 208.259V208.259ZM183.256 194.684C181.625 194.716 180.072 195.386 178.93 196.55C177.788 197.713 177.148 199.277 177.148 200.906C177.148 202.535 177.788 204.099 178.93 205.262C180.072 206.425 181.625 207.095 183.256 207.128H202.166C203.352 207.103 204.481 206.616 205.311 205.77C206.141 204.924 206.606 203.787 206.606 202.603C206.606 201.418 206.141 200.281 205.311 199.435C204.481 198.59 203.352 198.102 202.166 198.078H201.054C200.904 198.078 200.76 198.018 200.653 197.912C200.547 197.806 200.487 197.662 200.487 197.512C200.505 195.433 199.697 193.432 198.239 191.947C196.781 190.463 194.793 189.616 192.711 189.593C191.189 189.601 189.702 190.055 188.436 190.899C187.169 191.744 186.179 192.94 185.588 194.341C185.544 194.443 185.471 194.53 185.379 194.59C185.286 194.651 185.178 194.684 185.067 194.684H183.256Z" fill="#3F3D56"/>
<path d="M266.18 205.431H263.906C263.755 205.431 263.611 205.371 263.505 205.265C263.399 205.159 263.339 205.015 263.339 204.865C263.339 204.715 263.399 204.571 263.505 204.465C263.611 204.359 263.755 204.3 263.906 204.3H266.18C267.365 204.275 268.494 203.788 269.324 202.942C270.154 202.096 270.619 200.959 270.619 199.774C270.619 198.59 270.154 197.453 269.324 196.607C268.494 195.761 267.365 195.274 266.18 195.249H265.067C264.917 195.249 264.773 195.19 264.667 195.084C264.56 194.978 264.501 194.834 264.501 194.684C264.519 192.605 263.71 190.604 262.252 189.119C260.794 187.635 258.806 186.788 256.724 186.765C255.202 186.773 253.715 187.227 252.449 188.071C251.182 188.915 250.192 190.112 249.601 191.513C249.557 191.615 249.485 191.701 249.392 191.762C249.3 191.823 249.191 191.856 249.08 191.856H247.269C245.638 191.888 244.085 192.558 242.943 193.721C241.801 194.885 241.161 196.449 241.161 198.078C241.161 199.706 241.801 201.27 242.943 202.434C244.085 203.597 245.638 204.267 247.269 204.3H249.025C249.176 204.3 249.32 204.359 249.426 204.465C249.532 204.571 249.592 204.715 249.592 204.865C249.592 205.015 249.532 205.159 249.426 205.265C249.32 205.371 249.176 205.431 249.025 205.431H247.269C245.338 205.398 243.496 204.609 242.142 203.234C240.787 201.858 240.028 200.007 240.028 198.078C240.028 196.149 240.787 194.297 242.142 192.921C243.496 191.546 245.338 190.757 247.269 190.724H248.715C249.433 189.207 250.566 187.924 251.983 187.023C253.4 186.122 255.044 185.641 256.724 185.634C259.009 185.655 261.2 186.543 262.851 188.119C264.503 189.695 265.492 191.84 265.616 194.118H266.18C267.666 194.143 269.083 194.749 270.125 195.807C271.168 196.866 271.752 198.29 271.752 199.774C271.752 201.259 271.168 202.683 270.125 203.742C269.083 204.8 267.666 205.406 266.18 205.431V205.431Z" fill="#3F3D56"/>
<path d="M256.63 207.873C256.48 207.873 256.336 207.813 256.23 207.707C256.124 207.601 256.064 207.457 256.064 207.307V200.802C256.064 200.652 256.124 200.508 256.23 200.402C256.336 200.296 256.48 200.237 256.63 200.237C256.781 200.237 256.925 200.296 257.031 200.402C257.137 200.508 257.197 200.652 257.197 200.802V207.307C257.197 207.457 257.137 207.601 257.031 207.707C256.925 207.813 256.781 207.873 256.63 207.873V207.873Z" fill="#3F3D56"/>
<path d="M252.665 211.266C252.515 211.266 252.371 211.207 252.265 211.101C252.158 210.995 252.099 210.851 252.099 210.701V204.196C252.099 204.046 252.158 203.902 252.265 203.796C252.371 203.69 252.515 203.63 252.665 203.63C252.815 203.63 252.959 203.69 253.066 203.796C253.172 203.902 253.232 204.046 253.232 204.196V210.701C253.232 210.851 253.172 210.995 253.066 211.101C252.959 211.207 252.815 211.266 252.665 211.266Z" fill="#3F3D56"/>
<path d="M260.596 212.963C260.446 212.963 260.302 212.904 260.196 212.798C260.089 212.691 260.03 212.548 260.03 212.398V205.893C260.03 205.743 260.089 205.599 260.196 205.493C260.302 205.387 260.446 205.327 260.596 205.327C260.747 205.327 260.891 205.387 260.997 205.493C261.103 205.599 261.163 205.743 261.163 205.893V212.398C261.163 212.548 261.103 212.691 260.997 212.798C260.891 212.904 260.747 212.963 260.596 212.963V212.963Z" fill="#3F3D56"/>
<path d="M330.193 205.431H327.919C327.769 205.431 327.625 205.371 327.518 205.265C327.412 205.159 327.352 205.015 327.352 204.865C327.352 204.715 327.412 204.571 327.518 204.465C327.625 204.359 327.769 204.3 327.919 204.3H330.193C331.378 204.275 332.507 203.788 333.337 202.942C334.167 202.096 334.632 200.959 334.632 199.774C334.632 198.59 334.167 197.453 333.337 196.607C332.507 195.761 331.378 195.274 330.193 195.249H329.08C328.93 195.249 328.786 195.19 328.68 195.084C328.574 194.978 328.514 194.834 328.514 194.684C328.532 192.605 327.723 190.604 326.265 189.119C324.808 187.635 322.82 186.788 320.738 186.765C319.215 186.773 317.728 187.227 316.462 188.071C315.196 188.915 314.205 190.112 313.614 191.513C313.57 191.615 313.498 191.701 313.405 191.762C313.313 191.823 313.204 191.856 313.094 191.856H311.282C309.651 191.888 308.098 192.558 306.956 193.721C305.814 194.885 305.175 196.449 305.175 198.078C305.175 199.706 305.814 201.27 306.956 202.434C308.098 203.597 309.651 204.267 311.282 204.3H313.038C313.189 204.3 313.333 204.359 313.439 204.465C313.545 204.571 313.605 204.715 313.605 204.865C313.605 205.015 313.545 205.159 313.439 205.265C313.333 205.371 313.189 205.431 313.038 205.431H311.282C309.351 205.398 307.509 204.609 306.155 203.234C304.8 201.858 304.042 200.007 304.042 198.078C304.042 196.149 304.8 194.297 306.155 192.921C307.509 191.546 309.351 190.757 311.282 190.724H312.729C313.446 189.207 314.579 187.924 315.996 187.023C317.414 186.122 319.057 185.641 320.738 185.634C323.022 185.655 325.213 186.543 326.865 188.119C328.516 189.695 329.505 191.84 329.63 194.118H330.193C331.679 194.143 333.096 194.749 334.138 195.807C335.181 196.866 335.765 198.29 335.765 199.774C335.765 201.259 335.181 202.683 334.138 203.742C333.096 204.8 331.679 205.406 330.193 205.431V205.431Z" fill="#3F3D56"/>
<path d="M319.762 204.017C320.466 204.017 321.036 203.447 321.036 202.744C321.036 202.041 320.466 201.471 319.762 201.471C319.058 201.471 318.487 202.041 318.487 202.744C318.487 203.447 319.058 204.017 319.762 204.017Z" fill="#3F3D56"/>
<path d="M324.01 205.714C324.714 205.714 325.285 205.144 325.285 204.441C325.285 203.738 324.714 203.168 324.01 203.168C323.306 203.168 322.736 203.738 322.736 204.441C322.736 205.144 323.306 205.714 324.01 205.714Z" fill="#3F3D56"/>
<path d="M316.929 207.693C317.633 207.693 318.204 207.124 318.204 206.421C318.204 205.718 317.633 205.148 316.929 205.148C316.225 205.148 315.655 205.718 315.655 206.421C315.655 207.124 316.225 207.693 316.929 207.693Z" fill="#3F3D56"/>
<path d="M321.461 210.521C322.165 210.521 322.736 209.952 322.736 209.249C322.736 208.546 322.165 207.976 321.461 207.976C320.757 207.976 320.187 208.546 320.187 209.249C320.187 209.952 320.757 210.521 321.461 210.521Z" fill="#3F3D56"/>
<path d="M80.2788 162.443H47.4225C46.2206 162.443 45.0679 161.966 44.218 161.117C43.3681 160.269 42.8906 159.118 42.8906 157.918C42.8906 156.718 43.3681 155.567 44.218 154.718C45.0679 153.869 46.2206 153.393 47.4225 153.393H80.2788C81.4808 153.393 82.6334 153.869 83.4833 154.718C84.3332 155.567 84.8107 156.718 84.8107 157.918C84.8107 159.118 84.3332 160.269 83.4833 161.117C82.6334 161.966 81.4808 162.443 80.2788 162.443Z" fill="#76549A"/>
<path d="M144.292 162.443H111.436C110.234 162.443 109.081 161.966 108.231 161.117C107.381 160.269 106.904 159.118 106.904 157.918C106.904 156.718 107.381 155.567 108.231 154.718C109.081 153.869 110.234 153.393 111.436 153.393H144.292C145.494 153.393 146.647 153.869 147.497 154.718C148.346 155.567 148.824 156.718 148.824 157.918C148.824 159.118 148.346 160.269 147.497 161.117C146.647 161.966 145.494 162.443 144.292 162.443Z" fill="#76549A"/>
<path d="M208.305 162.443H175.449C174.247 162.443 173.094 161.966 172.244 161.117C171.394 160.269 170.917 159.118 170.917 157.918C170.917 156.718 171.394 155.567 172.244 154.718C173.094 153.869 174.247 153.393 175.449 153.393H208.305C209.507 153.393 210.66 153.869 211.51 154.718C212.36 155.567 212.837 156.718 212.837 157.918C212.837 159.118 212.36 160.269 211.51 161.117C210.66 161.966 209.507 162.443 208.305 162.443Z" fill="#76549A"/>
<path d="M272.318 162.443H239.462C238.26 162.443 237.107 161.966 236.258 161.117C235.408 160.269 234.93 159.118 234.93 157.918C234.93 156.718 235.408 155.567 236.258 154.718C237.107 153.869 238.26 153.393 239.462 153.393H272.318C273.52 153.393 274.673 153.869 275.523 154.718C276.373 155.567 276.85 156.718 276.85 157.918C276.85 159.118 276.373 160.269 275.523 161.117C274.673 161.966 273.52 162.443 272.318 162.443Z" fill="#76549A"/>
<path d="M336.332 162.443H303.475C302.273 162.443 301.121 161.966 300.271 161.117C299.421 160.269 298.943 159.118 298.943 157.918C298.943 156.718 299.421 155.567 300.271 154.718C301.121 153.869 302.273 153.393 303.475 153.393H336.332C337.533 153.393 338.686 153.869 339.536 154.718C340.386 155.567 340.863 156.718 340.863 157.918C340.863 159.118 340.386 160.269 339.536 161.117C338.686 161.966 337.533 162.443 336.332 162.443Z" fill="#76549A"/>
<path d="M94.4415 215.612C94.2912 215.612 94.1471 215.553 94.0409 215.447C93.9347 215.34 93.875 215.197 93.875 215.047V172.058C93.875 171.908 93.9347 171.765 94.0409 171.659C94.1471 171.552 94.2912 171.493 94.4415 171.493C94.5917 171.493 94.7358 171.552 94.842 171.659C94.9483 171.765 95.008 171.908 95.008 172.058V215.047C95.008 215.197 94.9483 215.34 94.842 215.447C94.7358 215.553 94.5917 215.612 94.4415 215.612Z" fill="#E6E6E6"/>
<path d="M158.454 215.047C158.304 215.047 158.16 214.987 158.054 214.881C157.947 214.775 157.888 214.631 157.888 214.481V171.493C157.888 171.343 157.947 171.199 158.054 171.093C158.16 170.987 158.304 170.927 158.454 170.927C158.604 170.927 158.749 170.987 158.855 171.093C158.961 171.199 159.021 171.343 159.021 171.493V214.481C159.021 214.631 158.961 214.775 158.855 214.881C158.749 214.987 158.604 215.047 158.454 215.047Z" fill="#E6E6E6"/>
<path d="M225.866 215.047C225.716 215.047 225.572 214.987 225.466 214.881C225.359 214.775 225.3 214.631 225.3 214.481V171.493C225.3 171.343 225.359 171.199 225.466 171.093C225.572 170.987 225.716 170.927 225.866 170.927C226.017 170.927 226.161 170.987 226.267 171.093C226.373 171.199 226.433 171.343 226.433 171.493V214.481C226.433 214.631 226.373 214.775 226.267 214.881C226.161 214.987 226.017 215.047 225.866 215.047Z" fill="#E6E6E6"/>
<path d="M289.879 215.047C289.729 215.047 289.585 214.987 289.479 214.881C289.373 214.775 289.313 214.631 289.313 214.481V171.493C289.313 171.343 289.373 171.199 289.479 171.093C289.585 170.987 289.729 170.927 289.879 170.927C290.03 170.927 290.174 170.987 290.28 171.093C290.386 171.199 290.446 171.343 290.446 171.493V214.481C290.446 214.631 290.386 214.775 290.28 214.881C290.174 214.987 290.03 215.047 289.879 215.047Z" fill="#E6E6E6"/>
<path d="M525.433 359H309.602C309.451 359 309.307 358.94 309.201 358.834C309.095 358.728 309.035 358.584 309.035 358.434C309.035 358.284 309.095 358.14 309.201 358.034C309.307 357.928 309.451 357.869 309.602 357.869H525.433C525.584 357.869 525.728 357.928 525.834 358.034C525.94 358.14 526 358.284 526 358.434C526 358.584 525.94 358.728 525.834 358.834C525.728 358.94 525.584 359 525.433 359Z" fill="#3F3D56"/>
</g>
<defs>
<clipPath id="clip0_63_1389">
<rect width="512" height="237" fill="white" transform="translate(14 122)"/>
</clipPath>
</defs>
</svg>
